a0000-p0000.ufo
<glyph name="exclam" format="1">
  <advance width="191"/>
  <unicode hex="0021"/>
  <outline>
    <contour>
      <point x="99" y="6" type="curve" smooth="yes"/>
      <point x="117" y="6"/>
      <point x="129" y="17"/>
      <point x="129" y="35" type="curve" smooth="yes"/>
      <point x="129" y="53"/>
      <point x="117" y="65"/>
      <point x="99" y="65" type="curve" smooth="yes"/>
      <point x="81" y="65"/>
      <point x="70" y="54"/>
      <point x="70" y="35" type="curve" smooth="yes"/>
      <point x="70" y="17"/>
      <point x="81" y="6"/>
    </contour>
    <contour>
      <point x="83" y="147" type="line"/>
      <point x="107" y="147" type="line"/>
      <point x="107" y="161" type="line"/>
      <point x="112" y="730" type="line"/>
      <point x="112" y="740" type="line"/>
      <point x="78" y="740" type="line"/>
      <point x="78" y="730" type="line"/>
      <point x="83" y="161" type="line"/>
    </contour>
  </outline>
</glyph>
<glyph name="percent" format="1">
  <advance width="744"/>
  <unicode hex="0025"/>
  <note>
    450
  </note>
  <outline>
    <contour>
      <point x="177" y="288" type="curve" smooth="yes"/>
      <point x="269" y="288"/>
      <point x="316" y="367"/>
      <point x="316" y="519" type="curve" smooth="yes"/>
      <point x="316" y="670"/>
      <point x="269" y="750"/>
      <point x="177" y="750" type="curve" smooth="yes"/>
      <point x="85" y="750"/>
      <point x="37" y="670"/>
      <point x="37" y="519" type="curve" smooth="yes"/>
      <point x="37" y="366"/>
      <point x="85" y="288"/>
    </contour>
    <contour>
      <point x="177" y="322" type="curve" smooth="yes"/>
      <point x="106" y="322"/>
      <point x="70" y="388"/>
      <point x="70" y="519" type="curve" smooth="yes"/>
      <point x="70" y="647"/>
      <point x="108" y="716"/>
      <point x="177" y="716" type="curve" smooth="yes"/>
      <point x="245" y="716"/>
      <point x="282" y="647"/>
      <point x="282" y="519" type="curve" smooth="yes"/>
      <point x="282" y="389"/>
      <point x="247" y="322"/>
    </contour>
    <contour>
      <point x="569" y="-14" type="curve" smooth="yes"/>
      <point x="661" y="-14"/>
      <point x="708" y="65"/>
      <point x="708" y="217" type="curve" smooth="yes"/>
      <point x="708" y="368"/>
      <point x="661" y="448"/>
      <point x="569" y="448" type="curve" smooth="yes"/>
      <point x="477" y="448"/>
      <point x="429" y="368"/>
      <point x="429" y="217" type="curve" smooth="yes"/>
      <point x="429" y="64"/>
      <point x="477" y="-14"/>
    </contour>
    <contour>
      <point x="569" y="20" type="curve" smooth="yes"/>
      <point x="498" y="20"/>
      <point x="462" y="86"/>
      <point x="462" y="217" type="curve" smooth="yes"/>
      <point x="462" y="345"/>
      <point x="500" y="414"/>
      <point x="569" y="414" type="curve" smooth="yes"/>
      <point x="637" y="414"/>
      <point x="674" y="345"/>
      <point x="674" y="217" type="curve" smooth="yes"/>
      <point x="674" y="87"/>
      <point x="639" y="20"/>
    </contour>
    <contour>
      <point x="220" y="0" type="line"/>
      <point x="255" y="0" type="line"/>
      <point x="515" y="740" type="line"/>
      <point x="480" y="740" type="line"/>
    </contour>
  </outline>
</glyph>
<glyph name="quotesingle" format="1">
  <advance width="151"/>
  <unicode hex="0027"/>
  <outline>
    <contour>
      <point x="63" y="808" type="line"/>
      <point x="63" y="480" type="line"/>
      <point x="80" y="480" type="line"/>
      <point x="97" y="804" type="line"/>
      <point x="97" y="808" type="line"/>
    </contour>
  </outline>
</glyph>
<glyph name="parenright" format="1">
  <advance width="248"/>
  <unicode hex="0029"/>
  <outline>
    <contour>
      <point x="53" y="-160" type="line"/>
      <point x="152" y="-14"/>
      <point x="206" y="167"/>
      <point x="206" y="354" type="curve" smooth="yes"/>
      <point x="206" y="541"/>
      <point x="152" y="722"/>
      <point x="53" y="868" type="curve"/>
      <point x="21" y="868" type="line"/>
      <point x="21" y="864" type="line"/>
      <point x="118" y="721"/>
      <point x="170" y="543"/>
      <point x="170" y="354" type="curve" smooth="yes"/>
      <point x="170" y="164"/>
      <point x="118" y="-13"/>
      <point x="21" y="-156" type="curve"/>
      <point x="21" y="-160" type="line"/>
    </contour>
  </outline>
</glyph>
<glyph name="asterisk" format="1">
  <advance width="468"/>
  <unicode hex="002A"/>
  <outline>
    <contour>
      <point x="229" y="638" type="line"/>
      <point x="239" y="638" type="line"/>
      <point x="241" y="641" type="line"/>
      <point x="251" y="754" type="line"/>
      <point x="251" y="838" type="line"/>
      <point x="217" y="838" type="line"/>
      <point x="217" y="754" type="line"/>
      <point x="227" y="641" type="line"/>
    </contour>
    <contour>
      <point x="233" y="635" type="line"/>
      <point x="237" y="648" type="line"/>
      <point x="133" y="692" type="line"/>
      <point x="52" y="717" type="line"/>
      <point x="42" y="685" type="line"/>
      <point x="122" y="660" type="line"/>
    </contour>
    <contour>
      <point x="132" y="472" type="line"/>
      <point x="181" y="540" type="line"/>
      <point x="239" y="638" type="line"/>
      <point x="228" y="646" type="line"/>
      <point x="154" y="560" type="line"/>
      <point x="105" y="491" type="line"/>
    </contour>
    <contour>
      <point x="336" y="472" type="line"/>
      <point x="363" y="491" type="line"/>
      <point x="314" y="560" type="line"/>
      <point x="240" y="646" type="line"/>
      <point x="229" y="638" type="line"/>
      <point x="287" y="540" type="line"/>
    </contour>
    <contour>
      <point x="426" y="685" type="line"/>
      <point x="416" y="717" type="line"/>
      <point x="335" y="692" type="line"/>
      <point x="231" y="648" type="line"/>
      <point x="235" y="635" type="line"/>
      <point x="346" y="660" type="line"/>
    </contour>
  </outline>
</glyph>
<glyph name="plus" format="1">
  <advance width="460"/>
  <unicode hex="002B"/>
  <outline>
    <contour>
      <point x="48" y="353" type="line"/>
      <point x="412" y="353" type="line"/>
      <point x="412" y="387" type="line"/>
      <point x="48" y="387" type="line"/>
    </contour>
    <contour>
      <point x="213" y="178" type="line"/>
      <point x="247" y="178" type="line"/>
      <point x="247" y="562" type="line"/>
      <point x="213" y="562" type="line"/>
    </contour>
  </outline>
</glyph>
<glyph name="hyphen" format="1">
  <advance width="302"/>
  <unicode hex="002D"/>
  <outline>
    <contour>
      <point x="60" y="263" type="line"/>
      <point x="242" y="263" type="line"/>
      <point x="242" y="297" type="line"/>
      <point x="60" y="297" type="line"/>
    </contour>
  </outline>
</glyph>
<glyph name="zero" format="1">
  <advance width="512"/>
  <unicode hex="0030"/>
  <note>
    600
  </note>
  <outline>
    <contour>
      <point x="256" y="-10" type="curve" smooth="yes"/>
      <point x="391" y="-10"/>
      <point x="461" y="120"/>
      <point x="461" y="369" type="curve" smooth="yes"/>
      <point x="461" y="619"/>
      <point x="391" y="750"/>
      <point x="256" y="750" type="curve" smooth="yes"/>
      <point x="121" y="750"/>
      <point x="51" y="619"/>
      <point x="51" y="369" type="curve" smooth="yes"/>
      <point x="51" y="119"/>
      <point x="121" y="-10"/>
    </contour>
    <contour>
      <point x="256" y="24" type="curve" smooth="yes"/>
      <point x="142" y="24"/>
      <point x="85" y="140"/>
      <point x="85" y="369" type="curve" smooth="yes"/>
      <point x="85" y="595"/>
      <point x="145" y="716"/>
      <point x="256" y="716" type="curve" smooth="yes"/>
      <point x="367" y="716"/>
      <point x="427" y="595"/>
      <point x="427" y="369" type="curve" smooth="yes"/>
      <point x="427" y="142"/>
      <point x="369" y="24"/>
    </contour>
  </outline>
</glyph>
<glyph name="six" format="1">
  <advance width="472"/>
  <unicode hex="0036"/>
  <outline>
    <contour>
      <point x="249" y="-12" type="curve" smooth="yes"/>
      <point x="359" y="-12"/>
      <point x="433" y="86"/>
      <point x="433" y="232" type="curve" smooth="yes"/>
      <point x="433" y="364"/>
      <point x="362" y="445"/>
      <point x="248" y="445" type="curve" smooth="yes"/>
      <point x="185" y="445"/>
      <point x="109" y="403"/>
      <point x="56" y="338" type="curve"/>
      <point x="77" y="321" type="line"/>
      <point x="126" y="376"/>
      <point x="193" y="411"/>
      <point x="248" y="411" type="curve" smooth="yes"/>
      <point x="342" y="411"/>
      <point x="399" y="344"/>
      <point x="399" y="232" type="curve" smooth="yes"/>
      <point x="399" y="106"/>
      <point x="339" y="22"/>
      <point x="249" y="22" type="curve" smooth="yes"/>
      <point x="138" y="22"/>
      <point x="84" y="120"/>
      <point x="84" y="324" type="curve" smooth="yes"/>
      <point x="84" y="569"/>
      <point x="165" y="718"/>
      <point x="299" y="718" type="curve" smooth="yes"/>
      <point x="331" y="718"/>
      <point x="358" y="713"/>
      <point x="394" y="700" type="curve"/>
      <point x="394" y="736" type="line"/>
      <point x="359" y="747"/>
      <point x="330" y="752"/>
      <point x="299" y="752" type="curve" smooth="yes"/>
      <point x="142" y="752"/>
      <point x="50" y="593"/>
      <point x="50" y="324" type="curve" smooth="yes"/>
      <point x="50" y="101"/>
      <point x="117" y="-12"/>
    </contour>
  </outline>
</glyph>
<glyph name="less" format="1">
  <advance width="471"/>
  <unicode hex="003C"/>
  <outline>
    <contour>
      <point x="44" y="362" type="line"/>
      <point x="79" y="362" type="line"/>
      <point x="410" y="508" type="line"/>
      <point x="410" y="546" type="line"/>
      <point x="44" y="382" type="line"/>
    </contour>
    <contour>
      <point x="407" y="188" type="line"/>
      <point x="407" y="226" type="line"/>
      <point x="79" y="372" type="line"/>
      <point x="44" y="372" type="line"/>
      <point x="44" y="352" type="line"/>
    </contour>
  </outline>
</glyph>
<glyph name="greater" format="1">
  <advance width="471"/>
  <unicode hex="003E"/>
  <outline>
    <contour>
      <point x="392" y="362" type="line"/>
      <point x="427" y="362" type="line"/>
      <point x="427" y="382" type="line"/>
      <point x="61" y="546" type="line"/>
      <point x="61" y="508" type="line"/>
    </contour>
    <contour>
      <point x="64" y="188" type="line"/>
      <point x="427" y="352" type="line"/>
      <point x="427" y="372" type="line"/>
      <point x="392" y="372" type="line"/>
      <point x="64" y="226" type="line"/>
    </contour>
  </outline>
</glyph>
<glyph name="at" format="1">
  <advance width="765"/>
  <unicode hex="0040"/>
  <outline>
    <contour>
      <point x="370" y="-136" type="curve" smooth="yes"/>
      <point x="434" y="-136"/>
      <point x="498" y="-121"/>
      <point x="554" y="-102" type="curve"/>
      <point x="542" y="-70" type="line"/>
      <point x="489" y="-88"/>
      <point x="429" y="-102"/>
      <point x="370" y="-102" type="curve" smooth="yes"/>
      <point x="227" y="-102"/>
      <point x="80" y="-14"/>
      <point x="80" y="262" type="curve" smooth="yes"/>
      <point x="80" y="511"/>
      <point x="210" y="643"/>
      <point x="394" y="643" type="curve" smooth="yes"/>
      <point x="601" y="643"/>
      <point x="678" y="510"/>
      <point x="678" y="307" type="curve" smooth="yes"/>
      <point x="678" y="174"/>
      <point x="641" y="87"/>
      <point x="565" y="87" type="curve" smooth="yes"/>
      <point x="513" y="87"/>
      <point x="499" y="122"/>
      <point x="499" y="166" type="curve" smooth="yes"/>
      <point x="499" y="193"/>
      <point x="504" y="224"/>
      <point x="509" y="252" type="curve" smooth="yes"/>
      <point x="543" y="465" type="line"/>
      <point x="495" y="485"/>
      <point x="453" y="495"/>
      <point x="417" y="495" type="curve" smooth="yes"/>
      <point x="283" y="495"/>
      <point x="199" y="381"/>
      <point x="199" y="231" type="curve" smooth="yes"/>
      <point x="199" y="148"/>
      <point x="226" y="59"/>
      <point x="319" y="59" type="curve" smooth="yes"/>
      <point x="356" y="59"/>
      <point x="423" y="82"/>
      <point x="463" y="146" type="curve"/>
      <point x="468" y="146" type="line"/>
      <point x="476" y="69"/>
      <point x="518" y="53"/>
      <point x="565" y="53" type="curve" smooth="yes"/>
      <point x="665" y="53"/>
      <point x="712" y="154"/>
      <point x="712" y="307" type="curve" smooth="yes"/>
      <point x="712" y="530"/>
      <point x="625" y="677"/>
      <point x="394" y="677" type="curve" smooth="yes"/>
      <point x="190" y="677"/>
      <point x="46" y="533"/>
      <point x="46" y="262" type="curve" smooth="yes"/>
      <point x="46" y="-40"/>
      <point x="209" y="-136"/>
    </contour>
    <contour>
      <point x="319" y="93" type="curve" smooth="yes"/>
      <point x="252" y="93"/>
      <point x="233" y="164"/>
      <point x="233" y="231" type="curve" smooth="yes"/>
      <point x="233" y="361"/>
      <point x="303" y="461"/>
      <point x="417" y="461" type="curve" smooth="yes"/>
      <point x="444" y="461"/>
      <point x="475" y="454"/>
      <point x="506" y="443" type="curve"/>
      <point x="476" y="258" type="line"/>
      <point x="455" y="126"/>
      <point x="364" y="93"/>
    </contour>
  </outline>
</glyph>
<glyph name="A" format="1">
  <advance width="519"/>
  <unicode hex="0041"/>
  <note>
    520
  </note>
  <outline>
    <contour>
      <point x="509" y="0" type="move" name="ogonek"/>
    </contour>
    <contour>
      <point x="259" y="760" type="move" name="topUC"/>
    </contour>
    <contour>
      <point x="10" y="0" type="line"/>
      <point x="43" y="0" type="line"/>
      <point x="121" y="249" type="line"/>
      <point x="398" y="249" type="line"/>
      <point x="476" y="0" type="line"/>
      <point x="509" y="0" type="line"/>
      <point x="509" y="6" type="line"/>
      <point x="280" y="740" type="line"/>
      <point x="239" y="740" type="line"/>
      <point x="10" y="6" type="line"/>
    </contour>
    <contour>
      <point x="131" y="283" type="line"/>
      <point x="226" y="586" type="line"/>
      <point x="258" y="698" type="line"/>
      <point x="260" y="698" type="line"/>
      <point x="293" y="586" type="line"/>
      <point x="387" y="283" type="line"/>
    </contour>
  </outline>
</glyph>
<glyph name="F" format="1">
  <advance width="453"/>
  <unicode hex="0046"/>
  <outline>
    <contour>
      <point x="81" y="0" type="line"/>
      <point x="115" y="0" type="line"/>
      <point x="115" y="706" type="line"/>
      <point x="419" y="706" type="line"/>
      <point x="419" y="740" type="line"/>
      <point x="81" y="740" type="line"/>
    </contour>
    <contour>
      <point x="111" y="359" type="line"/>
      <point x="403" y="359" type="line"/>
      <point x="403" y="393" type="line"/>
      <point x="111" y="393" type="line"/>
    </contour>
  </outline>
</glyph>
<glyph name="G" format="1">
  <advance width="541"/>
  <unicode hex="0047"/>
  <outline>
    <contour>
      <point x="329" y="760" type="move" name="topUC"/>
    </contour>
    <contour>
      <point x="329" y="0" type="move" name="bottom"/>
    </contour>
    <contour>
      <point x="354" y="-10" type="curve" smooth="yes"/>
      <point x="396" y="-10"/>
      <point x="429" y="-7"/>
      <point x="481" y="2" type="curve"/>
      <point x="481" y="36" type="line"/>
      <point x="433" y="29"/>
      <point x="376" y="24"/>
      <point x="351" y="24" type="curve" smooth="yes"/>
      <point x="166" y="24"/>
      <point x="85" y="129"/>
      <point x="85" y="369" type="curve" smooth="yes"/>
      <point x="85" y="620"/>
      <point x="159" y="714"/>
      <point x="356" y="714" type="curve" smooth="yes"/>
      <point x="393" y="714"/>
      <point x="440" y="709"/>
      <point x="484" y="700" type="curve"/>
      <point x="484" y="734" type="line"/>
      <point x="440" y="742"/>
      <point x="381" y="748"/>
      <point x="352" y="748" type="curve" smooth="yes"/>
      <point x="133" y="748"/>
      <point x="49" y="643"/>
      <point x="49" y="369" type="curve" smooth="yes"/>
      <point x="49" y="104"/>
      <point x="138" y="-7"/>
    </contour>
    <contour>
      <point x="447" y="2" type="line"/>
      <point x="481" y="2" type="line"/>
      <point x="481" y="376" type="line"/>
      <point x="447" y="376" type="line"/>
    </contour>
  </outline>
</glyph>
<glyph name="H" format="1">
  <advance width="601"/>
  <unicode hex="0048"/>
  <outline>
    <contour>
      <point x="288" y="760" type="move" name="topUC"/>
    </contour>
    <contour>
      <point x="308" y="0" type="move" name="bottom"/>
    </contour>
    <contour>
      <point x="81" y="0" type="line"/>
      <point x="115" y="0" type="line"/>
      <point x="115" y="360" type="line"/>
      <point x="486" y="360" type="line"/>
      <point x="486" y="0" type="line"/>
      <point x="520" y="0" type="line"/>
      <point x="520" y="740" type="line"/>
      <point x="486" y="740" type="line"/>
      <point x="486" y="394" type="line"/>
      <point x="115" y="394" type="line"/>
      <point x="115" y="740" type="line"/>
      <point x="81" y="740" type="line"/>
    </contour>
  </outline>
</glyph>
<glyph name="M" format="1">
  <advance width="758"/>
  <unicode hex="004D"/>
  <outline>
    <contour>
      <point x="81" y="0" type="line"/>
      <point x="115" y="0" type="line"/>
      <point x="115" y="656" type="line"/>
      <point x="119" y="657" type="line"/>
      <point x="154" y="560" type="line"/>
      <point x="357" y="31" type="line"/>
      <point x="401" y="31" type="line"/>
      <point x="604" y="560" type="line"/>
      <point x="639" y="657" type="line"/>
      <point x="643" y="656" type="line"/>
      <point x="643" y="0" type="line"/>
      <point x="677" y="0" type="line"/>
      <point x="677" y="740" type="line"/>
      <point x="637" y="740" type="line"/>
      <point x="413" y="158" type="line"/>
      <point x="381" y="70" type="line"/>
      <point x="377" y="70" type="line"/>
      <point x="345" y="158" type="line"/>
      <point x="121" y="740" type="line"/>
      <point x="81" y="740" type="line"/>
    </contour>
  </outline>
</glyph>
<glyph name="N" format="1">
  <advance width="640"/>
  <unicode hex="004E"/>
  <outline>
    <contour>
      <point x="327" y="760" type="move" name="topUC"/>
    </contour>
    <contour>
      <point x="342" y="0" type="move" name="bottom"/>
    </contour>
    <contour>
      <point x="81" y="0" type="line"/>
      <point x="115" y="0" type="line"/>
      <point x="115" y="679" type="line"/>
      <point x="119" y="680" type="line"/>
      <point x="169" y="590" type="line"/>
      <point x="518" y="0" type="line"/>
      <point x="559" y="0" type="line"/>
      <point x="559" y="740" type="line"/>
      <point x="525" y="740" type="line"/>
      <point x="525" y="60" type="line"/>
      <point x="521" y="59" type="line"/>
      <point x="474" y="144" type="line"/>
      <point x="121" y="740" type="line"/>
      <point x="81" y="740" type="line"/>
    </contour>
  </outline>
</glyph>
<glyph name="Q" format="1">
  <advance width="584"/>
  <unicode hex="0051"/>
  <outline>
    <contour>
      <point x="536" y="-93" type="curve"/>
      <point x="534" y="-58" type="line"/>
      <point x="430" y="-46"/>
      <point x="338" y="-32"/>
      <point x="291" y="-14" type="curve"/>
      <point x="291" y="-10" type="line"/>
      <point x="453" y="-10"/>
      <point x="535" y="117"/>
      <point x="535" y="369" type="curve" smooth="yes"/>
      <point x="535" y="624"/>
      <point x="454" y="750"/>
      <point x="291" y="750" type="curve" smooth="yes"/>
      <point x="127" y="750"/>
      <point x="47" y="625"/>
      <point x="47" y="369" type="curve" smooth="yes"/>
      <point x="47" y="28"/>
      <point x="186" y="-43"/>
    </contour>
    <contour>
      <point x="291" y="24" type="curve" smooth="yes"/>
      <point x="145" y="24"/>
      <point x="81" y="129"/>
      <point x="81" y="369" type="curve" smooth="yes"/>
      <point x="81" y="609"/>
      <point x="146" y="716"/>
      <point x="291" y="716" type="curve" smooth="yes"/>
      <point x="433" y="716"/>
      <point x="501" y="604"/>
      <point x="501" y="369" type="curve" smooth="yes"/>
      <point x="501" y="131"/>
      <point x="436" y="24"/>
    </contour>
  </outline>
</glyph>
<glyph name="R" format="1">
  <advance width="512"/>
  <unicode hex="0052"/>
  <outline>
    <contour>
      <point x="262" y="760" type="move" name="topUC"/>
    </contour>
    <contour>
      <point x="267" y="0" type="move" name="bottom"/>
    </contour>
    <contour>
      <point x="81" y="0" type="line"/>
      <point x="115" y="0" type="line"/>
      <point x="115" y="287" type="line"/>
      <point x="146" y="284"/>
      <point x="175" y="282"/>
      <point x="205" y="282" type="curve" smooth="yes"/>
      <point x="385" y="282"/>
      <point x="464" y="354"/>
      <point x="464" y="518" type="curve" smooth="yes"/>
      <point x="464" y="679"/>
      <point x="388" y="752"/>
      <point x="221" y="752" type="curve" smooth="yes"/>
      <point x="179" y="752"/>
      <point x="133" y="746"/>
      <point x="81" y="735" type="curve"/>
    </contour>
    <contour>
      <point x="216" y="316" type="curve" smooth="yes"/>
      <point x="187" y="316"/>
      <point x="154" y="318"/>
      <point x="115" y="323" type="curve"/>
      <point x="115" y="707" type="line"/>
      <point x="162" y="714"/>
      <point x="198" y="718"/>
      <point x="227" y="718" type="curve" smooth="yes"/>
      <point x="366" y="718"/>
      <point x="430" y="655"/>
      <point x="430" y="518" type="curve" smooth="yes"/>
      <point x="430" y="379"/>
      <point x="363" y="316"/>
    </contour>
    <contour>
      <point x="432" y="0" type="line"/>
      <point x="469" y="0" type="line"/>
      <point x="322" y="307" type="line"/>
      <point x="291" y="294" type="line"/>
    </contour>
  </outline>
</glyph>
<glyph name="S" format="1">
  <advance width="453"/>
  <unicode hex="0053"/>
  <outline>
    <contour>
      <point x="240" y="760" type="move" name="topUC"/>
    </contour>
    <contour>
      <point x="226" y="0" type="move" name="bottom"/>
    </contour>
    <contour>
      <point x="219" y="-14" type="curve" smooth="yes"/>
      <point x="342" y="-14"/>
      <point x="417" y="58"/>
      <point x="417" y="177" type="curve" smooth="yes"/>
      <point x="417" y="280"/>
      <point x="370" y="335"/>
      <point x="233" y="392" type="curve" smooth="yes"/>
      <point x="120" y="438"/>
      <point x="82" y="479"/>
      <point x="82" y="553" type="curve" smooth="yes"/>
      <point x="82" y="653"/>
      <point x="149" y="719"/>
      <point x="249" y="719" type="curve" smooth="yes"/>
      <point x="284" y="719"/>
      <point x="326" y="714"/>
      <point x="387" y="701" type="curve"/>
      <point x="395" y="735" type="line"/>
      <point x="339" y="747"/>
      <point x="294" y="753"/>
      <point x="249" y="753" type="curve" smooth="yes"/>
      <point x="129" y="753"/>
      <point x="48" y="673"/>
      <point x="48" y="553" type="curve" smooth="yes"/>
      <point x="48" y="464"/>
      <point x="93" y="414"/>
      <point x="219" y="360" type="curve" smooth="yes"/>
      <point x="336" y="310"/>
      <point x="383" y="258"/>
      <point x="383" y="177" type="curve" smooth="yes"/>
      <point x="383" y="77"/>
      <point x="323" y="20"/>
      <point x="219" y="20" type="curve" smooth="yes"/>
      <point x="163" y="20"/>
      <point x="79" y="35"/>
      <point x="43" y="51" type="curve"/>
      <point x="35" y="19" type="line"/>
      <point x="77" y="1"/>
      <point x="163" y="-14"/>
    </contour>
  </outline>
</glyph>
<glyph name="V" format="1">
  <advance width="536"/>
  <unicode hex="0056"/>
  <outline>
    <contour>
      <point x="247" y="0" type="line"/>
      <point x="289" y="0" type="line"/>
      <point x="528" y="740" type="line"/>
      <point x="493" y="740" type="line"/>
      <point x="307" y="165" type="line"/>
      <point x="270" y="44" type="line"/>
      <point x="266" y="44" type="line"/>
      <point x="229" y="165" type="line"/>
      <point x="43" y="740" type="line"/>
      <point x="8" y="740" type="line"/>
    </contour>
  </outline>
</glyph>
<glyph name="W" format="1">
  <advance width="841"/>
  <unicode hex="0057"/>
  <outline>
    <contour>
      <point x="424" y="760" type="move" name="topUC"/>
    </contour>
    <contour>
      <point x="197" y="0" type="line"/>
      <point x="244" y="0" type="line"/>
      <point x="396" y="581" type="line"/>
      <point x="422" y="688" type="line"/>
      <point x="426" y="688" type="line"/>
      <point x="449" y="581" type="line"/>
      <point x="589" y="0" type="line"/>
      <point x="636" y="0" type="line"/>
      <point x="830" y="740" type="line"/>
      <point x="796" y="740" type="line"/>
      <point x="651" y="186" type="line"/>
      <point x="616" y="43" type="line"/>
      <point x="612" y="43" type="line"/>
      <point x="580" y="186" type="line"/>
      <point x="447" y="740" type="line"/>
      <point x="404" y="740" type="line"/>
      <point x="259" y="186" type="line"/>
      <point x="224" y="43" type="line"/>
      <point x="220" y="43" type="line"/>
      <point x="188" y="186" type="line"/>
      <point x="55" y="740" type="line"/>
      <point x="19" y="740" type="line"/>
    </contour>
  </outline>
</glyph>
<glyph name="X" format="1">
  <advance width="528"/>
  <unicode hex="0058"/>
  <outline>
    <contour>
      <point x="15" y="0" type="line"/>
      <point x="56" y="0" type="line"/>
      <point x="251" y="320" type="line"/>
      <point x="262" y="343" type="line"/>
      <point x="264" y="343" type="line"/>
      <point x="275" y="320" type="line"/>
      <point x="472" y="0" type="line"/>
      <point x="513" y="0" type="line"/>
      <point x="286" y="368" type="line"/>
      <point x="512" y="740" type="line"/>
      <point x="472" y="740" type="line"/>
      <point x="277" y="420" type="line"/>
      <point x="266" y="397" type="line"/>
      <point x="264" y="397" type="line"/>
      <point x="253" y="420" type="line"/>
      <point x="56" y="740" type="line"/>
      <point x="16" y="740" type="line"/>
      <point x="242" y="372" type="line"/>
    </contour>
  </outline>
</glyph>
<glyph name="Y" format="1">
  <advance width="493"/>
  <unicode hex="0059"/>
  <outline>
    <contour>
      <point x="250" y="760" type="move" name="topUC"/>
    </contour>
    <contour>
      <point x="230" y="0" type="line"/>
      <point x="264" y="0" type="line"/>
      <point x="264" y="250" type="line"/>
      <point x="488" y="740" type="line"/>
      <point x="452" y="740" type="line"/>
      <point x="274" y="352" type="line"/>
      <point x="247" y="283" type="line"/>
      <point x="245" y="283" type="line"/>
      <point x="218" y="352" type="line"/>
      <point x="40" y="740" type="line"/>
      <point x="4" y="740" type="line"/>
      <point x="230" y="246" type="line"/>
    </contour>
  </outline>
</glyph>
<glyph name="Z" format="1">
  <advance width="446"/>
  <unicode hex="005A"/>
  <outline>
    <contour>
      <point x="230" y="760" type="move" name="topUC"/>
    </contour>
    <contour>
      <point x="223" y="0" type="move" name="bottom"/>
    </contour>
    <contour>
      <point x="30" y="0" type="line"/>
      <point x="416" y="0" type="line"/>
      <point x="416" y="33" type="line"/>
      <point x="75" y="33" type="line"/>
      <point x="75" y="37" type="line"/>
      <point x="412" y="719" type="line"/>
      <point x="412" y="740" type="line"/>
      <point x="34" y="740" type="line"/>
      <point x="34" y="706" type="line"/>
      <point x="366" y="706" type="line"/>
      <point x="366" y="702" type="line"/>
      <point x="30" y="22" type="line"/>
    </contour>
  </outline>
</glyph>
<glyph name="bracketleft" format="1">
  <advance width="269"/>
  <unicode hex="005B"/>
  <outline>
    <contour>
      <point x="77" y="-160" type="line"/>
      <point x="240" y="-160" type="line"/>
      <point x="240" y="-126" type="line"/>
      <point x="111" y="-126" type="line"/>
      <point x="111" y="834" type="line"/>
      <point x="240" y="834" type="line"/>
      <point x="240" y="868" type="line"/>
      <point x="77" y="868" type="line"/>
    </contour>
  </outline>
</glyph>
<glyph name="backslash" format="1">
  <advance width="253"/>
  <unicode hex="005C"/>
  <outline>
    <contour>
      <point x="193" y="-120" type="line"/>
      <point x="220" y="-120" type="line"/>
      <point x="60" y="740" type="line"/>
      <point x="33" y="740" type="line"/>
    </contour>
  </outline>
</glyph>
<glyph name="underscore" format="1">
  <advance width="470"/>
  <unicode hex="005F"/>
  <outline>
    <contour>
      <point x="44" y="-93" type="line"/>
      <point x="426" y="-93" type="line"/>
      <point x="426" y="-60" type="line"/>
      <point x="44" y="-60" type="line"/>
    </contour>
  </outline>
</glyph>
<glyph name="a" format="1">
  <advance width="416"/>
  <unicode hex="0061"/>
  <outline>
    <contour>
      <point x="213" y="600" type="move" name="top"/>
    </contour>
    <contour>
      <point x="351" y="0" type="move" name="ogonek"/>
    </contour>
    <contour>
      <point x="153" y="-5" type="curve" smooth="yes"/>
      <point x="213" y="-5"/>
      <point x="266" y="33"/>
      <point x="312" y="65" type="curve"/>
      <point x="316" y="65" type="line"/>
      <point x="322" y="0" type="line"/>
      <point x="351" y="0" type="line"/>
      <point x="351" y="380" type="line" smooth="yes"/>
      <point x="351" y="493"/>
      <point x="302" y="548"/>
      <point x="203" y="548" type="curve" smooth="yes"/>
      <point x="168" y="548"/>
      <point x="116" y="541"/>
      <point x="70" y="531" type="curve"/>
      <point x="76" y="497" type="line"/>
      <point x="117" y="508"/>
      <point x="163" y="515"/>
      <point x="196" y="515" type="curve" smooth="yes"/>
      <point x="279" y="515"/>
      <point x="317" y="473"/>
      <point x="317" y="380" type="curve" smooth="yes"/>
      <point x="317" y="103" type="line"/>
      <point x="282" y="81"/>
      <point x="216" y="30"/>
      <point x="161" y="30" type="curve" smooth="yes"/>
      <point x="102" y="30"/>
      <point x="70" y="65"/>
      <point x="70" y="130" type="curve" smooth="yes"/>
      <point x="70" y="209"/>
      <point x="114" y="245"/>
      <point x="225" y="256" type="curve" smooth="yes"/>
      <point x="345" y="266" type="line"/>
      <point x="340" y="298" type="line"/>
      <point x="219" y="288" type="line" smooth="yes"/>
      <point x="94" y="278"/>
      <point x="34" y="226"/>
      <point x="34" y="127" type="curve" smooth="yes"/>
      <point x="34" y="44"/>
      <point x="78" y="-5"/>
    </contour>
  </outline>
</glyph>
<glyph name="b" format="1">
  <advance width="458"/>
  <unicode hex="0062"/>
  <outline>
    <contour>
      <point x="192" y="-10" type="curve" smooth="yes"/>
      <point x="362" y="-6"/>
      <point x="414" y="133"/>
      <point x="414" y="279" type="curve" smooth="yes"/>
      <point x="414" y="456"/>
      <point x="355" y="549"/>
      <point x="241" y="549" type="curve" smooth="yes"/>
      <point x="186" y="549"/>
      <point x="134" y="525"/>
      <point x="102" y="486" type="curve"/>
      <point x="102" y="808" type="line"/>
      <point x="68" y="808" type="line"/>
      <point x="68" y="10" type="line"/>
      <point x="112" y="-3"/>
      <point x="154" y="-10"/>
    </contour>
    <contour>
      <point x="196" y="24" type="curve" smooth="yes"/>
      <point x="172" y="24"/>
      <point x="141" y="28"/>
      <point x="102" y="35" type="curve"/>
      <point x="102" y="430" type="line" smooth="yes"/>
      <point x="102" y="470"/>
      <point x="175" y="515"/>
      <point x="239" y="515" type="curve" smooth="yes"/>
      <point x="330" y="515"/>
      <point x="378" y="433"/>
      <point x="378" y="279" type="curve" smooth="yes"/>
      <point x="378" y="113"/>
      <point x="314" y="24"/>
    </contour>
  </outline>
</glyph>
<glyph name="c" format="1">
  <advance width="364"/>
  <unicode hex="0063"/>
  <outline>
    <contour>
      <point x="204" y="600" type="move" name="top"/>
    </contour>
    <contour>
      <point x="214" y="0" type="move" name="bottom"/>
    </contour>
    <contour>
      <point x="242" y="-10" type="curve" smooth="yes"/>
      <point x="266" y="-10"/>
      <point x="300" y="-5"/>
      <point x="327" y="2" type="curve"/>
      <point x="327" y="36" type="line"/>
      <point x="289" y="28"/>
      <point x="262" y="24"/>
      <point x="242" y="24" type="curve" smooth="yes"/>
      <point x="133" y="24"/>
      <point x="81" y="103"/>
      <point x="81" y="269" type="curve" smooth="yes"/>
      <point x="81" y="438"/>
      <point x="132" y="516"/>
      <point x="242" y="516" type="curve" smooth="yes"/>
      <point x="269" y="516"/>
      <point x="294" y="513"/>
      <point x="327" y="505" type="curve"/>
      <point x="327" y="539" type="line"/>
      <point x="285" y="547"/>
      <point x="262" y="550"/>
      <point x="242" y="550" type="curve" smooth="yes"/>
      <point x="112" y="550"/>
      <point x="45" y="454"/>
      <point x="45" y="270" type="curve" smooth="yes"/>
      <point x="45" y="81"/>
      <point x="109" y="-10"/>
    </contour>
  </outline>
</glyph>
<glyph name="d" format="1">
  <advance width="459"/>
  <unicode hex="0064"/>
  <outline>
    <contour>
      <point x="503" y="808" type="move" name="caronalt"/>
    </contour>
    <contour>
      <point x="223" y="0" type="move" name="bottom"/>
    </contour>
    <contour>
      <point x="220" y="-9" type="curve" smooth="yes"/>
      <point x="276" y="-9"/>
      <point x="322" y="13"/>
      <point x="353" y="54" type="curve"/>
      <point x="356" y="54" type="line"/>
      <point x="361" y="0" type="line"/>
      <point x="390" y="0" type="line"/>
      <point x="390" y="808" type="line"/>
      <point x="356" y="808" type="line"/>
      <point x="356" y="539" type="line"/>
      <point x="313" y="546"/>
      <point x="287" y="549"/>
      <point x="257" y="549" type="curve" smooth="yes"/>
      <point x="123" y="549"/>
      <point x="44" y="445"/>
      <point x="44" y="271" type="curve" smooth="yes"/>
      <point x="44" y="82"/>
      <point x="101" y="-9"/>
    </contour>
    <contour>
      <point x="218" y="25" type="curve" smooth="yes"/>
      <point x="131" y="25"/>
      <point x="80" y="115"/>
      <point x="80" y="270" type="curve" smooth="yes"/>
      <point x="80" y="426"/>
      <point x="144" y="515"/>
      <point x="257" y="515" type="curve" smooth="yes"/>
      <point x="286" y="515"/>
      <point x="310" y="512"/>
      <point x="356" y="504" type="curve"/>
      <point x="356" y="110" type="line" smooth="yes"/>
      <point x="356" y="70"/>
      <point x="282" y="25"/>
    </contour>
  </outline>
</glyph>
<glyph name="i" format="1">
  <advance width="174"/>
  <unicode hex="0069"/>
  <outline>
    <contour>
      <point x="104" y="0" type="move" name="ogonek"/>
    </contour>
    <contour>
      <point x="87" y="0" type="move" name="bottom"/>
    </contour>
    <contour>
      <point x="87" y="684" type="curve" smooth="yes"/>
      <point x="105" y="684"/>
      <point x="117" y="695"/>
      <point x="117" y="713" type="curve" smooth="yes"/>
      <point x="117" y="731"/>
      <point x="105" y="743"/>
      <point x="87" y="743" type="curve" smooth="yes"/>
      <point x="69" y="743"/>
      <point x="58" y="732"/>
      <point x="58" y="713" type="curve" smooth="yes"/>
      <point x="58" y="695"/>
      <point x="69" y="684"/>
    </contour>
    <contour>
      <point x="70" y="0" type="line"/>
      <point x="104" y="0" type="line"/>
      <point x="104" y="540" type="line"/>
      <point x="70" y="540" type="line"/>
    </contour>
  </outline>
</glyph>
<glyph name="k" format="1">
  <advance width="410"/>
  <unicode hex="006B"/>
  <outline>
    <contour>
      <point x="228" y="0" type="move" name="bottom"/>
    </contour>
    <contour>
      <point x="69" y="0" type="line"/>
      <point x="103" y="0" type="line"/>
      <point x="103" y="261" type="line"/>
      <point x="182" y="261" type="line"/>
      <point x="367" y="0" type="line"/>
      <point x="406" y="0" type="line"/>
      <point x="220" y="264" type="line"/>
      <point x="207" y="275" type="line"/>
      <point x="207" y="277" type="line"/>
      <point x="219" y="287" type="line"/>
      <point x="390" y="540" type="line"/>
      <point x="351" y="540" type="line"/>
      <point x="184" y="293" type="line"/>
      <point x="103" y="293" type="line"/>
      <point x="103" y="808" type="line"/>
      <point x="69" y="808" type="line"/>
    </contour>
  </outline>
</glyph>
<glyph name="l" format="1">
  <advance width="178"/>
  <unicode hex="006C"/>
  <outline>
    <contour>
      <point x="91" y="812" type="move" name="top"/>
    </contour>
    <contour>
      <point x="201" y="370" type="move" name="periodcentered"/>
    </contour>
    <contour>
      <point x="201" y="808" type="move" name="caronalt"/>
    </contour>
    <contour>
      <point x="91" y="0" type="move" name="bottom"/>
    </contour>
    <contour>
      <point x="72" y="0" type="line"/>
      <point x="106" y="0" type="line"/>
      <point x="106" y="808" type="line"/>
      <point x="72" y="808" type="line"/>
    </contour>
  </outline>
</glyph>
<glyph name="o" format="1">
  <advance width="468"/>
  <unicode hex="006F"/>
  <outline>
    <contour>
      <point x="220" y="600" type="move" name="top"/>
    </contour>
    <contour>
      <point x="234" y="-8" type="move" name="ogonek"/>
    </contour>
    <contour>
      <point x="234" y="0" type="move" name="bottom"/>
    </contour>
    <contour>
      <point x="234" y="-8" type="curve" smooth="yes"/>
      <point x="358" y="-8"/>
      <point x="424" y="88"/>
      <point x="424" y="270" type="curve" smooth="yes"/>
      <point x="424" y="452"/>
      <point x="358" y="550"/>
      <point x="234" y="550" type="curve" smooth="yes"/>
      <point x="111" y="550"/>
      <point x="44" y="452"/>
      <point x="44" y="270" type="curve" smooth="yes"/>
      <point x="44" y="89"/>
      <point x="110" y="-8"/>
    </contour>
    <contour>
      <point x="234" y="26" type="curve" smooth="yes"/>
      <point x="132" y="26"/>
      <point x="80" y="108"/>
      <point x="80" y="270" type="curve" smooth="yes"/>
      <point x="80" y="433"/>
      <point x="132" y="516"/>
      <point x="234" y="516" type="curve" smooth="yes"/>
      <point x="336" y="516"/>
      <point x="388" y="433"/>
      <point x="388" y="270" type="curve" smooth="yes"/>
      <point x="388" y="107"/>
      <point x="337" y="26"/>
    </contour>
  </outline>
</glyph>
<glyph name="q" format="1">
  <advance width="458"/>
  <unicode hex="0071"/>
  <outline>
    <contour>
      <point x="357" y="-220" type="line"/>
      <point x="390" y="-220" type="line"/>
      <point x="390" y="529" type="line"/>
      <point x="346" y="544"/>
      <point x="310" y="549"/>
      <point x="257" y="549" type="curve" smooth="yes"/>
      <point x="123" y="549"/>
      <point x="44" y="445"/>
      <point x="44" y="271" type="curve" smooth="yes"/>
      <point x="44" y="82"/>
      <point x="101" y="-9"/>
      <point x="220" y="-9" type="curve" smooth="yes"/>
      <point x="276" y="-9"/>
      <point x="322" y="13"/>
      <point x="357" y="54" type="curve"/>
    </contour>
    <contour>
      <point x="218" y="25" type="curve" smooth="yes"/>
      <point x="131" y="25"/>
      <point x="80" y="115"/>
      <point x="80" y="270" type="curve" smooth="yes"/>
      <point x="80" y="426"/>
      <point x="144" y="515"/>
      <point x="257" y="515" type="curve" smooth="yes"/>
      <point x="283" y="515"/>
      <point x="304" y="513"/>
      <point x="356" y="504" type="curve"/>
      <point x="356" y="110" type="line" smooth="yes"/>
      <point x="356" y="70"/>
      <point x="282" y="25"/>
    </contour>
  </outline>
</glyph>
<glyph name="r" format="1">
  <advance width="285"/>
  <unicode hex="0072"/>
  <outline>
    <contour>
      <point x="159" y="600" type="move" name="top"/>
    </contour>
    <contour>
      <point x="86" y="0" type="move" name="bottom"/>
    </contour>
    <contour>
      <point x="69" y="0" type="line"/>
      <point x="103" y="0" type="line"/>
      <point x="103" y="449" type="line"/>
      <point x="140" y="476"/>
      <point x="191" y="495"/>
      <point x="260" y="507" type="curve"/>
      <point x="273" y="507" type="line"/>
      <point x="273" y="549" type="line"/>
      <point x="262" y="549" type="line"/>
      <point x="196" y="532"/>
      <point x="139" y="507"/>
      <point x="107" y="482" type="curve"/>
      <point x="103" y="482" type="line"/>
      <point x="99" y="540" type="line"/>
      <point x="69" y="540" type="line"/>
    </contour>
  </outline>
</glyph>
<glyph name="t" format="1">
  <advance width="312"/>
  <unicode hex="0074"/>
  <outline>
    <contour>
      <point x="300" y="674" type="move" name="caronalt"/>
    </contour>
    <contour>
      <point x="197" y="0" type="move" name="bottom"/>
    </contour>
    <contour>
      <point x="239" y="-4" type="curve" smooth="yes"/>
      <point x="254" y="-4"/>
      <point x="273" y="-2"/>
      <point x="298" y="3" type="curve"/>
      <point x="298" y="37" type="line"/>
      <point x="283" y="33"/>
      <point x="258" y="30"/>
      <point x="243" y="30" type="curve" smooth="yes"/>
      <point x="184" y="30"/>
      <point x="151" y="67"/>
      <point x="151" y="135" type="curve" smooth="yes"/>
      <point x="151" y="506" type="line"/>
      <point x="303" y="506" type="line"/>
      <point x="303" y="540" type="line"/>
      <point x="151" y="540" type="line"/>
      <point x="151" y="673" type="line"/>
      <point x="123" y="665" type="line"/>
      <point x="118" y="540" type="line"/>
      <point x="13" y="540" type="line"/>
      <point x="13" y="506" type="line"/>
      <point x="117" y="506" type="line"/>
      <point x="117" y="135" type="line" smooth="yes"/>
      <point x="117" y="42"/>
      <point x="157" y="-4"/>
    </contour>
  </outline>
</glyph>
<glyph name="u" format="1">
  <advance width="453"/>
  <unicode hex="0075"/>
  <outline>
    <contour>
      <point x="222" y="600" type="move" name="top"/>
    </contour>
    <contour>
      <point x="384" y="0" type="move" name="ogonek"/>
    </contour>
    <contour>
      <point x="222" y="0" type="move" name="bottom"/>
    </contour>
    <contour>
      <point x="186" y="-10" type="curve" smooth="yes"/>
      <point x="231" y="-10"/>
      <point x="282" y="11"/>
      <point x="346" y="58" type="curve"/>
      <point x="350" y="58" type="line"/>
      <point x="354" y="0" type="line"/>
      <point x="384" y="0" type="line"/>
      <point x="384" y="540" type="line"/>
      <point x="350" y="540" type="line"/>
      <point x="350" y="94" type="line"/>
      <point x="286" y="47"/>
      <point x="235" y="24"/>
      <point x="186" y="24" type="curve" smooth="yes"/>
      <point x="127" y="24"/>
      <point x="99" y="59"/>
      <point x="99" y="131" type="curve" smooth="yes"/>
      <point x="99" y="540" type="line"/>
      <point x="65" y="540" type="line"/>
      <point x="65" y="131" type="line" smooth="yes"/>
      <point x="65" y="29"/>
      <point x="99" y="-10"/>
    </contour>
  </outline>
</glyph>
<glyph name="braceleft" format="1">
  <advance width="334"/>
  <unicode hex="007B"/>
  <outline>
    <contour>
      <point x="20" y="347" type="line"/>
      <point x="71" y="347"/>
      <point x="102" y="304"/>
      <point x="102" y="234" type="curve" smooth="yes"/>
      <point x="102" y="-46" type="line" smooth="yes"/>
      <point x="102" y="-126"/>
      <point x="124" y="-148"/>
      <point x="205" y="-148" type="curve" smooth="yes"/>
      <point x="232" y="-148"/>
      <point x="294" y="-145"/>
      <point x="303" y="-143" type="curve"/>
      <point x="303" y="-114" type="line"/>
      <point x="196" y="-114" type="line" smooth="yes"/>
      <point x="150" y="-114"/>
      <point x="136" y="-101"/>
      <point x="136" y="-56" type="curve" smooth="yes"/>
      <point x="136" y="239" type="line" smooth="yes"/>
      <point x="136" y="296"/>
      <point x="115" y="343"/>
      <point x="83" y="360" type="curve"/>
      <point x="115" y="377"/>
      <point x="136" y="423"/>
      <point x="136" y="481" type="curve" smooth="yes"/>
      <point x="136" y="776" type="line" smooth="yes"/>
      <point x="136" y="821"/>
      <point x="150" y="834"/>
      <point x="196" y="834" type="curve" smooth="yes"/>
      <point x="303" y="834" type="line"/>
      <point x="303" y="863" type="line"/>
      <point x="294" y="865"/>
      <point x="232" y="868"/>
      <point x="205" y="868" type="curve" smooth="yes"/>
      <point x="124" y="868"/>
      <point x="102" y="846"/>
      <point x="102" y="766" type="curve" smooth="yes"/>
      <point x="102" y="486" type="line" smooth="yes"/>
      <point x="102" y="416"/>
      <point x="71" y="373"/>
      <point x="20" y="373" type="curve"/>
    </contour>
  </outline>
</glyph>
<glyph name="sterling" format="1">
  <advance width="482"/>
  <unicode hex="00A3"/>
  <outline>
    <contour>
      <point x="43" y="0" type="line"/>
      <point x="427" y="0" type="line"/>
      <point x="427" y="34" type="line"/>
      <point x="184" y="34" type="line"/>
      <point x="184" y="528" type="line" smooth="yes"/>
      <point x="184" y="658"/>
      <point x="219" y="710"/>
      <point x="309" y="710" type="curve" smooth="yes"/>
      <point x="342" y="710"/>
      <point x="383" y="701"/>
      <point x="431" y="683" type="curve"/>
      <point x="441" y="715" type="line"/>
      <point x="388" y="735"/>
      <point x="345" y="744"/>
      <point x="308" y="744" type="curve" smooth="yes"/>
      <point x="194" y="744"/>
      <point x="150" y="675"/>
      <point x="150" y="528" type="curve" smooth="yes"/>
      <point x="150" y="34" type="line"/>
      <point x="43" y="34" type="line"/>
    </contour>
    <contour>
      <point x="43" y="349" type="line"/>
      <point x="353" y="349" type="line"/>
      <point x="353" y="383" type="line"/>
      <point x="43" y="383" type="line"/>
    </contour>
  </outline>
</glyph>
<glyph name="currency" format="1">
  <advance width="515"/>
  <unicode hex="00A4"/>
  <outline>
    <contour>
      <point x="145" y="370" type="curve" smooth="yes"/>
      <point x="145" y="260"/>
      <point x="190" y="187"/>
      <point x="257" y="187" type="curve" smooth="yes"/>
      <point x="323" y="187"/>
      <point x="368" y="260"/>
      <point x="368" y="370" type="curve" smooth="yes"/>
      <point x="368" y="479"/>
      <point x="326" y="552"/>
      <point x="260" y="552" type="curve" smooth="yes"/>
      <point x="192" y="552"/>
      <point x="145" y="479"/>
    </contour>
    <contour>
      <point x="180" y="370" type="curve" smooth="yes"/>
      <point x="180" y="462"/>
      <point x="210" y="511"/>
      <point x="257" y="511" type="curve" smooth="yes"/>
      <point x="302" y="511"/>
      <point x="333" y="464"/>
      <point x="333" y="370" type="curve" smooth="yes"/>
      <point x="333" y="280"/>
      <point x="304" y="228"/>
      <point x="257" y="228" type="curve" smooth="yes"/>
      <point x="210" y="228"/>
      <point x="180" y="281"/>
    </contour>
    <contour>
      <point x="51" y="546" type="line"/>
      <point x="103" y="489" type="line"/>
      <point x="157" y="456" type="line"/>
      <point x="172" y="470" type="line"/>
      <point x="138" y="524" type="line"/>
      <point x="81" y="576" type="line"/>
    </contour>
    <contour>
      <point x="81" y="164" type="line"/>
      <point x="138" y="216" type="line"/>
      <point x="173" y="273" type="line"/>
      <point x="161" y="287" type="line"/>
      <point x="103" y="251" type="line"/>
      <point x="51" y="194" type="line"/>
    </contour>
    <contour>
      <point x="463" y="194" type="line"/>
      <point x="411" y="251" type="line"/>
      <point x="354" y="286" type="line"/>
      <point x="341" y="273" type="line"/>
      <point x="376" y="216" type="line"/>
      <point x="433" y="164" type="line"/>
    </contour>
    <contour>
      <point x="433" y="576" type="line"/>
      <point x="376" y="524" type="line"/>
      <point x="338" y="463" type="line"/>
      <point x="354" y="454" type="line"/>
      <point x="411" y="489" type="line"/>
      <point x="463" y="546" type="line"/>
    </contour>
  </outline>
</glyph>
<glyph name="yen" format="1">
  <advance width="528"/>
  <unicode hex="00A5"/>
  <outline>
    <contour>
      <point x="101" y="118" type="line"/>
      <point x="431" y="118" type="line"/>
      <point x="431" y="150" type="line"/>
      <point x="101" y="150" type="line"/>
    </contour>
    <contour>
      <point x="101" y="247" type="line"/>
      <point x="431" y="247" type="line"/>
      <point x="431" y="279" type="line"/>
      <point x="101" y="279" type="line"/>
    </contour>
    <component base="Y" xOffset="18"/>
  </outline>
</glyph>
<glyph name="dieresis" format="1">
  <advance width="355"/>
  <unicode hex="00A8"/>
  <outline>
    <contour>
      <point x="167" y="600" type="move" name="_top"/>
    </contour>
    <contour>
      <point x="87" y="636" type="curve" smooth="yes"/>
      <point x="102" y="636"/>
      <point x="114" y="645"/>
      <point x="114" y="663" type="curve" smooth="yes"/>
      <point x="114" y="681"/>
      <point x="102" y="690"/>
      <point x="87" y="690" type="curve" smooth="yes"/>
      <point x="71" y="690"/>
      <point x="59" y="681"/>
      <point x="59" y="663" type="curve" smooth="yes"/>
      <point x="59" y="645"/>
      <point x="71" y="636"/>
    </contour>
    <contour>
      <point x="249" y="636" type="curve" smooth="yes"/>
      <point x="263" y="636"/>
      <point x="276" y="645"/>
      <point x="276" y="663" type="curve" smooth="yes"/>
      <point x="276" y="681"/>
      <point x="263" y="690"/>
      <point x="249" y="690" type="curve" smooth="yes"/>
      <point x="233" y="690"/>
      <point x="221" y="681"/>
      <point x="221" y="663" type="curve" smooth="yes"/>
      <point x="221" y="645"/>
      <point x="233" y="636"/>
    </contour>
  </outline>
</glyph>
<glyph name="logicalnot" format="1">
  <advance width="688"/>
  <unicode hex="00AC"/>
  <outline>
    <contour>
      <point x="59" y="385" type="line"/>
      <point x="589" y="385" type="line"/>
      <point x="589" y="123" type="line"/>
      <point x="623" y="123" type="line"/>
      <point x="623" y="419" type="line"/>
      <point x="59" y="419" type="line"/>
    </contour>
  </outline>
</glyph>
<glyph name="macron" format="1">
  <advance width="331"/>
  <unicode hex="00AF"/>
  <outline>
    <contour>
      <point x="165" y="600" type="move" name="_top"/>
    </contour>
    <contour>
      <point x="51" y="653" type="line"/>
      <point x="280" y="653" type="line"/>
      <point x="280" y="687" type="line"/>
      <point x="51" y="687" type="line"/>
    </contour>
  </outline>
</glyph>
<glyph name="degree" format="1">
  <advance width="371"/>
  <unicode hex="00B0"/>
  <outline>
    <contour>
      <point x="186" y="371" type="curve" smooth="yes"/>
      <point x="270" y="371"/>
      <point x="326" y="450"/>
      <point x="326" y="560" type="curve" smooth="yes"/>
      <point x="326" y="670"/>
      <point x="270" y="750"/>
      <point x="186" y="750" type="curve" smooth="yes"/>
      <point x="102" y="750"/>
      <point x="45" y="670"/>
      <point x="45" y="560" type="curve" smooth="yes"/>
      <point x="45" y="450"/>
      <point x="102" y="371"/>
    </contour>
    <contour>
      <point x="186" y="405" type="curve" smooth="yes"/>
      <point x="114" y="405"/>
      <point x="75" y="469"/>
      <point x="75" y="560" type="curve" smooth="yes"/>
      <point x="75" y="651"/>
      <point x="114" y="716"/>
      <point x="186" y="716" type="curve" smooth="yes"/>
      <point x="258" y="716"/>
      <point x="296" y="651"/>
      <point x="296" y="560" type="curve" smooth="yes"/>
      <point x="296" y="469"/>
      <point x="258" y="405"/>
    </contour>
  </outline>
</glyph>
<glyph name="plusminus" format="1">
  <advance width="496"/>
  <unicode hex="00B1"/>
  <outline>
    <contour>
      <point x="66" y="413" type="line"/>
      <point x="430" y="413" type="line"/>
      <point x="430" y="447" type="line"/>
      <point x="66" y="447" type="line"/>
    </contour>
    <contour>
      <point x="66" y="113" type="line"/>
      <point x="430" y="113" type="line"/>
      <point x="430" y="147" type="line"/>
      <point x="66" y="147" type="line"/>
    </contour>
    <contour>
      <point x="231" y="238" type="line"/>
      <point x="265" y="238" type="line"/>
      <point x="265" y="622" type="line"/>
      <point x="231" y="622" type="line"/>
    </contour>
  </outline>
</glyph>
<glyph name="acute" format="1">
  <advance width="196"/>
  <unicode hex="00B4"/>
  <outline>
    <contour>
      <point x="57" y="600" type="move" name="_top"/>
    </contour>
    <contour>
      <point x="70" y="610" type="line"/>
      <point x="157" y="798" type="line"/>
      <point x="121" y="798" type="line"/>
      <point x="46" y="616" type="line"/>
    </contour>
  </outline>
</glyph>
<glyph name="periodcentered" format="1">
  <advance width="179"/>
  <unicode hex="00B7"/>
  <outline>
    <contour>
      <point x="89" y="370" type="move" name="_periodcentered"/>
    </contour>
    <contour>
      <point x="89" y="340" type="curve" smooth="yes"/>
      <point x="105" y="340"/>
      <point x="119" y="350"/>
      <point x="119" y="370" type="curve" smooth="yes"/>
      <point x="119" y="390"/>
      <point x="105" y="400"/>
      <point x="89" y="400" type="curve" smooth="yes"/>
      <point x="73" y="400"/>
      <point x="60" y="391"/>
      <point x="60" y="370" type="curve" smooth="yes"/>
      <point x="60" y="349"/>
      <point x="73" y="340"/>
    </contour>
  </outline>
</glyph>
<glyph name="cedilla" format="1">
  <advance width="257"/>
  <unicode hex="00B8"/>
  <outline>
    <contour>
      <point x="119" y="0" type="move" name="_bottom"/>
    </contour>
    <contour>
      <point x="84" y="-220" type="curve" smooth="yes"/>
      <point x="152" y="-220"/>
      <point x="188" y="-182"/>
      <point x="188" y="-111" type="curve" smooth="yes"/>
      <point x="188" y="-79"/>
      <point x="177" y="-35"/>
      <point x="156" y="4" type="curve"/>
      <point x="119" y="4" type="line"/>
      <point x="140" y="-32"/>
      <point x="154" y="-76"/>
      <point x="154" y="-111" type="curve" smooth="yes"/>
      <point x="154" y="-162"/>
      <point x="131" y="-186"/>
      <point x="84" y="-186" type="curve" smooth="yes"/>
      <point x="65" y="-186"/>
      <point x="44" y="-182"/>
      <point x="25" y="-174" type="curve"/>
      <point x="25" y="-210" type="line"/>
      <point x="43" y="-216"/>
      <point x="64" y="-220"/>
    </contour>
  </outline>
</glyph>
<glyph name="AE" format="1">
  <advance width="722"/>
  <unicode hex="00C6"/>
  <outline>
    <contour>
      <point x="439" y="760" type="move" name="topUC"/>
    </contour>
    <contour>
      <point x="365" y="0" type="line"/>
      <point x="682" y="0" type="line"/>
      <point x="682" y="34" type="line"/>
      <point x="399" y="34" type="line"/>
      <point x="369" y="706" type="line"/>
      <point x="673" y="706" type="line"/>
      <point x="673" y="740" type="line"/>
      <point x="335" y="740" type="line"/>
    </contour>
    <contour>
      <point x="8" y="0" type="line"/>
      <point x="41" y="0" type="line"/>
      <point x="281" y="705" type="line"/>
      <point x="345" y="705" type="line"/>
      <point x="347" y="740" type="line"/>
      <point x="257" y="740" type="line"/>
      <point x="8" y="6" type="line"/>
    </contour>
    <contour>
      <point x="108" y="249" type="line"/>
      <point x="379" y="249" type="line"/>
      <point x="379" y="283" type="line"/>
      <point x="108" y="283" type="line"/>
    </contour>
    <contour>
      <point x="375" y="359" type="line"/>
      <point x="640" y="359" type="line"/>
      <point x="640" y="393" type="line"/>
      <point x="375" y="393" type="line"/>
    </contour>
  </outline>
</glyph>
<glyph name="Eth" format="1">
  <advance width="570"/>
  <unicode hex="00D0"/>
  <outline>
    <contour>
      <point x="0" y="351" type="line"/>
      <point x="287" y="351" type="line"/>
      <point x="287" y="385" type="line"/>
      <point x="0" y="385" type="line"/>
    </contour>
    <component base="D" xOffset="9"/>
  </outline>
</glyph>
<glyph name="germandbls" format="1">
  <advance width="479"/>
  <unicode hex="00DF"/>
  <outline>
    <contour>
      <point x="306" y="-12" type="curve" smooth="yes"/>
      <point x="388" y="-12"/>
      <point x="447" y="51"/>
      <point x="447" y="138" type="curve" smooth="yes"/>
      <point x="447" y="223"/>
      <point x="416" y="263"/>
      <point x="327" y="293" type="curve" smooth="yes"/>
      <point x="272" y="311"/>
      <point x="219" y="327"/>
      <point x="219" y="411" type="curve" smooth="yes"/>
      <point x="219" y="477"/>
      <point x="264" y="519"/>
      <point x="334" y="519" type="curve"/>
      <point x="401" y="519" type="line"/>
      <point x="401" y="553" type="line"/>
      <point x="332" y="553" type="line"/>
      <point x="243" y="553"/>
      <point x="185" y="497"/>
      <point x="185" y="411" type="curve" smooth="yes"/>
      <point x="185" y="296"/>
      <point x="254" y="278"/>
      <point x="316" y="260" type="curve" smooth="yes"/>
      <point x="384" y="240"/>
      <point x="413" y="203"/>
      <point x="413" y="138" type="curve" smooth="yes"/>
      <point x="413" y="67"/>
      <point x="370" y="22"/>
      <point x="301" y="22" type="curve" smooth="yes"/>
      <point x="265" y="22"/>
      <point x="222" y="29"/>
      <point x="179" y="41" type="curve"/>
      <point x="179" y="7" type="line"/>
      <point x="242" y="-7"/>
      <point x="274" y="-12"/>
    </contour>
    <contour>
      <point x="69" y="0" type="line"/>
      <point x="103" y="0" type="line"/>
      <point x="103" y="619" type="line" smooth="yes"/>
      <point x="103" y="735"/>
      <point x="139" y="777"/>
      <point x="237" y="777" type="curve" smooth="yes"/>
      <point x="335" y="777"/>
      <point x="371" y="734"/>
      <point x="371" y="619" type="curve" smooth="yes"/>
      <point x="371" y="519" type="line"/>
      <point x="405" y="519" type="line"/>
      <point x="405" y="619" type="line" smooth="yes"/>
      <point x="405" y="750"/>
      <point x="351" y="811"/>
      <point x="237" y="811" type="curve" smooth="yes"/>
      <point x="122" y="811"/>
      <point x="69" y="750"/>
      <point x="69" y="619" type="curve" smooth="yes"/>
    </contour>
  </outline>
</glyph>
<glyph name="eth" format="1">
  <advance width="469"/>
  <unicode hex="00F0"/>
  <outline>
    <contour>
      <point x="234" y="-8" type="curve" smooth="yes"/>
      <point x="358" y="-8"/>
      <point x="424" y="88"/>
      <point x="424" y="270" type="curve" smooth="yes"/>
      <point x="424" y="429"/>
      <point x="359" y="653"/>
      <point x="268" y="808" type="curve"/>
      <point x="232" y="808" type="line"/>
      <point x="286" y="709"/>
      <point x="330" y="595"/>
      <point x="357" y="487" type="curve"/>
      <point x="325" y="529"/>
      <point x="285" y="550"/>
      <point x="234" y="550" type="curve" smooth="yes"/>
      <point x="111" y="550"/>
      <point x="44" y="452"/>
      <point x="44" y="270" type="curve" smooth="yes"/>
      <point x="44" y="89"/>
      <point x="110" y="-8"/>
    </contour>
    <contour>
      <point x="234" y="26" type="curve" smooth="yes"/>
      <point x="132" y="26"/>
      <point x="80" y="108"/>
      <point x="80" y="270" type="curve" smooth="yes"/>
      <point x="80" y="433"/>
      <point x="132" y="516"/>
      <point x="234" y="516" type="curve" smooth="yes"/>
      <point x="365" y="516"/>
      <point x="388" y="374"/>
      <point x="388" y="270" type="curve" smooth="yes"/>
      <point x="388" y="107"/>
      <point x="337" y="26"/>
    </contour>
    <contour>
      <point x="209" y="635" type="line"/>
      <point x="424" y="675" type="line"/>
      <point x="424" y="710" type="line"/>
      <point x="209" y="670" type="line"/>
    </contour>
  </outline>
</glyph>
<glyph name="thorn" format="1">
  <advance width="459"/>
  <unicode hex="00FE"/>
  <outline>
    <contour>
      <point x="69" y="-220" type="line"/>
      <point x="103" y="-220" type="line"/>
      <point x="103" y="1" type="line"/>
      <point x="134" y="-6"/>
      <point x="165" y="-10"/>
      <point x="193" y="-10" type="curve" smooth="yes"/>
      <point x="335" y="-10"/>
      <point x="415" y="94"/>
      <point x="415" y="279" type="curve" smooth="yes"/>
      <point x="415" y="456"/>
      <point x="356" y="549"/>
      <point x="242" y="549" type="curve" smooth="yes"/>
      <point x="184" y="549"/>
      <point x="130" y="523"/>
      <point x="96" y="478" type="curve"/>
      <point x="103" y="476" type="line"/>
      <point x="103" y="808" type="line"/>
      <point x="69" y="808" type="line"/>
    </contour>
    <contour>
      <point x="197" y="24" type="curve" smooth="yes"/>
      <point x="172" y="24"/>
      <point x="142" y="28"/>
      <point x="103" y="35" type="curve"/>
      <point x="103" y="430" type="line" smooth="yes"/>
      <point x="103" y="470"/>
      <point x="176" y="515"/>
      <point x="240" y="515" type="curve" smooth="yes"/>
      <point x="331" y="515"/>
      <point x="379" y="433"/>
      <point x="379" y="279" type="curve" smooth="yes"/>
      <point x="379" y="113"/>
      <point x="315" y="24"/>
    </contour>
  </outline>
</glyph>
<glyph name="dcroat" format="1">
  <advance width="459"/>
  <unicode hex="0111"/>
  <outline>
    <contour>
      <point x="198" y="660" type="line"/>
      <point x="458" y="660" type="line"/>
      <point x="458" y="683" type="line"/>
      <point x="198" y="683" type="line"/>
    </contour>
    <component base="d"/>
  </outline>
</glyph>
<glyph name="gcommaaccent" format="1">
  <advance width="458"/>
  <unicode hex="0123"/>
  <outline>
    <contour>
      <point x="326" y="818" type="line"/>
      <point x="274" y="668" type="line"/>
      <point x="304" y="668" type="line"/>
      <point x="355" y="818" type="line"/>
    </contour>
    <component base="g"/>
  </outline>
</glyph>
<glyph name="Hbar" format="1">
  <advance width="637"/>
  <unicode hex="0126"/>
  <outline>
    <contour>
      <point x="1" y="550" type="line"/>
      <point x="637" y="550" type="line"/>
      <point x="637" y="575" type="line"/>
      <point x="1" y="575" type="line"/>
    </contour>
    <component base="H" xOffset="19"/>
  </outline>
</glyph>
<glyph name="itilde" format="1">
  <advance width="176"/>
  <unicode hex="0129"/>
  <outline>
    <contour>
      <point x="-31" y="636" type="line"/>
      <point x="-17" y="656"/>
      <point x="7" y="675"/>
      <point x="29" y="675" type="curve" smooth="yes"/>
      <point x="72" y="675"/>
      <point x="98" y="632"/>
      <point x="148" y="632" type="curve" smooth="yes"/>
      <point x="179" y="632"/>
      <point x="214" y="655"/>
      <point x="227" y="686" type="curve"/>
      <point x="199" y="706" type="line"/>
      <point x="188" y="682"/>
      <point x="169" y="666"/>
      <point x="148" y="666" type="curve" smooth="yes"/>
      <point x="105" y="666"/>
      <point x="79" y="709"/>
      <point x="29" y="709" type="curve" smooth="yes"/>
      <point x="-2" y="709"/>
      <point x="-37" y="683"/>
      <point x="-55" y="660" type="curve"/>
    </contour>
    <component base="dotlessi" xOffset="1"/>
  </outline>
</glyph>
<glyph name="kgreenlandic" format="1">
  <advance width="412"/>
  <unicode hex="0138"/>
  <outline>
    <contour>
      <point x="69" y="0" type="line"/>
      <point x="103" y="0" type="line"/>
      <point x="103" y="261" type="line"/>
      <point x="207" y="261" type="line"/>
      <point x="367" y="0" type="line"/>
      <point x="406" y="0" type="line"/>
      <point x="245" y="264" type="line"/>
      <point x="232" y="275" type="line"/>
      <point x="232" y="277" type="line"/>
      <point x="244" y="287" type="line"/>
      <point x="390" y="540" type="line"/>
      <point x="351" y="540" type="line"/>
      <point x="209" y="293" type="line"/>
      <point x="103" y="293" type="line"/>
      <point x="103" y="540" type="line"/>
      <point x="69" y="540" type="line"/>
    </contour>
  </outline>
</glyph>
<glyph name="Lslash" format="1">
  <advance width="411"/>
  <unicode hex="0141"/>
  <outline>
    <contour>
      <point x="13" y="220" type="line"/>
      <point x="237" y="440" type="line"/>
      <point x="237" y="487" type="line"/>
      <point x="13" y="267" type="line"/>
    </contour>
    <component base="L" xOffset="25"/>
  </outline>
</glyph>
<glyph name="Eng" format="1">
  <advance width="640"/>
  <unicode hex="014A"/>
  <outline>
    <contour>
      <point x="477" y="-176" type="line"/>
      <point x="522" y="-107"/>
      <point x="559" y="-6"/>
      <point x="559" y="46" type="curve" smooth="yes"/>
      <point x="559" y="740" type="line"/>
      <point x="525" y="740" type="line"/>
      <point x="525" y="60" type="line"/>
      <point x="521" y="59" type="line"/>
      <point x="474" y="144" type="line"/>
      <point x="121" y="740" type="line"/>
      <point x="81" y="740" type="line"/>
      <point x="81" y="0" type="line"/>
      <point x="115" y="0" type="line"/>
      <point x="115" y="679" type="line"/>
      <point x="119" y="680" type="line"/>
      <point x="169" y="590" type="line"/>
      <point x="518" y="0" type="line"/>
      <point x="504" y="-49"/>
      <point x="478" y="-110"/>
      <point x="448" y="-168" type="curve"/>
    </contour>
  </outline>
</glyph>
<glyph name="oe" format="1">
  <advance width="769"/>
  <unicode hex="0153"/>
  <outline>
    <contour>
      <point x="584" y="-9" type="curve" smooth="yes"/>
      <point x="628" y="-9"/>
      <point x="671" y="2"/>
      <point x="707" y="22" type="curve"/>
      <point x="702" y="57" type="line"/>
      <point x="660" y="34"/>
      <point x="626" y="25"/>
      <point x="584" y="25" type="curve" smooth="yes"/>
      <point x="484" y="25"/>
      <point x="427" y="109"/>
      <point x="425" y="256" type="curve"/>
      <point x="725" y="256" type="line"/>
      <point x="728" y="277"/>
      <point x="729" y="295"/>
      <point x="729" y="327" type="curve" smooth="yes"/>
      <point x="729" y="470"/>
      <point x="675" y="549"/>
      <point x="578" y="549" type="curve" smooth="yes"/>
      <point x="490" y="549"/>
      <point x="434" y="493"/>
      <point x="409" y="389" type="curve"/>
      <point x="405" y="389" type="line"/>
      <point x="382" y="494"/>
      <point x="325" y="550"/>
      <point x="234" y="550" type="curve" smooth="yes"/>
      <point x="111" y="550"/>
      <point x="44" y="452"/>
      <point x="44" y="270" type="curve" smooth="yes"/>
      <point x="44" y="89"/>
      <point x="110" y="-8"/>
      <point x="234" y="-8" type="curve" smooth="yes"/>
      <point x="324" y="-8"/>
      <point x="380" y="45"/>
      <point x="404" y="147" type="curve"/>
      <point x="408" y="147" type="line"/>
      <point x="433" y="47"/>
      <point x="493" y="-9"/>
    </contour>
    <contour>
      <point x="234" y="26" type="curve" smooth="yes"/>
      <point x="132" y="26"/>
      <point x="80" y="108"/>
      <point x="80" y="270" type="curve" smooth="yes"/>
      <point x="80" y="433"/>
      <point x="132" y="516"/>
      <point x="234" y="516" type="curve" smooth="yes"/>
      <point x="336" y="516"/>
      <point x="388" y="433"/>
      <point x="388" y="270" type="curve" smooth="yes"/>
      <point x="388" y="107"/>
      <point x="337" y="26"/>
    </contour>
    <contour>
      <point x="425" y="290" type="line"/>
      <point x="431" y="433"/>
      <point x="486" y="515"/>
      <point x="578" y="515" type="curve" smooth="yes"/>
      <point x="654" y="515"/>
      <point x="688" y="448"/>
      <point x="692" y="290" type="curve"/>
    </contour>
  </outline>
</glyph>
<glyph name="tbar" format="1">
  <advance width="322"/>
  <unicode hex="0167"/>
  <outline>
    <contour>
      <point x="22" y="324" type="line"/>
      <point x="282" y="324" type="line"/>
      <point x="282" y="358" type="line"/>
      <point x="22" y="358" type="line"/>
    </contour>
    <component base="t" xOffset="9"/>
  </outline>
</glyph>
<glyph name="Schwa" format="1">
  <advance width="536"/>
  <unicode hex="018F"/>
  <outline>
    <contour>
      <point x="452" y="374" type="curve" smooth="yes"/>
      <point x="452" y="156"/>
      <point x="367" y="25"/>
      <point x="240" y="25" type="curve" smooth="yes"/>
      <point x="127" y="25"/>
      <point x="78" y="131"/>
      <point x="78" y="375" type="curve"/>
      <point x="61" y="355" type="line"/>
      <point x="470" y="355" type="line"/>
      <point x="470" y="391" type="line"/>
      <point x="47" y="391" type="line"/>
      <point x="44" y="365"/>
      <point x="43" y="338"/>
      <point x="43" y="298" type="curve" smooth="yes"/>
      <point x="43" y="100"/>
      <point x="113" y="-9"/>
      <point x="240" y="-9" type="curve" smooth="yes"/>
      <point x="399" y="-9"/>
      <point x="487" y="134"/>
      <point x="487" y="394" type="curve" smooth="yes"/>
      <point x="487" y="627"/>
      <point x="393" y="763"/>
      <point x="231" y="763" type="curve" smooth="yes"/>
      <point x="177" y="763"/>
      <point x="119" y="748"/>
      <point x="73" y="723" type="curve"/>
      <point x="74" y="712"/>
      <point x="76" y="702"/>
      <point x="78" y="688" type="curve"/>
      <point x="131" y="714"/>
      <point x="187" y="729"/>
      <point x="231" y="729" type="curve" smooth="yes"/>
      <point x="369" y="729"/>
      <point x="452" y="605"/>
    </contour>
  </outline>
</glyph>
<glyph name="florin" format="1">
  <advance width="261"/>
  <unicode hex="0192"/>
  <outline>
    <contour>
      <point x="104" y="-220" type="line"/>
      <point x="138" y="-200" type="line"/>
      <point x="138" y="509" type="line"/>
      <point x="235" y="509" type="line"/>
      <point x="235" y="540" type="line"/>
      <point x="138" y="540" type="line"/>
      <point x="138" y="585" type="line" smooth="yes"/>
      <point x="138" y="728"/>
      <point x="161" y="765"/>
      <point x="258" y="777" type="curve"/>
      <point x="258" y="808" type="line"/>
      <point x="138" y="794"/>
      <point x="104" y="745"/>
      <point x="104" y="585" type="curve" smooth="yes"/>
      <point x="104" y="540" type="line"/>
      <point x="28" y="540" type="line"/>
      <point x="28" y="509" type="line"/>
      <point x="104" y="509" type="line"/>
    </contour>
  </outline>
</glyph>
<glyph name="Aringacute" format="1">
  <advance width="521"/>
  <unicode hex="01FA"/>
  <outline>
    <contour>
      <point x="11" y="0" type="line"/>
      <point x="44" y="0" type="line"/>
      <point x="122" y="249" type="line"/>
      <point x="399" y="249" type="line"/>
      <point x="477" y="0" type="line"/>
      <point x="510" y="0" type="line"/>
      <point x="510" y="6" type="line"/>
      <point x="313" y="636" type="line"/>
      <point x="336" y="654"/>
      <point x="348" y="684"/>
      <point x="348" y="718" type="curve" smooth="yes"/>
      <point x="348" y="764"/>
      <point x="326" y="803"/>
      <point x="284" y="814" type="curve"/>
      <point x="349" y="910" type="line"/>
      <point x="311" y="910" type="line"/>
      <point x="245" y="817" type="line"/>
      <point x="196" y="811"/>
      <point x="171" y="768"/>
      <point x="171" y="718" type="curve" smooth="yes"/>
      <point x="171" y="683"/>
      <point x="183" y="652"/>
      <point x="207" y="634" type="curve"/>
      <point x="11" y="6" type="line"/>
    </contour>
    <contour>
      <point x="259" y="652" type="curve" smooth="yes"/>
      <point x="224" y="652"/>
      <point x="205" y="681"/>
      <point x="205" y="718" type="curve" smooth="yes"/>
      <point x="205" y="755"/>
      <point x="223" y="784"/>
      <point x="259" y="784" type="curve" smooth="yes"/>
      <point x="295" y="784"/>
      <point x="314" y="755"/>
      <point x="314" y="718" type="curve" smooth="yes"/>
      <point x="314" y="681"/>
      <point x="294" y="652"/>
    </contour>
    <contour>
      <point x="132" y="283" type="line"/>
      <point x="227" y="586" type="line"/>
      <point x="237" y="621" type="line"/>
      <point x="284" y="621" type="line"/>
      <point x="294" y="586" type="line"/>
      <point x="388" y="283" type="line"/>
    </contour>
  </outline>
</glyph>
<glyph name="iinvertedbreve" format="1">
  <advance width="176"/>
  <unicode hex="020B"/>
  <outline>
    <contour>
      <point x="-38" y="623" type="curve"/>
      <point x="-4" y="623" type="line"/>
      <point x="-4" y="684"/>
      <point x="34" y="721"/>
      <point x="97" y="721" type="curve" smooth="yes"/>
      <point x="160" y="721"/>
      <point x="198" y="684"/>
      <point x="198" y="623" type="curve"/>
      <point x="232" y="623" type="line"/>
      <point x="232" y="705"/>
      <point x="181" y="755"/>
      <point x="97" y="755" type="curve" smooth="yes"/>
      <point x="13" y="755"/>
      <point x="-38" y="705"/>
    </contour>
    <component base="dotlessi" xOffset="1"/>
  </outline>
</glyph>
<glyph name="dotlessj" format="1">
  <advance width="172"/>
  <unicode hex="0237"/>
  <outline>
    <contour>
      <point x="82" y="600" type="move" name="top"/>
    </contour>
    <contour>
      <point x="14" y="-220" type="line"/>
      <point x="72" y="-128"/>
      <point x="104" y="-18"/>
      <point x="104" y="93" type="curve" smooth="yes"/>
      <point x="104" y="540" type="line"/>
      <point x="70" y="540" type="line"/>
      <point x="70" y="110" type="line" smooth="yes"/>
      <point x="70" y="-15"/>
      <point x="45" y="-110"/>
      <point x="-10" y="-201" type="curve"/>
    </contour>
  </outline>
</glyph>
<glyph name="circumflex" format="1">
  <advance width="325"/>
  <unicode hex="02C6"/>
  <outline>
    <contour>
      <point x="155" y="600" type="move" name="_top"/>
    </contour>
    <contour>
      <point x="34" y="641" type="line"/>
      <point x="155" y="713" type="line"/>
      <point x="276" y="641" type="line"/>
      <point x="276" y="682" type="line"/>
      <point x="155" y="754" type="line"/>
      <point x="34" y="682" type="line"/>
    </contour>
  </outline>
</glyph>
<glyph name="caron" format="1">
  <advance width="317"/>
  <unicode hex="02C7"/>
  <outline>
    <contour>
      <point x="149" y="600" type="move" name="_top"/>
    </contour>
    <contour>
      <point x="34" y="727" type="line"/>
      <point x="155" y="655" type="line"/>
      <point x="276" y="727" type="line"/>
      <point x="276" y="768" type="line"/>
      <point x="155" y="696" type="line"/>
      <point x="34" y="768" type="line"/>
    </contour>
  </outline>
</glyph>
<glyph name="breve" format="1">
  <advance width="388"/>
  <unicode hex="02D8"/>
  <outline>
    <contour>
      <point x="191" y="600" type="move" name="_top"/>
    </contour>
    <contour>
      <point x="191" y="622" type="curve" smooth="yes"/>
      <point x="275" y="622"/>
      <point x="326" y="672"/>
      <point x="326" y="754" type="curve"/>
      <point x="292" y="754" type="line"/>
      <point x="292" y="693"/>
      <point x="254" y="656"/>
      <point x="191" y="656" type="curve" smooth="yes"/>
      <point x="128" y="656"/>
      <point x="90" y="693"/>
      <point x="90" y="754" type="curve"/>
      <point x="56" y="754" type="line"/>
      <point x="56" y="672"/>
      <point x="107" y="622"/>
    </contour>
  </outline>
</glyph>
<glyph name="dotaccent" format="1">
  <advance width="201"/>
  <unicode hex="02D9"/>
  <outline>
    <contour>
      <point x="90" y="600" type="move" name="_top"/>
    </contour>
    <contour>
      <point x="90" y="634" type="curve" smooth="yes"/>
      <point x="106" y="634"/>
      <point x="120" y="643"/>
      <point x="120" y="663" type="curve" smooth="yes"/>
      <point x="120" y="683"/>
      <point x="106" y="693"/>
      <point x="90" y="693" type="curve" smooth="yes"/>
      <point x="74" y="693"/>
      <point x="61" y="684"/>
      <point x="61" y="663" type="curve" smooth="yes"/>
      <point x="61" y="643"/>
      <point x="74" y="634"/>
    </contour>
  </outline>
</glyph>
<glyph name="ring" format="1">
  <advance width="292"/>
  <unicode hex="02DA"/>
  <outline>
    <contour>
      <point x="143" y="600" type="move" name="_top"/>
    </contour>
    <contour>
      <point x="144" y="618" type="curve" smooth="yes"/>
      <point x="201" y="618"/>
      <point x="233" y="663"/>
      <point x="233" y="718" type="curve" smooth="yes"/>
      <point x="233" y="773"/>
      <point x="202" y="818"/>
      <point x="144" y="818" type="curve" smooth="yes"/>
      <point x="86" y="818"/>
      <point x="56" y="773"/>
      <point x="56" y="718" type="curve" smooth="yes"/>
      <point x="56" y="663"/>
      <point x="87" y="618"/>
    </contour>
    <contour>
      <point x="144" y="652" type="curve" smooth="yes"/>
      <point x="109" y="652"/>
      <point x="90" y="681"/>
      <point x="90" y="718" type="curve" smooth="yes"/>
      <point x="90" y="755"/>
      <point x="108" y="784"/>
      <point x="144" y="784" type="curve" smooth="yes"/>
      <point x="180" y="784"/>
      <point x="199" y="755"/>
      <point x="199" y="718" type="curve" smooth="yes"/>
      <point x="199" y="681"/>
      <point x="179" y="652"/>
    </contour>
  </outline>
</glyph>
<glyph name="ogonek" format="1">
  <advance width="235"/>
  <unicode hex="02DB"/>
  <outline>
    <contour>
      <point x="178" y="0" type="move" name="_ogonek"/>
    </contour>
    <contour>
      <point x="132" y="-220" type="curve" smooth="yes"/>
      <point x="149" y="-220"/>
      <point x="164" y="-216"/>
      <point x="178" y="-208" type="curve"/>
      <point x="178" y="-176" type="line"/>
      <point x="165" y="-183"/>
      <point x="152" y="-186"/>
      <point x="137" y="-186" type="curve" smooth="yes"/>
      <point x="104" y="-186"/>
      <point x="89" y="-171"/>
      <point x="89" y="-135" type="curve" smooth="yes"/>
      <point x="89" y="-87"/>
      <point x="114" y="-54"/>
      <point x="178" y="-19" type="curve"/>
      <point x="178" y="0" type="line"/>
      <point x="149" y="0" type="line"/>
      <point x="87" y="-38"/>
      <point x="55" y="-85"/>
      <point x="55" y="-138" type="curve" smooth="yes"/>
      <point x="55" y="-189"/>
      <point x="85" y="-220"/>
    </contour>
  </outline>
</glyph>
<glyph name="hungarumlaut" format="1">
  <advance width="341"/>
  <unicode hex="02DD"/>
  <outline>
    <contour>
      <point x="135" y="600" type="move" name="_top"/>
    </contour>
    <contour>
      <point x="74" y="610" type="line"/>
      <point x="161" y="798" type="line"/>
      <point x="121" y="798" type="line"/>
      <point x="46" y="620" type="line"/>
    </contour>
    <contour>
      <point x="215" y="610" type="line"/>
      <point x="302" y="798" type="line"/>
      <point x="262" y="798" type="line"/>
      <point x="187" y="620" type="line"/>
    </contour>
  </outline>
</glyph>
<glyph name="uni030F" format="1">
  <advance width="349"/>
  <unicode hex="030F"/>
  <outline>
    <contour>
      <point x="201" y="600" type="move" name="_top"/>
    </contour>
    <contour>
      <point x="153" y="620" type="line"/>
      <point x="79" y="798" type="line"/>
      <point x="39" y="798" type="line"/>
      <point x="126" y="610" type="line"/>
    </contour>
    <contour>
      <point x="294" y="620" type="line"/>
      <point x="220" y="798" type="line"/>
      <point x="180" y="798" type="line"/>
      <point x="267" y="610" type="line"/>
    </contour>
  </outline>
</glyph>
<glyph name="uni0394" format="1">
  <advance width="521"/>
  <unicode hex="0394"/>
  <outline>
    <contour>
      <point x="9" y="0" type="line"/>
      <point x="512" y="0" type="line"/>
      <point x="283" y="740" type="line"/>
      <point x="238" y="740" type="line"/>
    </contour>
    <contour>
      <point x="55" y="34" type="line"/>
      <point x="260" y="696" type="line"/>
      <point x="465" y="34" type="line"/>
    </contour>
  </outline>
</glyph>
<glyph name="pi" format="1">
  <advance width="539"/>
  <unicode hex="03C0"/>
  <outline>
    <contour>
      <point x="162" y="-101" type="line"/>
      <point x="196" y="-101" type="line"/>
      <point x="196" y="506" type="line"/>
      <point x="372" y="506" type="line"/>
      <point x="372" y="111" type="line" smooth="yes"/>
      <point x="372" y="38"/>
      <point x="413" y="0"/>
      <point x="473" y="0" type="curve" smooth="yes"/>
      <point x="489" y="0" type="line"/>
      <point x="489" y="34" type="line"/>
      <point x="473" y="34" type="line" smooth="yes"/>
      <point x="439" y="34"/>
      <point x="406" y="63"/>
      <point x="406" y="111" type="curve" smooth="yes"/>
      <point x="406" y="506" type="line"/>
      <point x="516" y="506" type="line"/>
      <point x="516" y="525" type="line"/>
      <point x="501" y="540" type="line"/>
      <point x="152" y="540" type="line" smooth="yes"/>
      <point x="83" y="540"/>
      <point x="37" y="509"/>
      <point x="16" y="435" type="curve"/>
      <point x="47" y="420" type="line"/>
      <point x="61" y="480"/>
      <point x="94" y="506"/>
      <point x="155" y="506" type="curve" smooth="yes"/>
      <point x="162" y="506" type="line"/>
    </contour>
  </outline>
</glyph>
<glyph name="bullet" format="1">
  <advance width="264"/>
  <unicode hex="2022"/>
  <outline>
    <contour>
      <point x="132" y="314" type="curve" smooth="yes"/>
      <point x="158" y="314"/>
      <point x="187" y="324"/>
      <point x="187" y="370" type="curve" smooth="yes"/>
      <point x="187" y="416"/>
      <point x="158" y="426"/>
      <point x="132" y="426" type="curve" smooth="yes"/>
      <point x="105" y="426"/>
      <point x="77" y="416"/>
      <point x="77" y="370" type="curve" smooth="yes"/>
      <point x="77" y="324"/>
      <point x="105" y="314"/>
    </contour>
  </outline>
</glyph>
<glyph name="guilsinglleft" format="1">
  <advance width="213"/>
  <unicode hex="2039"/>
  <outline>
    <contour>
      <point x="134" y="30" type="line"/>
      <point x="170" y="30" type="line"/>
      <point x="76" y="268" type="line"/>
      <point x="76" y="272" type="line"/>
      <point x="170" y="510" type="line"/>
      <point x="134" y="510" type="line"/>
      <point x="40" y="272" type="line"/>
      <point x="40" y="268" type="line"/>
    </contour>
  </outline>
</glyph>
<glyph name="guilsinglright" format="1">
  <advance width="213"/>
  <unicode hex="203A"/>
  <outline>
    <contour>
      <point x="173" y="268" type="line"/>
      <point x="173" y="272" type="line"/>
      <point x="79" y="510" type="line"/>
      <point x="43" y="510" type="line"/>
      <point x="137" y="272" type="line"/>
      <point x="137" y="268" type="line"/>
      <point x="43" y="30" type="line"/>
      <point x="79" y="30" type="line"/>
    </contour>
  </outline>
</glyph>
<glyph name="fraction" format="1">
  <advance width="160"/>
  <unicode hex="2044"/>
  <outline>
    <contour>
      <point x="-68" y="0" type="line"/>
      <point x="-33" y="0" type="line"/>
      <point x="227" y="740" type="line"/>
      <point x="192" y="740" type="line"/>
    </contour>
  </outline>
</glyph>
<glyph name="foursuperior" format="1">
  <advance width="354"/>
  <unicode hex="2074"/>
  <outline>
    <contour>
      <point x="239" y="300" type="line"/>
      <point x="273" y="300" type="line"/>
      <point x="273" y="440" type="line"/>
      <point x="328" y="440" type="line"/>
      <point x="328" y="472" type="line"/>
      <point x="273" y="472" type="line"/>
      <point x="273" y="693" type="line"/>
      <point x="247" y="693" type="line"/>
      <point x="239" y="472" type="line"/>
      <point x="61" y="472" type="line"/>
      <point x="231" y="837" type="line"/>
      <point x="231" y="845" type="line"/>
      <point x="211" y="854" type="line"/>
      <point x="202" y="854" type="line"/>
      <point x="20" y="459" type="line"/>
      <point x="37" y="440" type="line"/>
      <point x="239" y="440" type="line"/>
    </contour>
  </outline>
</glyph>
<glyph name="fivesuperior" format="1">
  <advance width="298"/>
  <unicode hex="2075"/>
  <outline>
    <contour>
      <point x="117" y="291" type="curve" smooth="yes"/>
      <point x="209" y="291"/>
      <point x="260" y="351"/>
      <point x="260" y="457" type="curve" smooth="yes"/>
      <point x="260" y="568"/>
      <point x="213" y="612"/>
      <point x="85" y="615" type="curve"/>
      <point x="100" y="812" type="line"/>
      <point x="245" y="812" type="line"/>
      <point x="245" y="846" type="line"/>
      <point x="68" y="846" type="line"/>
      <point x="49" y="588" type="line"/>
      <point x="55" y="582" type="line"/>
      <point x="92" y="582" type="line" smooth="yes"/>
      <point x="186" y="582"/>
      <point x="225" y="545"/>
      <point x="225" y="457" type="curve" smooth="yes"/>
      <point x="225" y="373"/>
      <point x="186" y="325"/>
      <point x="117" y="325" type="curve" smooth="yes"/>
      <point x="99" y="325"/>
      <point x="80" y="328"/>
      <point x="54" y="334" type="curve"/>
      <point x="42" y="334" type="line"/>
      <point x="42" y="303" type="line"/>
      <point x="70" y="295"/>
      <point x="94" y="291"/>
    </contour>
  </outline>
</glyph>
<glyph name="zeroinferior" format="1">
  <advance width="393"/>
  <unicode hex="2080"/>
  <note>
    546
  </note>
  <outline>
    <contour>
      <point x="197" y="-107" type="curve"/>
      <point x="298" y="-107"/>
      <point x="350" y="-11"/>
      <point x="350" y="173" type="curve" smooth="yes"/>
      <point x="350" y="357"/>
      <point x="298" y="454"/>
      <point x="197" y="454" type="curve" smooth="yes"/>
      <point x="96" y="454"/>
      <point x="43" y="357"/>
      <point x="43" y="173" type="curve" smooth="yes"/>
      <point x="43" y="-12"/>
      <point x="96" y="-107"/>
    </contour>
    <contour>
      <point x="197" y="-73" type="curve"/>
      <point x="117" y="-73"/>
      <point x="77" y="10"/>
      <point x="77" y="173" type="curve" smooth="yes"/>
      <point x="77" y="333"/>
      <point x="119" y="420"/>
      <point x="197" y="420" type="curve" smooth="yes"/>
      <point x="274" y="420"/>
      <point x="316" y="333"/>
      <point x="316" y="173" type="curve" smooth="yes"/>
      <point x="316" y="11"/>
      <point x="276" y="-73"/>
    </contour>
  </outline>
</glyph>
<glyph name="twoinferior" format="1">
  <advance width="316"/>
  <unicode hex="2082"/>
  <outline>
    <contour>
      <point x="37" y="-100" type="line"/>
      <point x="275" y="-100" type="line"/>
      <point x="275" y="-66" type="line"/>
      <point x="71" y="-66" type="line"/>
      <point x="71" y="-34" type="line"/>
      <point x="71" y="42"/>
      <point x="100" y="94"/>
      <point x="173" y="157" type="curve"/>
      <point x="246" y="218"/>
      <point x="274" y="263"/>
      <point x="274" y="326" type="curve" smooth="yes"/>
      <point x="274" y="409"/>
      <point x="231" y="453"/>
      <point x="150" y="453" type="curve" smooth="yes"/>
      <point x="122" y="453"/>
      <point x="90" y="447"/>
      <point x="49" y="432" type="curve"/>
      <point x="58" y="399" type="line"/>
      <point x="102" y="413"/>
      <point x="129" y="419"/>
      <point x="150" y="419" type="curve" smooth="yes"/>
      <point x="208" y="419"/>
      <point x="240" y="386"/>
      <point x="240" y="326" type="curve" smooth="yes"/>
      <point x="240" y="275"/>
      <point x="215" y="235"/>
      <point x="151" y="183" type="curve" smooth="yes"/>
      <point x="71" y="117"/>
      <point x="37" y="53"/>
      <point x="37" y="-34" type="curve"/>
    </contour>
  </outline>
</glyph>
<glyph name="threeinferior" format="1">
  <advance width="302"/>
  <unicode hex="2083"/>
  <outline>
    <contour>
      <point x="116" y="-105" type="curve" smooth="yes"/>
      <point x="206" y="-105"/>
      <point x="261" y="-51"/>
      <point x="261" y="38" type="curve" smooth="yes"/>
      <point x="261" y="116"/>
      <point x="225" y="165"/>
      <point x="154" y="185" type="curve"/>
      <point x="212" y="204"/>
      <point x="247" y="251"/>
      <point x="247" y="314" type="curve" smooth="yes"/>
      <point x="247" y="401"/>
      <point x="198" y="454"/>
      <point x="119" y="454" type="curve" smooth="yes"/>
      <point x="96" y="454"/>
      <point x="69" y="449"/>
      <point x="37" y="441" type="curve"/>
      <point x="46" y="411" type="line"/>
      <point x="57" y="411" type="line"/>
      <point x="80" y="417"/>
      <point x="100" y="420"/>
      <point x="117" y="420" type="curve" smooth="yes"/>
      <point x="179" y="420"/>
      <point x="213" y="382"/>
      <point x="213" y="314" type="curve" smooth="yes"/>
      <point x="213" y="245"/>
      <point x="166" y="201"/>
      <point x="92" y="201" type="curve" smooth="yes"/>
      <point x="78" y="201" type="line"/>
      <point x="78" y="167" type="line"/>
      <point x="91" y="167" type="line" smooth="yes"/>
      <point x="179" y="167"/>
      <point x="227" y="122"/>
      <point x="227" y="38" type="curve" smooth="yes"/>
      <point x="227" y="-30"/>
      <point x="185" y="-72"/>
      <point x="116" y="-72" type="curve" smooth="yes"/>
      <point x="94" y="-72"/>
      <point x="72" y="-69"/>
      <point x="53" y="-64" type="curve"/>
      <point x="42" y="-64" type="line"/>
      <point x="42" y="-94" type="line"/>
      <point x="67" y="-101"/>
      <point x="94" y="-105"/>
    </contour>
  </outline>
</glyph>
<glyph name="fiveinferior" format="1">
  <advance width="298"/>
  <unicode hex="2085"/>
  <outline>
    <contour>
      <point x="117" y="-109" type="curve" smooth="yes"/>
      <point x="209" y="-109"/>
      <point x="260" y="-49"/>
      <point x="260" y="57" type="curve" smooth="yes"/>
      <point x="260" y="168"/>
      <point x="213" y="212"/>
      <point x="85" y="215" type="curve"/>
      <point x="100" y="412" type="line"/>
      <point x="245" y="412" type="line"/>
      <point x="245" y="446" type="line"/>
      <point x="68" y="446" type="line"/>
      <point x="49" y="188" type="line"/>
      <point x="55" y="182" type="line"/>
      <point x="92" y="182" type="line" smooth="yes"/>
      <point x="186" y="182"/>
      <point x="225" y="145"/>
      <point x="225" y="57" type="curve" smooth="yes"/>
      <point x="225" y="-27"/>
      <point x="186" y="-75"/>
      <point x="117" y="-75" type="curve" smooth="yes"/>
      <point x="99" y="-75"/>
      <point x="80" y="-72"/>
      <point x="54" y="-66" type="curve"/>
      <point x="42" y="-66" type="line"/>
      <point x="42" y="-97" type="line"/>
      <point x="70" y="-105"/>
      <point x="94" y="-109"/>
    </contour>
  </outline>
</glyph>
<glyph name="lira" format="1">
  <advance width="489"/>
  <unicode hex="20A4"/>
  <outline>
    <contour>
      <point x="52" y="0" type="line"/>
      <point x="436" y="0" type="line"/>
      <point x="436" y="34" type="line"/>
      <point x="193" y="34" type="line"/>
      <point x="193" y="528" type="line" smooth="yes"/>
      <point x="193" y="658"/>
      <point x="228" y="710"/>
      <point x="318" y="710" type="curve" smooth="yes"/>
      <point x="351" y="710"/>
      <point x="392" y="701"/>
      <point x="440" y="683" type="curve"/>
      <point x="450" y="715" type="line"/>
      <point x="397" y="735"/>
      <point x="354" y="744"/>
      <point x="317" y="744" type="curve" smooth="yes"/>
      <point x="203" y="744"/>
      <point x="159" y="675"/>
      <point x="159" y="528" type="curve" smooth="yes"/>
      <point x="159" y="34" type="line"/>
      <point x="52" y="34" type="line"/>
    </contour>
    <contour>
      <point x="52" y="263" type="line"/>
      <point x="302" y="263" type="line"/>
      <point x="322" y="297" type="line"/>
      <point x="52" y="297" type="line"/>
    </contour>
    <contour>
      <point x="52" y="433" type="line"/>
      <point x="342" y="433" type="line"/>
      <point x="362" y="467" type="line"/>
      <point x="52" y="467" type="line"/>
    </contour>
  </outline>
</glyph>
<glyph name="Euro" format="1">
  <advance width="480"/>
  <unicode hex="20AC"/>
  <outline>
    <contour>
      <point x="392" y="-10" type="curve" smooth="yes"/>
      <point x="411" y="-10"/>
      <point x="419" y="-10"/>
      <point x="428" y="-9" type="curve"/>
      <point x="428" y="26" type="line"/>
      <point x="411" y="25"/>
      <point x="396" y="24"/>
      <point x="389" y="24" type="curve" smooth="yes"/>
      <point x="220" y="24"/>
      <point x="148" y="129"/>
      <point x="148" y="369" type="curve" smooth="yes"/>
      <point x="148" y="620"/>
      <point x="217" y="714"/>
      <point x="394" y="714" type="curve" smooth="yes"/>
      <point x="411" y="714"/>
      <point x="420" y="713"/>
      <point x="428" y="712" type="curve"/>
      <point x="443" y="746" type="line"/>
      <point x="425" y="747"/>
      <point x="414" y="748"/>
      <point x="390" y="748" type="curve" smooth="yes"/>
      <point x="191" y="748"/>
      <point x="112" y="643"/>
      <point x="112" y="369" type="curve" smooth="yes"/>
      <point x="112" y="104"/>
      <point x="196" y="-7"/>
    </contour>
    <contour>
      <point x="41" y="269" type="line"/>
      <point x="319" y="269" type="line"/>
      <point x="339" y="303" type="line"/>
      <point x="41" y="303" type="line"/>
    </contour>
    <contour>
      <point x="41" y="436" type="line"/>
      <point x="351" y="436" type="line"/>
      <point x="371" y="470" type="line"/>
      <point x="41" y="470" type="line"/>
    </contour>
  </outline>
</glyph>
<glyph name="uni20B9" format="1">
  <advance width="580"/>
  <unicode hex="20B9"/>
  <outline>
    <contour>
      <point x="64" y="704" type="line"/>
      <point x="108" y="708"/>
      <point x="137" y="710"/>
      <point x="174" y="710" type="curve" smooth="yes"/>
      <point x="315" y="710"/>
      <point x="383" y="661"/>
      <point x="383" y="513" type="curve" smooth="yes"/>
      <point x="383" y="368"/>
      <point x="317" y="323"/>
      <point x="180" y="323" type="curve" smooth="yes"/>
      <point x="64" y="323" type="line"/>
      <point x="64" y="297" type="line"/>
      <point x="263" y="297" type="line"/>
      <point x="286" y="284" type="line"/>
      <point x="286" y="295" type="line"/>
      <point x="378" y="325"/>
      <point x="423" y="402"/>
      <point x="423" y="510" type="curve" smooth="yes"/>
      <point x="423" y="610"/>
      <point x="394" y="681"/>
      <point x="330" y="718" type="curve"/>
      <point x="62" y="718" type="line"/>
    </contour>
    <contour>
      <point x="388" y="0" type="line"/>
      <point x="438" y="0" type="line"/>
      <point x="268" y="326" type="line"/>
      <point x="231" y="315" type="line"/>
    </contour>
    <contour>
      <point x="62" y="708" type="line"/>
      <point x="537" y="708" type="line"/>
      <point x="557" y="740" type="line"/>
      <point x="62" y="740" type="line"/>
    </contour>
    <contour>
      <point x="62" y="497" type="line"/>
      <point x="505" y="497" type="line"/>
      <point x="525" y="529" type="line"/>
      <point x="62" y="529" type="line"/>
    </contour>
  </outline>
</glyph>
<glyph name="uni20BA" format="1">
  <advance width="464"/>
  <unicode hex="20BA"/>
  <outline>
    <contour>
      <point x="42" y="416" type="line"/>
      <point x="349" y="516" type="line"/>
      <point x="349" y="548" type="line"/>
      <point x="42" y="448" type="line"/>
    </contour>
    <contour>
      <point x="42" y="247" type="line"/>
      <point x="349" y="347" type="line"/>
      <point x="349" y="379" type="line"/>
      <point x="42" y="279" type="line"/>
    </contour>
    <contour>
      <point x="145" y="0" type="line"/>
      <point x="296" y="0" type="line" smooth="yes"/>
      <point x="400" y="0"/>
      <point x="427" y="33"/>
      <point x="427" y="270" type="curve"/>
      <point x="385" y="270" type="line"/>
      <point x="385" y="59"/>
      <point x="375" y="33"/>
      <point x="296" y="33" type="curve" smooth="yes"/>
      <point x="184" y="33" type="line"/>
      <point x="184" y="740" type="line"/>
      <point x="145" y="740" type="line"/>
    </contour>
  </outline>
</glyph>
<glyph name="uni2113" format="1">
  <advance width="431"/>
  <unicode hex="2113"/>
  <outline>
    <contour>
      <point x="250" y="-3" type="curve"/>
      <point x="311" y="-3"/>
      <point x="341" y="68"/>
      <point x="346" y="79" type="curve"/>
      <point x="314" y="93" type="line"/>
      <point x="301" y="60"/>
      <point x="276" y="31"/>
      <point x="251" y="31" type="curve" smooth="yes"/>
      <point x="222" y="31"/>
      <point x="204" y="91"/>
      <point x="204" y="189" type="curve" smooth="yes"/>
      <point x="204" y="219"/>
      <point x="205" y="247"/>
      <point x="208" y="274" type="curve"/>
      <point x="341" y="413"/>
      <point x="420" y="554"/>
      <point x="420" y="655" type="curve" smooth="yes"/>
      <point x="420" y="738"/>
      <point x="398" y="780"/>
      <point x="355" y="780" type="curve" smooth="yes"/>
      <point x="267" y="780"/>
      <point x="204" y="582"/>
      <point x="175" y="288" type="curve"/>
      <point x="126" y="239"/>
      <point x="77" y="195"/>
      <point x="28" y="156" type="curve"/>
      <point x="48" y="130" type="line"/>
      <point x="88" y="161"/>
      <point x="129" y="196"/>
      <point x="171" y="236" type="curve"/>
      <point x="170" y="225"/>
      <point x="170" y="213"/>
      <point x="170" y="189" type="curve" smooth="yes"/>
      <point x="170" y="68"/>
      <point x="199" y="-3"/>
    </contour>
    <contour>
      <point x="214" y="329" type="curve"/>
      <point x="243" y="585"/>
      <point x="297" y="746"/>
      <point x="355" y="746" type="curve" smooth="yes"/>
      <point x="376" y="746"/>
      <point x="386" y="716"/>
      <point x="386" y="655" type="curve" smooth="yes"/>
      <point x="386" y="570"/>
      <point x="323" y="451"/>
    </contour>
  </outline>
</glyph>
<glyph name="trademark" format="1">
  <advance width="735"/>
  <unicode hex="2122"/>
  <outline>
    <contour>
      <point x="327" y="320" type="line"/>
      <point x="361" y="320" type="line"/>
      <point x="361" y="649" type="line"/>
      <point x="480" y="337" type="line"/>
      <point x="515" y="337" type="line"/>
      <point x="634" y="650" type="line"/>
      <point x="634" y="320" type="line"/>
      <point x="668" y="320" type="line"/>
      <point x="668" y="740" type="line"/>
      <point x="633" y="740" type="line"/>
      <point x="497" y="386" type="line"/>
      <point x="362" y="740" type="line"/>
      <point x="327" y="740" type="line"/>
    </contour>
    <contour>
      <point x="135" y="320" type="line"/>
      <point x="169" y="320" type="line"/>
      <point x="169" y="706" type="line"/>
      <point x="275" y="706" type="line"/>
      <point x="275" y="740" type="line"/>
      <point x="29" y="740" type="line"/>
      <point x="29" y="706" type="line"/>
      <point x="135" y="706" type="line"/>
    </contour>
  </outline>
</glyph>
<glyph name="Omega" format="1">
  <advance width="696"/>
  <unicode hex="2126"/>
  <outline>
    <contour>
      <point x="44" y="0" type="line"/>
      <point x="307" y="0" type="line"/>
      <point x="307" y="32" type="line"/>
      <point x="243" y="70"/>
      <point x="89" y="155"/>
      <point x="89" y="398" type="curve" smooth="yes"/>
      <point x="89" y="589"/>
      <point x="192" y="716"/>
      <point x="348" y="716" type="curve" smooth="yes"/>
      <point x="504" y="716"/>
      <point x="607" y="589"/>
      <point x="607" y="398" type="curve" smooth="yes"/>
      <point x="607" y="155"/>
      <point x="453" y="70"/>
      <point x="389" y="32" type="curve"/>
      <point x="389" y="0" type="line"/>
      <point x="652" y="0" type="line"/>
      <point x="652" y="34" type="line"/>
      <point x="446" y="34" type="line"/>
      <point x="528" y="86"/>
      <point x="641" y="188"/>
      <point x="641" y="398" type="curve" smooth="yes"/>
      <point x="641" y="610"/>
      <point x="525" y="750"/>
      <point x="348" y="750" type="curve" smooth="yes"/>
      <point x="171" y="750"/>
      <point x="55" y="610"/>
      <point x="55" y="398" type="curve" smooth="yes"/>
      <point x="55" y="188"/>
      <point x="167" y="86"/>
      <point x="250" y="34" type="curve"/>
      <point x="44" y="34" type="line"/>
    </contour>
  </outline>
</glyph>
<glyph name="arrowleft" format="1">
  <advance width="558"/>
  <unicode hex="2190"/>
  <outline>
    <contour>
      <point x="303" y="121" type="line"/>
      <point x="325" y="142" type="line"/>
      <point x="65" y="392" type="line"/>
      <point x="512" y="386" type="line"/>
      <point x="512" y="420" type="line"/>
      <point x="65" y="414" type="line"/>
      <point x="325" y="664" type="line"/>
      <point x="303" y="685" type="line"/>
      <point x="26" y="405" type="line"/>
      <point x="26" y="401" type="line"/>
    </contour>
  </outline>
</glyph>
<glyph name="arrowup" format="1">
  <advance width="632"/>
  <unicode hex="2191"/>
  <outline>
    <contour>
      <point x="299" y="155" type="line"/>
      <point x="333" y="155" type="line"/>
      <point x="327" y="601" type="line"/>
      <point x="577" y="342" type="line"/>
      <point x="598" y="364" type="line"/>
      <point x="318" y="641" type="line"/>
      <point x="314" y="641" type="line"/>
      <point x="34" y="364" type="line"/>
      <point x="55" y="342" type="line"/>
      <point x="305" y="601" type="line"/>
    </contour>
  </outline>
</glyph>
<glyph name="partialdiff" format="1">
  <advance width="453"/>
  <unicode hex="2202"/>
  <outline>
    <contour>
      <point x="219" y="-4" type="curve" smooth="yes"/>
      <point x="324" y="-4"/>
      <point x="395" y="113"/>
      <point x="395" y="330" type="curve" smooth="yes"/>
      <point x="395" y="587"/>
      <point x="321" y="743"/>
      <point x="197" y="743" type="curve" smooth="yes"/>
      <point x="157" y="743"/>
      <point x="94" y="705"/>
      <point x="63" y="661" type="curve"/>
      <point x="86" y="643" type="line"/>
      <point x="112" y="678"/>
      <point x="164" y="709"/>
      <point x="197" y="709" type="curve" smooth="yes"/>
      <point x="285" y="709"/>
      <point x="344" y="599"/>
      <point x="358" y="417" type="curve"/>
      <point x="317" y="462"/>
      <point x="273" y="491"/>
      <point x="219" y="491" type="curve" smooth="yes"/>
      <point x="117" y="491"/>
      <point x="44" y="392"/>
      <point x="44" y="254" type="curve" smooth="yes"/>
      <point x="44" y="112"/>
      <point x="114" y="-4"/>
    </contour>
    <contour>
      <point x="219" y="30" type="curve" smooth="yes"/>
      <point x="131" y="30"/>
      <point x="78" y="130"/>
      <point x="78" y="254" type="curve" smooth="yes"/>
      <point x="78" y="372"/>
      <point x="137" y="457"/>
      <point x="219" y="457" type="curve" smooth="yes"/>
      <point x="277" y="457"/>
      <point x="320" y="423"/>
      <point x="360" y="370" type="curve"/>
      <point x="361" y="357"/>
      <point x="361" y="344"/>
      <point x="361" y="330" type="curve" smooth="yes"/>
      <point x="361" y="135"/>
      <point x="307" y="30"/>
    </contour>
  </outline>
</glyph>
<glyph name="summation" format="1">
  <advance width="500"/>
  <unicode hex="2211"/>
  <outline>
    <contour>
      <point x="33" y="-101" type="line"/>
      <point x="459" y="-101" type="line"/>
      <point x="459" y="-67" type="line"/>
      <point x="74" y="-67" type="line"/>
      <point x="313" y="319" type="line"/>
      <point x="74" y="706" type="line"/>
      <point x="459" y="706" type="line"/>
      <point x="459" y="740" type="line"/>
      <point x="33" y="740" type="line"/>
      <point x="33" y="709" type="line"/>
      <point x="273" y="319" type="line"/>
      <point x="33" y="-71" type="line"/>
    </contour>
  </outline>
</glyph>
<glyph name="minus" format="1">
  <advance width="488"/>
  <unicode hex="2212"/>
  <outline>
    <contour>
      <point x="62" y="353" type="line"/>
      <point x="426" y="353" type="line"/>
      <point x="426" y="387" type="line"/>
      <point x="62" y="387" type="line"/>
    </contour>
  </outline>
</glyph>
<glyph name="radical" format="1">
  <advance width="569"/>
  <unicode hex="221A"/>
  <outline>
    <contour>
      <point x="304" y="0" type="line"/>
      <point x="355" y="0" type="line"/>
      <point x="555" y="848" type="line"/>
      <point x="521" y="848" type="line"/>
      <point x="328" y="29" type="line"/>
      <point x="144" y="479" type="line"/>
      <point x="20" y="423" type="line"/>
      <point x="34" y="393" type="line"/>
      <point x="127" y="435" type="line"/>
    </contour>
  </outline>
</glyph>
<glyph name="infinity" format="1">
  <advance width="861"/>
  <unicode hex="221E"/>
  <outline>
    <contour>
      <point x="218" y="147" type="curve" smooth="yes"/>
      <point x="313" y="147"/>
      <point x="368" y="213"/>
      <point x="430" y="289" type="curve"/>
      <point x="521" y="179"/>
      <point x="570" y="147"/>
      <point x="643" y="147" type="curve" smooth="yes"/>
      <point x="744" y="147"/>
      <point x="815" y="216"/>
      <point x="815" y="314" type="curve" smooth="yes"/>
      <point x="815" y="404"/>
      <point x="741" y="472"/>
      <point x="643" y="472" type="curve" smooth="yes"/>
      <point x="564" y="472"/>
      <point x="489" y="426"/>
      <point x="430" y="345" type="curve"/>
      <point x="372" y="427"/>
      <point x="296" y="472"/>
      <point x="218" y="472" type="curve" smooth="yes"/>
      <point x="120" y="472"/>
      <point x="46" y="404"/>
      <point x="46" y="314" type="curve" smooth="yes"/>
      <point x="46" y="216"/>
      <point x="117" y="147"/>
    </contour>
    <contour>
      <point x="218" y="181" type="curve" smooth="yes"/>
      <point x="137" y="181"/>
      <point x="80" y="236"/>
      <point x="80" y="314" type="curve" smooth="yes"/>
      <point x="80" y="384"/>
      <point x="140" y="438"/>
      <point x="218" y="438" type="curve" smooth="yes"/>
      <point x="288" y="438"/>
      <point x="354" y="396"/>
      <point x="408" y="316" type="curve"/>
      <point x="321" y="213"/>
      <point x="276" y="181"/>
    </contour>
    <contour>
      <point x="643" y="181" type="curve" smooth="yes"/>
      <point x="585" y="181"/>
      <point x="539" y="214"/>
      <point x="453" y="316" type="curve"/>
      <point x="506" y="396"/>
      <point x="573" y="438"/>
      <point x="643" y="438" type="curve" smooth="yes"/>
      <point x="721" y="438"/>
      <point x="781" y="384"/>
      <point x="781" y="314" type="curve" smooth="yes"/>
      <point x="781" y="236"/>
      <point x="724" y="181"/>
    </contour>
  </outline>
</glyph>
<glyph name="approxequal" format="1">
  <advance width="488"/>
  <unicode hex="2248"/>
  <outline>
    <contour>
      <point x="62" y="441" type="line"/>
      <point x="94" y="456"/>
      <point x="124" y="466"/>
      <point x="163" y="466" type="curve" smooth="yes"/>
      <point x="222" y="466"/>
      <point x="266" y="432"/>
      <point x="325" y="432" type="curve" smooth="yes"/>
      <point x="364" y="432"/>
      <point x="394" y="448"/>
      <point x="426" y="458" type="curve"/>
      <point x="426" y="492" type="line"/>
      <point x="394" y="477"/>
      <point x="364" y="466"/>
      <point x="325" y="466" type="curve" smooth="yes"/>
      <point x="266" y="466"/>
      <point x="222" y="500"/>
      <point x="163" y="500" type="curve" smooth="yes"/>
      <point x="124" y="500"/>
      <point x="94" y="487"/>
      <point x="62" y="477" type="curve"/>
    </contour>
    <contour>
      <point x="62" y="228" type="line"/>
      <point x="94" y="243"/>
      <point x="124" y="253"/>
      <point x="163" y="253" type="curve" smooth="yes"/>
      <point x="222" y="253"/>
      <point x="266" y="219"/>
      <point x="325" y="219" type="curve" smooth="yes"/>
      <point x="364" y="219"/>
      <point x="394" y="235"/>
      <point x="426" y="245" type="curve"/>
      <point x="426" y="279" type="line"/>
      <point x="394" y="264"/>
      <point x="364" y="253"/>
      <point x="325" y="253" type="curve" smooth="yes"/>
      <point x="266" y="253"/>
      <point x="222" y="287"/>
      <point x="163" y="287" type="curve" smooth="yes"/>
      <point x="124" y="287"/>
      <point x="94" y="274"/>
      <point x="62" y="264" type="curve"/>
    </contour>
  </outline>
</glyph>
<glyph name="lessequal" format="1">
  <advance width="493"/>
  <unicode hex="2264"/>
  <outline>
    <contour>
      <point x="64" y="362" type="line"/>
      <point x="99" y="362" type="line"/>
      <point x="430" y="508" type="line"/>
      <point x="430" y="546" type="line"/>
      <point x="64" y="382" type="line"/>
    </contour>
    <contour>
      <point x="64" y="352" type="line"/>
      <point x="427" y="188" type="line"/>
      <point x="427" y="226" type="line"/>
      <point x="99" y="372" type="line"/>
      <point x="64" y="372" type="line"/>
    </contour>
    <contour>
      <point x="64" y="86" type="line"/>
      <point x="428" y="86" type="line"/>
      <point x="428" y="120" type="line"/>
      <point x="64" y="120" type="line"/>
    </contour>
  </outline>
</glyph>
<glyph name="Aacute.sc" format="1">
  <advance width="465"/>
  <outline>
    <contour>
      <point x="15" y="0" type="line"/>
      <point x="48" y="0" type="line"/>
      <point x="114" y="190" type="line"/>
      <point x="351" y="190" type="line"/>
      <point x="417" y="0" type="line"/>
      <point x="450" y="0" type="line"/>
      <point x="450" y="5" type="line"/>
      <point x="255" y="577" type="line"/>
      <point x="211" y="577" type="line"/>
      <point x="15" y="5" type="line"/>
    </contour>
    <contour>
      <point x="123" y="222" type="line"/>
      <point x="204" y="453" type="line"/>
      <point x="230" y="540" type="line"/>
      <point x="234" y="540" type="line"/>
      <point x="262" y="453" type="line"/>
      <point x="341" y="222" type="line"/>
    </contour>
    <contour>
      <point x="245" y="613" type="line"/>
      <point x="318" y="714" type="line"/>
      <point x="281" y="714" type="line"/>
      <point x="214" y="615" type="line"/>
    </contour>
  </outline>
</glyph>
<glyph name="Abreve.sc" format="1">
  <advance width="465"/>
  <outline>
    <contour>
      <point x="234" y="635" type="curve" smooth="yes"/>
      <point x="307" y="635"/>
      <point x="352" y="675"/>
      <point x="352" y="741" type="curve"/>
      <point x="320" y="741" type="line"/>
      <point x="320" y="692"/>
      <point x="288" y="664"/>
      <point x="234" y="664" type="curve" smooth="yes"/>
      <point x="180" y="664"/>
      <point x="148" y="692"/>
      <point x="148" y="741" type="curve"/>
      <point x="116" y="741" type="line"/>
      <point x="116" y="675"/>
      <point x="161" y="635"/>
    </contour>
    <contour>
      <point x="15" y="0" type="line"/>
      <point x="48" y="0" type="line"/>
      <point x="114" y="190" type="line"/>
      <point x="351" y="190" type="line"/>
      <point x="417" y="0" type="line"/>
      <point x="450" y="0" type="line"/>
      <point x="450" y="5" type="line"/>
      <point x="255" y="577" type="line"/>
      <point x="211" y="577" type="line"/>
      <point x="15" y="5" type="line"/>
    </contour>
    <contour>
      <point x="123" y="222" type="line"/>
      <point x="204" y="453" type="line"/>
      <point x="230" y="540" type="line"/>
      <point x="234" y="540" type="line"/>
      <point x="262" y="453" type="line"/>
      <point x="341" y="222" type="line"/>
    </contour>
  </outline>
</glyph>
<glyph name="Adblgrave.sc" format="1">
  <advance width="465"/>
  <outline>
    <contour>
      <point x="15" y="0" type="line"/>
      <point x="48" y="0" type="line"/>
      <point x="114" y="190" type="line"/>
      <point x="351" y="190" type="line"/>
      <point x="417" y="0" type="line"/>
      <point x="450" y="0" type="line"/>
      <point x="450" y="5" type="line"/>
      <point x="255" y="577" type="line"/>
      <point x="211" y="577" type="line"/>
      <point x="15" y="5" type="line"/>
    </contour>
    <contour>
      <point x="123" y="222" type="line"/>
      <point x="204" y="453" type="line"/>
      <point x="230" y="540" type="line"/>
      <point x="234" y="540" type="line"/>
      <point x="262" y="453" type="line"/>
      <point x="341" y="222" type="line"/>
    </contour>
    <contour>
      <point x="164" y="612" type="line"/>
      <point x="194" y="623" type="line"/>
      <point x="127" y="714" type="line"/>
      <point x="91" y="714" type="line"/>
    </contour>
    <contour>
      <point x="275" y="612" type="line"/>
      <point x="304" y="623" type="line"/>
      <point x="237" y="714" type="line"/>
      <point x="201" y="714" type="line"/>
    </contour>
  </outline>
</glyph>
<glyph name="Adieresis.sc" format="1">
  <advance width="465"/>
  <outline>
    <contour>
      <point x="158" y="635" type="curve" smooth="yes"/>
      <point x="174" y="635"/>
      <point x="186" y="643"/>
      <point x="186" y="661" type="curve" smooth="yes"/>
      <point x="186" y="679"/>
      <point x="174" y="688"/>
      <point x="158" y="688" type="curve" smooth="yes"/>
      <point x="143" y="688"/>
      <point x="131" y="680"/>
      <point x="131" y="661" type="curve" smooth="yes"/>
      <point x="131" y="643"/>
      <point x="143" y="635"/>
    </contour>
    <contour>
      <point x="307" y="635" type="curve" smooth="yes"/>
      <point x="322" y="635"/>
      <point x="335" y="643"/>
      <point x="335" y="661" type="curve" smooth="yes"/>
      <point x="335" y="679"/>
      <point x="322" y="688"/>
      <point x="307" y="688" type="curve" smooth="yes"/>
      <point x="292" y="688"/>
      <point x="279" y="680"/>
      <point x="279" y="661" type="curve" smooth="yes"/>
      <point x="279" y="643"/>
      <point x="292" y="635"/>
    </contour>
    <contour>
      <point x="15" y="0" type="line"/>
      <point x="48" y="0" type="line"/>
      <point x="114" y="190" type="line"/>
      <point x="351" y="190" type="line"/>
      <point x="417" y="0" type="line"/>
      <point x="450" y="0" type="line"/>
      <point x="450" y="5" type="line"/>
      <point x="255" y="577" type="line"/>
      <point x="211" y="577" type="line"/>
      <point x="15" y="5" type="line"/>
    </contour>
    <contour>
      <point x="123" y="222" type="line"/>
      <point x="204" y="453" type="line"/>
      <point x="230" y="540" type="line"/>
      <point x="234" y="540" type="line"/>
      <point x="262" y="453" type="line"/>
      <point x="341" y="222" type="line"/>
    </contour>
  </outline>
</glyph>
<glyph name="Agrave.sc" format="1">
  <advance width="465"/>
  <outline>
    <contour>
      <point x="15" y="0" type="line"/>
      <point x="48" y="0" type="line"/>
      <point x="114" y="190" type="line"/>
      <point x="351" y="190" type="line"/>
      <point x="417" y="0" type="line"/>
      <point x="450" y="0" type="line"/>
      <point x="450" y="5" type="line"/>
      <point x="255" y="577" type="line"/>
      <point x="211" y="577" type="line"/>
      <point x="15" y="5" type="line"/>
    </contour>
    <contour>
      <point x="123" y="222" type="line"/>
      <point x="204" y="453" type="line"/>
      <point x="230" y="540" type="line"/>
      <point x="234" y="540" type="line"/>
      <point x="262" y="453" type="line"/>
      <point x="341" y="222" type="line"/>
    </contour>
    <contour>
      <point x="245" y="623" type="line"/>
      <point x="178" y="714" type="line"/>
      <point x="141" y="714" type="line"/>
      <point x="214" y="613" type="line"/>
    </contour>
  </outline>
</glyph>
<glyph name="Aring.sc" format="1">
  <advance width="465"/>
  <outline>
    <contour>
      <point x="15" y="0" type="line"/>
      <point x="48" y="0" type="line"/>
      <point x="114" y="190" type="line"/>
      <point x="351" y="190" type="line"/>
      <point x="417" y="0" type="line"/>
      <point x="450" y="0" type="line"/>
      <point x="450" y="5" type="line"/>
      <point x="255" y="577" type="line"/>
      <point x="211" y="577" type="line"/>
      <point x="15" y="5" type="line"/>
    </contour>
    <contour>
      <point x="123" y="222" type="line"/>
      <point x="204" y="453" type="line"/>
      <point x="230" y="540" type="line"/>
      <point x="234" y="540" type="line"/>
      <point x="262" y="453" type="line"/>
      <point x="341" y="222" type="line"/>
    </contour>
    <contour>
      <point x="231" y="612" type="curve" smooth="yes"/>
      <point x="281" y="612"/>
      <point x="309" y="648"/>
      <point x="309" y="691" type="curve" smooth="yes"/>
      <point x="309" y="735"/>
      <point x="281" y="770"/>
      <point x="231" y="770" type="curve" smooth="yes"/>
      <point x="181" y="770"/>
      <point x="154" y="735"/>
      <point x="154" y="691" type="curve" smooth="yes"/>
      <point x="154" y="648"/>
      <point x="182" y="612"/>
    </contour>
    <contour>
      <point x="231" y="640" type="curve" smooth="yes"/>
      <point x="201" y="640"/>
      <point x="184" y="662"/>
      <point x="184" y="691" type="curve" smooth="yes"/>
      <point x="184" y="720"/>
      <point x="200" y="742"/>
      <point x="231" y="742" type="curve" smooth="yes"/>
      <point x="263" y="742"/>
      <point x="279" y="720"/>
      <point x="279" y="691" type="curve" smooth="yes"/>
      <point x="279" y="662"/>
      <point x="262" y="640"/>
    </contour>
  </outline>
</glyph>
<glyph name="Aringacute.sc" format="1">
  <advance width="465"/>
  <outline>
    <contour>
      <point x="15" y="0" type="line"/>
      <point x="48" y="0" type="line"/>
      <point x="114" y="190" type="line"/>
      <point x="351" y="190" type="line"/>
      <point x="417" y="0" type="line"/>
      <point x="450" y="0" type="line"/>
      <point x="450" y="5" type="line"/>
      <point x="281" y="499" type="line"/>
      <point x="301" y="514"/>
      <point x="311" y="537"/>
      <point x="311" y="563" type="curve" smooth="yes"/>
      <point x="311" y="600"/>
      <point x="291" y="631"/>
      <point x="255" y="640" type="curve"/>
      <point x="311" y="718" type="line"/>
      <point x="274" y="718" type="line"/>
      <point x="218" y="643" type="line"/>
      <point x="175" y="638"/>
      <point x="153" y="604"/>
      <point x="153" y="563" type="curve" smooth="yes"/>
      <point x="153" y="536"/>
      <point x="163" y="512"/>
      <point x="184" y="498" type="curve"/>
      <point x="15" y="5" type="line"/>
    </contour>
    <contour>
      <point x="231" y="512" type="curve" smooth="yes"/>
      <point x="201" y="512"/>
      <point x="184" y="534"/>
      <point x="184" y="563" type="curve" smooth="yes"/>
      <point x="184" y="593"/>
      <point x="200" y="615"/>
      <point x="231" y="615" type="curve" smooth="yes"/>
      <point x="263" y="615"/>
      <point x="280" y="593"/>
      <point x="280" y="563" type="curve" smooth="yes"/>
      <point x="280" y="534"/>
      <point x="262" y="512"/>
    </contour>
    <contour>
      <point x="123" y="222" type="line"/>
      <point x="204" y="453" type="line"/>
      <point x="213" y="484" type="line"/>
      <point x="252" y="485" type="line"/>
      <point x="262" y="453" type="line"/>
      <point x="341" y="222" type="line"/>
    </contour>
  </outline>
</glyph>
<glyph name="B.sc" format="1">
  <advance width="478"/>
  <outline>
    <contour>
      <point x="238" y="-8" type="curve" smooth="yes"/>
      <point x="368" y="-8"/>
      <point x="434" y="45"/>
      <point x="434" y="150" type="curve" smooth="yes"/>
      <point x="434" y="230"/>
      <point x="387" y="283"/>
      <point x="311" y="293" type="curve"/>
      <point x="311" y="296" type="line"/>
      <point x="377" y="308"/>
      <point x="414" y="357"/>
      <point x="414" y="431" type="curve" smooth="yes"/>
      <point x="414" y="536"/>
      <point x="353" y="585"/>
      <point x="223" y="585" type="curve" smooth="yes"/>
      <point x="182" y="585"/>
      <point x="151" y="582"/>
      <point x="76" y="575" type="curve"/>
      <point x="76" y="4" type="line"/>
      <point x="112" y="-3"/>
      <point x="188" y="-8"/>
    </contour>
    <contour>
      <point x="239" y="21" type="curve" smooth="yes"/>
      <point x="196" y="21"/>
      <point x="128" y="26"/>
      <point x="110" y="30" type="curve"/>
      <point x="110" y="276" type="line"/>
      <point x="221" y="276" type="line" smooth="yes"/>
      <point x="347" y="276"/>
      <point x="398" y="239"/>
      <point x="398" y="150" type="curve" smooth="yes"/>
      <point x="398" y="64"/>
      <point x="346" y="21"/>
    </contour>
    <contour>
      <point x="110" y="308" type="line"/>
      <point x="110" y="547" type="line"/>
      <point x="150" y="552"/>
      <point x="183" y="554"/>
      <point x="224" y="554" type="curve" smooth="yes"/>
      <point x="329" y="554"/>
      <point x="378" y="515"/>
      <point x="378" y="431" type="curve" smooth="yes"/>
      <point x="378" y="341"/>
      <point x="336" y="308"/>
      <point x="221" y="308" type="curve" smooth="yes"/>
    </contour>
  </outline>
</glyph>
<glyph name="Cacute.sc" format="1">
  <advance width="430"/>
  <outline>
    <contour>
      <point x="307" y="-8" type="curve" smooth="yes"/>
      <point x="344" y="-8"/>
      <point x="367" y="-5"/>
      <point x="393" y="0" type="curve"/>
      <point x="393" y="31" type="line"/>
      <point x="364" y="28"/>
      <point x="322" y="25"/>
      <point x="306" y="25" type="curve" smooth="yes"/>
      <point x="152" y="25"/>
      <point x="84" y="104"/>
      <point x="84" y="288" type="curve" smooth="yes"/>
      <point x="84" y="479"/>
      <point x="147" y="551"/>
      <point x="310" y="551" type="curve" smooth="yes"/>
      <point x="341" y="551"/>
      <point x="374" y="548"/>
      <point x="393" y="545" type="curve"/>
      <point x="393" y="577" type="line"/>
      <point x="361" y="581"/>
      <point x="331" y="584"/>
      <point x="306" y="584" type="curve" smooth="yes"/>
      <point x="121" y="584"/>
      <point x="48" y="500"/>
      <point x="48" y="288" type="curve" smooth="yes"/>
      <point x="48" y="82"/>
      <point x="125" y="-6"/>
    </contour>
    <contour>
      <point x="277" y="613" type="line"/>
      <point x="351" y="714" type="line"/>
      <point x="314" y="714" type="line"/>
      <point x="247" y="615" type="line"/>
    </contour>
  </outline>
</glyph>
<glyph name="Ccedilla.sc" format="1">
  <advance width="430"/>
  <outline>
    <contour>
      <point x="231" y="-172" type="curve" smooth="yes"/>
      <point x="290" y="-172"/>
      <point x="321" y="-142"/>
      <point x="321" y="-86" type="curve" smooth="yes"/>
      <point x="321" y="-63"/>
      <point x="313" y="-35"/>
      <point x="299" y="-7" type="curve"/>
      <point x="330" y="-10"/>
      <point x="363" y="-6"/>
      <point x="393" y="0" type="curve"/>
      <point x="393" y="31" type="line"/>
      <point x="364" y="28"/>
      <point x="322" y="25"/>
      <point x="306" y="25" type="curve" smooth="yes"/>
      <point x="152" y="25"/>
      <point x="84" y="104"/>
      <point x="84" y="288" type="curve" smooth="yes"/>
      <point x="84" y="479"/>
      <point x="147" y="551"/>
      <point x="310" y="551" type="curve" smooth="yes"/>
      <point x="341" y="551"/>
      <point x="374" y="548"/>
      <point x="393" y="545" type="curve"/>
      <point x="393" y="577" type="line"/>
      <point x="361" y="581"/>
      <point x="331" y="584"/>
      <point x="306" y="584" type="curve" smooth="yes"/>
      <point x="121" y="584"/>
      <point x="48" y="500"/>
      <point x="48" y="288" type="curve" smooth="yes"/>
      <point x="48" y="98"/>
      <point x="113" y="9"/>
      <point x="265" y="-5" type="curve"/>
      <point x="280" y="-32"/>
      <point x="289" y="-61"/>
      <point x="289" y="-85" type="curve" smooth="yes"/>
      <point x="289" y="-123"/>
      <point x="270" y="-141"/>
      <point x="230" y="-141" type="curve" smooth="yes"/>
      <point x="214" y="-141"/>
      <point x="196" y="-138"/>
      <point x="179" y="-132" type="curve"/>
      <point x="179" y="-164" type="line"/>
      <point x="196" y="-169"/>
      <point x="214" y="-172"/>
    </contour>
  </outline>
</glyph>
<glyph name="D.sc" format="1">
  <advance width="502"/>
  <outline>
    <contour>
      <point x="259" y="760" type="move" name="topUC"/>
    </contour>
    <contour>
      <point x="264" y="0" type="move" name="bottom"/>
    </contour>
    <contour>
      <point x="169" y="-13" type="curve" smooth="yes"/>
      <point x="365" y="-13"/>
      <point x="454" y="80"/>
      <point x="454" y="288" type="curve" smooth="yes"/>
      <point x="454" y="490"/>
      <point x="373" y="585"/>
      <point x="202" y="585" type="curve" smooth="yes"/>
      <point x="167" y="585"/>
      <point x="126" y="580"/>
      <point x="76" y="572" type="curve"/>
      <point x="76" y="-7" type="line"/>
      <point x="106" y="-12"/>
      <point x="137" y="-13"/>
    </contour>
    <contour>
      <point x="173" y="20" type="curve" smooth="yes"/>
      <point x="155" y="20"/>
      <point x="135" y="21"/>
      <point x="110" y="24" type="curve"/>
      <point x="110" y="545" type="line"/>
      <point x="140" y="550"/>
      <point x="171" y="553"/>
      <point x="199" y="553" type="curve" smooth="yes"/>
      <point x="350" y="553"/>
      <point x="418" y="471"/>
      <point x="418" y="288" type="curve" smooth="yes"/>
      <point x="418" y="108"/>
      <point x="337" y="20"/>
    </contour>
  </outline>
</glyph>
<glyph name="Ddotbelow.sc" format="1">
  <advance width="502"/>
  <outline>
    <contour>
      <point x="169" y="-13" type="curve" smooth="yes"/>
      <point x="365" y="-13"/>
      <point x="454" y="80"/>
      <point x="454" y="288" type="curve" smooth="yes"/>
      <point x="454" y="490"/>
      <point x="373" y="585"/>
      <point x="202" y="585" type="curve" smooth="yes"/>
      <point x="167" y="585"/>
      <point x="126" y="580"/>
      <point x="76" y="572" type="curve"/>
      <point x="76" y="-7" type="line"/>
      <point x="106" y="-12"/>
      <point x="137" y="-13"/>
    </contour>
    <contour>
      <point x="173" y="20" type="curve" smooth="yes"/>
      <point x="155" y="20"/>
      <point x="135" y="21"/>
      <point x="110" y="24" type="curve"/>
      <point x="110" y="545" type="line"/>
      <point x="140" y="550"/>
      <point x="171" y="553"/>
      <point x="199" y="553" type="curve" smooth="yes"/>
      <point x="350" y="553"/>
      <point x="418" y="471"/>
      <point x="418" y="288" type="curve" smooth="yes"/>
      <point x="418" y="108"/>
      <point x="337" y="20"/>
    </contour>
    <contour>
      <point x="229" y="-128" type="curve" smooth="yes"/>
      <point x="247" y="-128"/>
      <point x="260" y="-120"/>
      <point x="260" y="-99" type="curve" smooth="yes"/>
      <point x="260" y="-78"/>
      <point x="247" y="-69"/>
      <point x="229" y="-69" type="curve" smooth="yes"/>
      <point x="210" y="-69"/>
      <point x="198" y="-77"/>
      <point x="198" y="-99" type="curve" smooth="yes"/>
      <point x="198" y="-120"/>
      <point x="210" y="-128"/>
    </contour>
  </outline>
</glyph>
<glyph name="Ebreve.sc" format="1">
  <advance width="436"/>
  <outline>
    <contour>
      <point x="232" y="635" type="curve" smooth="yes"/>
      <point x="306" y="635"/>
      <point x="350" y="675"/>
      <point x="350" y="741" type="curve"/>
      <point x="318" y="741" type="line"/>
      <point x="318" y="692"/>
      <point x="286" y="664"/>
      <point x="232" y="664" type="curve" smooth="yes"/>
      <point x="179" y="664"/>
      <point x="147" y="692"/>
      <point x="147" y="741" type="curve"/>
      <point x="115" y="741" type="line"/>
      <point x="115" y="675"/>
      <point x="159" y="635"/>
    </contour>
    <contour>
      <point x="77" y="0" type="line"/>
      <point x="396" y="0" type="line"/>
      <point x="396" y="33" type="line"/>
      <point x="111" y="33" type="line"/>
      <point x="111" y="277" type="line"/>
      <point x="361" y="277" type="line"/>
      <point x="361" y="309" type="line"/>
      <point x="111" y="309" type="line"/>
      <point x="111" y="545" type="line"/>
      <point x="389" y="545" type="line"/>
      <point x="389" y="577" type="line"/>
      <point x="77" y="577" type="line"/>
    </contour>
  </outline>
</glyph>
<glyph name="Ecircumflex.sc" format="1">
  <advance width="436"/>
  <outline>
    <contour>
      <point x="77" y="0" type="line"/>
      <point x="396" y="0" type="line"/>
      <point x="396" y="33" type="line"/>
      <point x="111" y="33" type="line"/>
      <point x="111" y="277" type="line"/>
      <point x="361" y="277" type="line"/>
      <point x="361" y="309" type="line"/>
      <point x="111" y="309" type="line"/>
      <point x="111" y="545" type="line"/>
      <point x="389" y="545" type="line"/>
      <point x="389" y="577" type="line"/>
      <point x="77" y="577" type="line"/>
    </contour>
    <contour>
      <point x="125" y="637" type="line"/>
      <point x="231" y="693" type="line"/>
      <point x="337" y="637" type="line"/>
      <point x="337" y="673" type="line"/>
      <point x="231" y="729" type="line"/>
      <point x="125" y="673" type="line"/>
    </contour>
  </outline>
</glyph>
<glyph name="Edieresis.sc" format="1">
  <advance width="436"/>
  <outline>
    <contour>
      <point x="157" y="635" type="curve" smooth="yes"/>
      <point x="172" y="635"/>
      <point x="185" y="643"/>
      <point x="185" y="661" type="curve" smooth="yes"/>
      <point x="185" y="679"/>
      <point x="172" y="688"/>
      <point x="157" y="688" type="curve" smooth="yes"/>
      <point x="141" y="688"/>
      <point x="129" y="680"/>
      <point x="129" y="661" type="curve" smooth="yes"/>
      <point x="129" y="643"/>
      <point x="141" y="635"/>
    </contour>
    <contour>
      <point x="306" y="635" type="curve" smooth="yes"/>
      <point x="320" y="635"/>
      <point x="334" y="643"/>
      <point x="334" y="661" type="curve" smooth="yes"/>
      <point x="334" y="679"/>
      <point x="320" y="688"/>
      <point x="306" y="688" type="curve" smooth="yes"/>
      <point x="290" y="688"/>
      <point x="278" y="680"/>
      <point x="278" y="661" type="curve" smooth="yes"/>
      <point x="278" y="643"/>
      <point x="290" y="635"/>
    </contour>
    <contour>
      <point x="77" y="0" type="line"/>
      <point x="396" y="0" type="line"/>
      <point x="396" y="33" type="line"/>
      <point x="111" y="33" type="line"/>
      <point x="111" y="277" type="line"/>
      <point x="361" y="277" type="line"/>
      <point x="361" y="309" type="line"/>
      <point x="111" y="309" type="line"/>
      <point x="111" y="545" type="line"/>
      <point x="389" y="545" type="line"/>
      <point x="389" y="577" type="line"/>
      <point x="77" y="577" type="line"/>
    </contour>
  </outline>
</glyph>
<glyph name="Einvertedbreve.sc" format="1">
  <advance width="436"/>
  <outline>
    <contour>
      <point x="113" y="643" type="curve"/>
      <point x="145" y="643" type="line"/>
      <point x="145" y="691"/>
      <point x="177" y="719"/>
      <point x="231" y="719" type="curve" smooth="yes"/>
      <point x="285" y="719"/>
      <point x="317" y="691"/>
      <point x="317" y="643" type="curve"/>
      <point x="349" y="643" type="line"/>
      <point x="349" y="708"/>
      <point x="304" y="748"/>
      <point x="231" y="748" type="curve" smooth="yes"/>
      <point x="157" y="748"/>
      <point x="113" y="708"/>
    </contour>
    <contour>
      <point x="77" y="0" type="line"/>
      <point x="396" y="0" type="line"/>
      <point x="396" y="33" type="line"/>
      <point x="111" y="33" type="line"/>
      <point x="111" y="277" type="line"/>
      <point x="361" y="277" type="line"/>
      <point x="361" y="309" type="line"/>
      <point x="111" y="309" type="line"/>
      <point x="111" y="545" type="line"/>
      <point x="389" y="545" type="line"/>
      <point x="389" y="577" type="line"/>
      <point x="77" y="577" type="line"/>
    </contour>
  </outline>
</glyph>
<glyph name="Emacron.sc" format="1">
  <advance width="436"/>
  <outline>
    <contour>
      <point x="77" y="0" type="line"/>
      <point x="396" y="0" type="line"/>
      <point x="396" y="33" type="line"/>
      <point x="111" y="33" type="line"/>
      <point x="111" y="277" type="line"/>
      <point x="361" y="277" type="line"/>
      <point x="361" y="309" type="line"/>
      <point x="111" y="309" type="line"/>
      <point x="111" y="545" type="line"/>
      <point x="389" y="545" type="line"/>
      <point x="389" y="577" type="line"/>
      <point x="77" y="577" type="line"/>
    </contour>
    <contour>
      <point x="131" y="656" type="line"/>
      <point x="316" y="656" type="line"/>
      <point x="316" y="687" type="line"/>
      <point x="131" y="687" type="line"/>
    </contour>
  </outline>
</glyph>
<glyph name="Eogonek.sc" format="1">
  <advance width="436"/>
  <outline>
    <contour>
      <point x="357" y="-172" type="curve" smooth="yes"/>
      <point x="371" y="-172"/>
      <point x="384" y="-168"/>
      <point x="396" y="-162" type="curve"/>
      <point x="396" y="-134" type="line"/>
      <point x="385" y="-139"/>
      <point x="373" y="-142"/>
      <point x="359" y="-142" type="curve" smooth="yes"/>
      <point x="332" y="-142"/>
      <point x="319" y="-130"/>
      <point x="319" y="-106" type="curve" smooth="yes"/>
      <point x="319" y="-68"/>
      <point x="349" y="-31"/>
      <point x="396" y="-14" type="curve"/>
      <point x="396" y="33" type="line"/>
      <point x="111" y="33" type="line"/>
      <point x="111" y="277" type="line"/>
      <point x="361" y="277" type="line"/>
      <point x="361" y="309" type="line"/>
      <point x="111" y="309" type="line"/>
      <point x="111" y="545" type="line"/>
      <point x="389" y="545" type="line"/>
      <point x="389" y="577" type="line"/>
      <point x="77" y="577" type="line"/>
      <point x="77" y="0" type="line"/>
      <point x="367" y="0" type="line"/>
      <point x="314" y="-30"/>
      <point x="287" y="-65"/>
      <point x="287" y="-107" type="curve" smooth="yes"/>
      <point x="287" y="-148"/>
      <point x="313" y="-172"/>
    </contour>
  </outline>
</glyph>
<glyph name="Gacute.sc" format="1">
  <advance width="479"/>
  <outline>
    <contour>
      <point x="308" y="-8" type="curve" smooth="yes"/>
      <point x="345" y="-8"/>
      <point x="376" y="-5"/>
      <point x="422" y="3" type="curve"/>
      <point x="422" y="293" type="line"/>
      <point x="389" y="293" type="line"/>
      <point x="389" y="31" type="line"/>
      <point x="356" y="27"/>
      <point x="324" y="25"/>
      <point x="307" y="25" type="curve" smooth="yes"/>
      <point x="152" y="25"/>
      <point x="84" y="105"/>
      <point x="84" y="288" type="curve" smooth="yes"/>
      <point x="84" y="478"/>
      <point x="147" y="551"/>
      <point x="312" y="551" type="curve" smooth="yes"/>
      <point x="345" y="551"/>
      <point x="384" y="547"/>
      <point x="424" y="539" type="curve"/>
      <point x="424" y="572" type="line"/>
      <point x="385" y="579"/>
      <point x="335" y="584"/>
      <point x="309" y="584" type="curve" smooth="yes"/>
      <point x="122" y="584"/>
      <point x="48" y="499"/>
      <point x="48" y="288" type="curve" smooth="yes"/>
      <point x="48" y="83"/>
      <point x="125" y="-6"/>
    </contour>
    <contour>
      <point x="300" y="613" type="line"/>
      <point x="373" y="714" type="line"/>
      <point x="336" y="714" type="line"/>
      <point x="269" y="615" type="line"/>
    </contour>
  </outline>
</glyph>
<glyph name="H.sc" format="1">
  <advance width="537"/>
  <outline>
    <contour>
      <point x="299" y="760" type="move" name="topUC"/>
    </contour>
    <contour>
      <point x="319" y="0" type="move" name="bottom"/>
    </contour>
    <contour>
      <point x="77" y="0" type="line"/>
      <point x="111" y="0" type="line"/>
      <point x="111" y="278" type="line"/>
      <point x="426" y="278" type="line"/>
      <point x="426" y="0" type="line"/>
      <point x="460" y="0" type="line"/>
      <point x="460" y="577" type="line"/>
      <point x="426" y="577" type="line"/>
      <point x="426" y="311" type="line"/>
      <point x="111" y="311" type="line"/>
      <point x="111" y="577" type="line"/>
      <point x="77" y="577" type="line"/>
    </contour>
  </outline>
</glyph>
<glyph name="Hcircumflex.sc" format="1">
  <advance width="537"/>
  <outline>
    <contour>
      <point x="77" y="0" type="line"/>
      <point x="111" y="0" type="line"/>
      <point x="111" y="278" type="line"/>
      <point x="426" y="278" type="line"/>
      <point x="426" y="0" type="line"/>
      <point x="460" y="0" type="line"/>
      <point x="460" y="577" type="line"/>
      <point x="426" y="577" type="line"/>
      <point x="426" y="311" type="line"/>
      <point x="111" y="311" type="line"/>
      <point x="111" y="577" type="line"/>
      <point x="77" y="577" type="line"/>
    </contour>
    <contour>
      <point x="153" y="637" type="line"/>
      <point x="259" y="693" type="line"/>
      <point x="364" y="637" type="line"/>
      <point x="364" y="673" type="line"/>
      <point x="259" y="729" type="line"/>
      <point x="153" y="673" type="line"/>
    </contour>
  </outline>
</glyph>
<glyph name="Hdotbelow.sc" format="1">
  <advance width="537"/>
  <outline>
    <contour>
      <point x="77" y="0" type="line"/>
      <point x="111" y="0" type="line"/>
      <point x="111" y="278" type="line"/>
      <point x="426" y="278" type="line"/>
      <point x="426" y="0" type="line"/>
      <point x="460" y="0" type="line"/>
      <point x="460" y="577" type="line"/>
      <point x="426" y="577" type="line"/>
      <point x="426" y="311" type="line"/>
      <point x="111" y="311" type="line"/>
      <point x="111" y="577" type="line"/>
      <point x="77" y="577" type="line"/>
    </contour>
    <contour>
      <point x="275" y="-128" type="curve" smooth="yes"/>
      <point x="293" y="-128"/>
      <point x="306" y="-120"/>
      <point x="306" y="-99" type="curve" smooth="yes"/>
      <point x="306" y="-78"/>
      <point x="293" y="-69"/>
      <point x="275" y="-69" type="curve" smooth="yes"/>
      <point x="256" y="-69"/>
      <point x="244" y="-77"/>
      <point x="244" y="-99" type="curve" smooth="yes"/>
      <point x="244" y="-120"/>
      <point x="256" y="-128"/>
    </contour>
  </outline>
</glyph>
<glyph name="Iacute.sc" format="1">
  <advance width="188"/>
  <outline>
    <contour>
      <point x="77" y="0" type="line"/>
      <point x="111" y="0" type="line"/>
      <point x="111" y="577" type="line"/>
      <point x="77" y="577" type="line"/>
    </contour>
    <contour>
      <point x="109" y="613" type="line"/>
      <point x="182" y="714" type="line"/>
      <point x="145" y="714" type="line"/>
      <point x="78" y="615" type="line"/>
    </contour>
  </outline>
</glyph>
<glyph name="Ibreve.sc" format="1">
  <advance width="188"/>
  <outline>
    <contour>
      <point x="77" y="0" type="line"/>
      <point x="111" y="0" type="line"/>
      <point x="111" y="577" type="line"/>
      <point x="77" y="577" type="line"/>
    </contour>
    <contour>
      <point x="98" y="635" type="curve" smooth="yes"/>
      <point x="171" y="635"/>
      <point x="215" y="675"/>
      <point x="215" y="741" type="curve"/>
      <point x="183" y="741" type="line"/>
      <point x="183" y="692"/>
      <point x="151" y="664"/>
      <point x="98" y="664" type="curve" smooth="yes"/>
      <point x="44" y="664"/>
      <point x="12" y="692"/>
      <point x="12" y="741" type="curve"/>
      <point x="-20" y="741" type="line"/>
      <point x="-20" y="675"/>
      <point x="24" y="635"/>
    </contour>
  </outline>
</glyph>
<glyph name="Idblgrave.sc" format="1">
  <advance width="188"/>
  <outline>
    <contour>
      <point x="77" y="0" type="line"/>
      <point x="111" y="0" type="line"/>
      <point x="111" y="577" type="line"/>
      <point x="77" y="577" type="line"/>
    </contour>
    <contour>
      <point x="58" y="623" type="line"/>
      <point x="-9" y="714" type="line"/>
      <point x="-45" y="714" type="line"/>
      <point x="29" y="612" type="line"/>
    </contour>
    <contour>
      <point x="168" y="623" type="line"/>
      <point x="101" y="714" type="line"/>
      <point x="65" y="714" type="line"/>
      <point x="139" y="612" type="line"/>
    </contour>
  </outline>
</glyph>
<glyph name="Idieresis.sc" format="1">
  <advance width="188"/>
  <outline>
    <contour>
      <point x="77" y="0" type="line"/>
      <point x="111" y="0" type="line"/>
      <point x="111" y="577" type="line"/>
      <point x="77" y="577" type="line"/>
    </contour>
    <contour>
      <point x="22" y="635" type="curve" smooth="yes"/>
      <point x="38" y="635"/>
      <point x="50" y="643"/>
      <point x="50" y="661" type="curve" smooth="yes"/>
      <point x="50" y="679"/>
      <point x="38" y="688"/>
      <point x="22" y="688" type="curve" smooth="yes"/>
      <point x="7" y="688"/>
      <point x="-5" y="680"/>
      <point x="-5" y="661" type="curve" smooth="yes"/>
      <point x="-5" y="643"/>
      <point x="7" y="635"/>
    </contour>
    <contour>
      <point x="171" y="635" type="curve" smooth="yes"/>
      <point x="186" y="635"/>
      <point x="199" y="643"/>
      <point x="199" y="661" type="curve" smooth="yes"/>
      <point x="199" y="679"/>
      <point x="186" y="688"/>
      <point x="171" y="688" type="curve" smooth="yes"/>
      <point x="156" y="688"/>
      <point x="143" y="680"/>
      <point x="143" y="661" type="curve" smooth="yes"/>
      <point x="143" y="643"/>
      <point x="156" y="635"/>
    </contour>
  </outline>
</glyph>
<glyph name="Idotaccent.sc" format="1">
  <advance width="188"/>
  <outline>
    <contour>
      <point x="77" y="0" type="line"/>
      <point x="111" y="0" type="line"/>
      <point x="111" y="577" type="line"/>
      <point x="77" y="577" type="line"/>
    </contour>
    <contour>
      <point x="96" y="624" type="curve" smooth="yes"/>
      <point x="112" y="624"/>
      <point x="124" y="632"/>
      <point x="124" y="651" type="curve" smooth="yes"/>
      <point x="124" y="669"/>
      <point x="112" y="677"/>
      <point x="96" y="677" type="curve" smooth="yes"/>
      <point x="81" y="677"/>
      <point x="69" y="669"/>
      <point x="69" y="651" type="curve" smooth="yes"/>
      <point x="69" y="632"/>
      <point x="81" y="624"/>
    </contour>
  </outline>
</glyph>
<glyph name="Idotbelow.sc" format="1">
  <advance width="188"/>
  <outline>
    <contour>
      <point x="77" y="0" type="line"/>
      <point x="111" y="0" type="line"/>
      <point x="111" y="577" type="line"/>
      <point x="77" y="577" type="line"/>
    </contour>
    <contour>
      <point x="96" y="-128" type="curve" smooth="yes"/>
      <point x="114" y="-128"/>
      <point x="128" y="-120"/>
      <point x="128" y="-99" type="curve" smooth="yes"/>
      <point x="128" y="-78"/>
      <point x="114" y="-69"/>
      <point x="96" y="-69" type="curve" smooth="yes"/>
      <point x="77" y="-69"/>
      <point x="65" y="-77"/>
      <point x="65" y="-99" type="curve" smooth="yes"/>
      <point x="65" y="-120"/>
      <point x="77" y="-128"/>
    </contour>
  </outline>
</glyph>
<glyph name="Iinvertedbreve.sc" format="1">
  <advance width="188"/>
  <outline>
    <contour>
      <point x="77" y="0" type="line"/>
      <point x="111" y="0" type="line"/>
      <point x="111" y="577" type="line"/>
      <point x="77" y="577" type="line"/>
    </contour>
    <contour>
      <point x="214" y="643" type="line"/>
      <point x="214" y="708"/>
      <point x="170" y="748"/>
      <point x="97" y="748" type="curve" smooth="yes"/>
      <point x="23" y="748"/>
      <point x="-21" y="708"/>
      <point x="-21" y="643" type="curve"/>
      <point x="11" y="643" type="line"/>
      <point x="11" y="691"/>
      <point x="43" y="719"/>
      <point x="97" y="719" type="curve" smooth="yes"/>
      <point x="150" y="719"/>
      <point x="182" y="691"/>
      <point x="182" y="643" type="curve"/>
    </contour>
  </outline>
</glyph>
<glyph name="Iogonek.sc" format="1">
  <advance width="188"/>
  <outline>
    <contour>
      <point x="77" y="0" type="line"/>
      <point x="82" y="0" type="line"/>
      <point x="29" y="-30"/>
      <point x="2" y="-65"/>
      <point x="2" y="-107" type="curve" smooth="yes"/>
      <point x="2" y="-148"/>
      <point x="28" y="-172"/>
      <point x="72" y="-172" type="curve" smooth="yes"/>
      <point x="86" y="-172"/>
      <point x="99" y="-168"/>
      <point x="111" y="-162" type="curve"/>
      <point x="111" y="-134" type="line"/>
      <point x="100" y="-139"/>
      <point x="88" y="-142"/>
      <point x="74" y="-142" type="curve" smooth="yes"/>
      <point x="47" y="-142"/>
      <point x="34" y="-130"/>
      <point x="34" y="-106" type="curve" smooth="yes"/>
      <point x="34" y="-68"/>
      <point x="64" y="-31"/>
      <point x="111" y="-14" type="curve"/>
      <point x="111" y="577" type="line"/>
      <point x="77" y="577" type="line"/>
    </contour>
  </outline>
</glyph>
<glyph name="Jcircumflex.sc" format="1">
  <advance width="188"/>
  <outline>
    <contour>
      <point x="31" y="-138" type="line"/>
      <point x="88" y="-41"/>
      <point x="113" y="43"/>
      <point x="113" y="140" type="curve" smooth="yes"/>
      <point x="113" y="577" type="line"/>
      <point x="79" y="577" type="line"/>
      <point x="79" y="141" type="line" smooth="yes"/>
      <point x="79" y="39"/>
      <point x="65" y="-11"/>
      <point x="8" y="-124" type="curve"/>
    </contour>
    <contour>
      <point x="-13" y="637" type="line"/>
      <point x="93" y="693" type="line"/>
      <point x="198" y="637" type="line"/>
      <point x="198" y="673" type="line"/>
      <point x="93" y="729" type="line"/>
      <point x="-13" y="673" type="line"/>
    </contour>
  </outline>
</glyph>
<glyph name="K.sc" format="1">
  <advance width="477"/>
  <outline>
    <contour>
      <point x="277" y="0" type="move" name="bottom"/>
    </contour>
    <contour>
      <point x="77" y="0" type="line"/>
      <point x="111" y="0" type="line"/>
      <point x="111" y="277" type="line"/>
      <point x="196" y="277" type="line"/>
      <point x="426" y="0" type="line"/>
      <point x="466" y="0" type="line"/>
      <point x="240" y="275" type="line"/>
      <point x="217" y="293" type="line"/>
      <point x="217" y="296" type="line"/>
      <point x="239" y="316" type="line"/>
      <point x="450" y="577" type="line"/>
      <point x="407" y="577" type="line"/>
      <point x="190" y="310" type="line"/>
      <point x="111" y="310" type="line"/>
      <point x="111" y="577" type="line"/>
      <point x="77" y="577" type="line"/>
    </contour>
  </outline>
</glyph>
<glyph name="L.sc" format="1">
  <advance width="349"/>
  <outline>
    <contour>
      <point x="125" y="760" type="move" name="topUC"/>
    </contour>
    <contour>
      <point x="295" y="370" type="move" name="periodcentered"/>
    </contour>
    <contour>
      <point x="343" y="740" type="move" name="caronalt"/>
    </contour>
    <contour>
      <point x="239" y="0" type="move" name="bottom"/>
    </contour>
    <contour>
      <point x="77" y="0" type="line"/>
      <point x="335" y="0" type="line"/>
      <point x="335" y="33" type="line"/>
      <point x="111" y="33" type="line"/>
      <point x="111" y="577" type="line"/>
      <point x="77" y="577" type="line"/>
    </contour>
  </outline>
</glyph>
<glyph name="Lcaron.sc" format="1">
  <advance width="353"/>
  <outline>
    <contour>
      <point x="77" y="0" type="line"/>
      <point x="335" y="0" type="line"/>
      <point x="335" y="33" type="line"/>
      <point x="111" y="33" type="line"/>
      <point x="111" y="577" type="line"/>
      <point x="77" y="577" type="line"/>
    </contour>
    <contour>
      <point x="269" y="403" type="line"/>
      <point x="284" y="403" type="line"/>
      <point x="302" y="580" type="line"/>
      <point x="269" y="580" type="line"/>
    </contour>
  </outline>
</glyph>
<glyph name="Ldot.sc" format="1">
  <advance width="350"/>
  <outline>
    <contour>
      <point x="77" y="0" type="line"/>
      <point x="335" y="0" type="line"/>
      <point x="335" y="33" type="line"/>
      <point x="111" y="33" type="line"/>
      <point x="111" y="577" type="line"/>
      <point x="77" y="577" type="line"/>
    </contour>
    <contour>
      <point x="260" y="262" type="curve" smooth="yes"/>
      <point x="275" y="262"/>
      <point x="288" y="270"/>
      <point x="288" y="289" type="curve" smooth="yes"/>
      <point x="288" y="307"/>
      <point x="275" y="315"/>
      <point x="260" y="315" type="curve" smooth="yes"/>
      <point x="244" y="315"/>
      <point x="233" y="307"/>
      <point x="233" y="289" type="curve" smooth="yes"/>
      <point x="233" y="270"/>
      <point x="244" y="262"/>
    </contour>
  </outline>
</glyph>
<glyph name="N.sc" format="1">
  <advance width="568"/>
  <outline>
    <contour>
      <point x="338" y="760" type="move" name="topUC"/>
    </contour>
    <contour>
      <point x="353" y="0" type="move" name="bottom"/>
    </contour>
    <contour>
      <point x="77" y="0" type="line"/>
      <point x="110" y="0" type="line"/>
      <point x="110" y="517" type="line"/>
      <point x="114" y="517" type="line"/>
      <point x="156" y="448" type="line"/>
      <point x="453" y="0" type="line"/>
      <point x="491" y="0" type="line"/>
      <point x="491" y="577" type="line"/>
      <point x="458" y="577" type="line"/>
      <point x="458" y="60" type="line"/>
      <point x="454" y="59" type="line"/>
      <point x="414" y="126" type="line"/>
      <point x="115" y="577" type="line"/>
      <point x="77" y="577" type="line"/>
    </contour>
  </outline>
</glyph>
<glyph name="Nacute.sc" format="1">
  <advance width="568"/>
  <outline>
    <contour>
      <point x="77" y="0" type="line"/>
      <point x="110" y="0" type="line"/>
      <point x="110" y="517" type="line"/>
      <point x="114" y="517" type="line"/>
      <point x="156" y="448" type="line"/>
      <point x="453" y="0" type="line"/>
      <point x="491" y="0" type="line"/>
      <point x="491" y="577" type="line"/>
      <point x="458" y="577" type="line"/>
      <point x="458" y="60" type="line"/>
      <point x="454" y="59" type="line"/>
      <point x="414" y="126" type="line"/>
      <point x="115" y="577" type="line"/>
      <point x="77" y="577" type="line"/>
    </contour>
    <contour>
      <point x="302" y="613" type="line"/>
      <point x="375" y="714" type="line"/>
      <point x="338" y="714" type="line"/>
      <point x="271" y="615" type="line"/>
    </contour>
  </outline>
</glyph>
<glyph name="Obreve.sc" format="1">
  <advance width="521"/>
  <outline>
    <contour>
      <point x="261" y="-8" type="curve" smooth="yes"/>
      <point x="402" y="-8"/>
      <point x="473" y="91"/>
      <point x="473" y="288" type="curve" smooth="yes"/>
      <point x="473" y="487"/>
      <point x="402" y="585"/>
      <point x="261" y="585" type="curve" smooth="yes"/>
      <point x="118" y="585"/>
      <point x="48" y="487"/>
      <point x="48" y="288" type="curve" smooth="yes"/>
      <point x="48" y="90"/>
      <point x="118" y="-8"/>
    </contour>
    <contour>
      <point x="261" y="25" type="curve" smooth="yes"/>
      <point x="137" y="25"/>
      <point x="82" y="105"/>
      <point x="82" y="288" type="curve" smooth="yes"/>
      <point x="82" y="471"/>
      <point x="138" y="552"/>
      <point x="261" y="552" type="curve" smooth="yes"/>
      <point x="381" y="552"/>
      <point x="439" y="467"/>
      <point x="439" y="288" type="curve" smooth="yes"/>
      <point x="439" y="107"/>
      <point x="383" y="25"/>
    </contour>
    <contour>
      <point x="262" y="635" type="curve" smooth="yes"/>
      <point x="336" y="635"/>
      <point x="380" y="675"/>
      <point x="380" y="741" type="curve"/>
      <point x="348" y="741" type="line"/>
      <point x="348" y="692"/>
      <point x="316" y="664"/>
      <point x="262" y="664" type="curve" smooth="yes"/>
      <point x="208" y="664"/>
      <point x="176" y="692"/>
      <point x="176" y="741" type="curve"/>
      <point x="145" y="741" type="line"/>
      <point x="145" y="675"/>
      <point x="189" y="635"/>
    </contour>
  </outline>
</glyph>
<glyph name="Oogonek.sc" format="1">
  <advance width="521"/>
  <outline>
    <contour>
      <point x="247" y="-170" type="curve" smooth="yes"/>
      <point x="261" y="-170"/>
      <point x="275" y="-167"/>
      <point x="287" y="-161" type="curve"/>
      <point x="287" y="-133" type="line"/>
      <point x="275" y="-138"/>
      <point x="263" y="-141"/>
      <point x="250" y="-141" type="curve" smooth="yes"/>
      <point x="223" y="-141"/>
      <point x="209" y="-129"/>
      <point x="209" y="-105" type="curve" smooth="yes"/>
      <point x="209" y="-67"/>
      <point x="239" y="-30"/>
      <point x="287" y="-7" type="curve"/>
      <point x="410" y="5"/>
      <point x="473" y="103"/>
      <point x="473" y="288" type="curve" smooth="yes"/>
      <point x="473" y="487"/>
      <point x="402" y="585"/>
      <point x="261" y="585" type="curve" smooth="yes"/>
      <point x="118" y="585"/>
      <point x="48" y="487"/>
      <point x="48" y="288" type="curve" smooth="yes"/>
      <point x="48" y="98"/>
      <point x="112" y="0"/>
      <point x="243" y="-7" type="curve"/>
      <point x="200" y="-35"/>
      <point x="178" y="-68"/>
      <point x="178" y="-106" type="curve" smooth="yes"/>
      <point x="178" y="-147"/>
      <point x="203" y="-170"/>
    </contour>
    <contour>
      <point x="261" y="25" type="curve" smooth="yes"/>
      <point x="137" y="25"/>
      <point x="82" y="105"/>
      <point x="82" y="288" type="curve" smooth="yes"/>
      <point x="82" y="471"/>
      <point x="138" y="552"/>
      <point x="261" y="552" type="curve" smooth="yes"/>
      <point x="381" y="552"/>
      <point x="439" y="467"/>
      <point x="439" y="288" type="curve" smooth="yes"/>
      <point x="439" y="107"/>
      <point x="383" y="25"/>
    </contour>
  </outline>
</glyph>
<glyph name="Otilde.sc" format="1">
  <advance width="521"/>
  <outline>
    <contour>
      <point x="261" y="-8" type="curve" smooth="yes"/>
      <point x="402" y="-8"/>
      <point x="473" y="91"/>
      <point x="473" y="288" type="curve" smooth="yes"/>
      <point x="473" y="487"/>
      <point x="402" y="585"/>
      <point x="261" y="585" type="curve" smooth="yes"/>
      <point x="118" y="585"/>
      <point x="48" y="487"/>
      <point x="48" y="288" type="curve" smooth="yes"/>
      <point x="48" y="90"/>
      <point x="118" y="-8"/>
    </contour>
    <contour>
      <point x="261" y="25" type="curve" smooth="yes"/>
      <point x="137" y="25"/>
      <point x="82" y="105"/>
      <point x="82" y="288" type="curve" smooth="yes"/>
      <point x="82" y="471"/>
      <point x="138" y="552"/>
      <point x="261" y="552" type="curve" smooth="yes"/>
      <point x="381" y="552"/>
      <point x="439" y="467"/>
      <point x="439" y="288" type="curve" smooth="yes"/>
      <point x="439" y="107"/>
      <point x="383" y="25"/>
    </contour>
    <contour>
      <point x="158" y="644" type="line"/>
      <point x="171" y="661"/>
      <point x="192" y="675"/>
      <point x="211" y="675" type="curve" smooth="yes"/>
      <point x="248" y="675"/>
      <point x="272" y="641"/>
      <point x="315" y="641" type="curve" smooth="yes"/>
      <point x="342" y="641"/>
      <point x="373" y="660"/>
      <point x="386" y="687" type="curve"/>
      <point x="362" y="703" type="line"/>
      <point x="352" y="684"/>
      <point x="335" y="672"/>
      <point x="316" y="672" type="curve" smooth="yes"/>
      <point x="279" y="672"/>
      <point x="255" y="705"/>
      <point x="212" y="705" type="curve" smooth="yes"/>
      <point x="185" y="705"/>
      <point x="154" y="684"/>
      <point x="138" y="663" type="curve"/>
    </contour>
  </outline>
</glyph>
<glyph name="R.sc" format="1">
  <advance width="456"/>
  <outline>
    <contour>
      <point x="272" y="760" type="move" name="topUC"/>
    </contour>
    <contour>
      <point x="277" y="0" type="move" name="bottom"/>
    </contour>
    <contour>
      <point x="380" y="0" type="line"/>
      <point x="417" y="0" type="line"/>
      <point x="293" y="231" type="line"/>
      <point x="374" y="254"/>
      <point x="411" y="309"/>
      <point x="411" y="403" type="curve" smooth="yes"/>
      <point x="411" y="529"/>
      <point x="345" y="586"/>
      <point x="198" y="586" type="curve" smooth="yes"/>
      <point x="161" y="586"/>
      <point x="121" y="582"/>
      <point x="76" y="573" type="curve"/>
      <point x="76" y="0" type="line"/>
      <point x="110" y="0" type="line"/>
      <point x="110" y="222" type="line"/>
      <point x="137" y="220"/>
      <point x="162" y="219"/>
      <point x="187" y="219" type="curve" smooth="yes"/>
      <point x="214" y="219"/>
      <point x="239" y="220"/>
      <point x="261" y="224" type="curve"/>
    </contour>
    <contour>
      <point x="196" y="251" type="curve" smooth="yes"/>
      <point x="171" y="251"/>
      <point x="141" y="252"/>
      <point x="110" y="256" type="curve"/>
      <point x="110" y="546" type="line"/>
      <point x="148" y="551"/>
      <point x="179" y="554"/>
      <point x="204" y="554" type="curve" smooth="yes"/>
      <point x="323" y="554"/>
      <point x="377" y="507"/>
      <point x="377" y="403" type="curve" smooth="yes"/>
      <point x="377" y="297"/>
      <point x="321" y="251"/>
    </contour>
  </outline>
</glyph>
<glyph name="S.sc" format="1">
  <advance width="406"/>
  <outline>
    <contour>
      <point x="247" y="760" type="move" name="topUC"/>
    </contour>
    <contour>
      <point x="233" y="0" type="move" name="bottom"/>
    </contour>
    <contour>
      <point x="196" y="-11" type="curve" smooth="yes"/>
      <point x="303" y="-11"/>
      <point x="369" y="46"/>
      <point x="369" y="140" type="curve" smooth="yes"/>
      <point x="369" y="224"/>
      <point x="325" y="266"/>
      <point x="212" y="308" type="curve" smooth="yes"/>
      <point x="116" y="343"/>
      <point x="82" y="373"/>
      <point x="82" y="431" type="curve" smooth="yes"/>
      <point x="82" y="506"/>
      <point x="138" y="555"/>
      <point x="223" y="555" type="curve" smooth="yes"/>
      <point x="253" y="555"/>
      <point x="291" y="550"/>
      <point x="343" y="540" type="curve"/>
      <point x="349" y="572" type="line"/>
      <point x="301" y="582"/>
      <point x="261" y="587"/>
      <point x="222" y="587" type="curve" smooth="yes"/>
      <point x="118" y="587"/>
      <point x="48" y="525"/>
      <point x="48" y="431" type="curve" smooth="yes"/>
      <point x="48" y="357"/>
      <point x="88" y="318"/>
      <point x="195" y="278" type="curve" smooth="yes"/>
      <point x="292" y="241"/>
      <point x="335" y="204"/>
      <point x="335" y="140" type="curve" smooth="yes"/>
      <point x="335" y="65"/>
      <point x="284" y="22"/>
      <point x="195" y="22" type="curve" smooth="yes"/>
      <point x="147" y="22"/>
      <point x="76" y="34"/>
      <point x="43" y="47" type="curve"/>
      <point x="37" y="15" type="line"/>
      <point x="76" y="1"/>
      <point x="148" y="-11"/>
    </contour>
  </outline>
</glyph>
<glyph name="Schwa.sc" format="1">
  <advance width="479"/>
  <outline>
    <contour>
      <point x="43" y="235" type="curve" smooth="yes"/>
      <point x="43" y="78"/>
      <point x="105" y="-7"/>
      <point x="216" y="-7" type="curve" smooth="yes"/>
      <point x="355" y="-7"/>
      <point x="431" y="105"/>
      <point x="431" y="306" type="curve" smooth="yes"/>
      <point x="431" y="489"/>
      <point x="350" y="594"/>
      <point x="208" y="594" type="curve" smooth="yes"/>
      <point x="160" y="594"/>
      <point x="108" y="582"/>
      <point x="68" y="563" type="curve"/>
      <point x="72" y="530" type="line"/>
      <point x="119" y="550"/>
      <point x="168" y="561"/>
      <point x="207" y="561" type="curve" smooth="yes"/>
      <point x="323" y="561"/>
      <point x="391" y="474"/>
      <point x="396" y="308" type="curve"/>
      <point x="47" y="308" type="line"/>
      <point x="44" y="287"/>
      <point x="43" y="266"/>
    </contour>
    <contour>
      <point x="217" y="25" type="curve" smooth="yes"/>
      <point x="122" y="25"/>
      <point x="79" y="101"/>
      <point x="78" y="275" type="curve"/>
      <point x="396" y="275" type="line"/>
      <point x="391" y="117"/>
      <point x="321" y="25"/>
    </contour>
  </outline>
</glyph>
<glyph name="T.sc" format="1">
  <advance width="400"/>
  <outline>
    <contour>
      <point x="229" y="760" type="move" name="topUC"/>
    </contour>
    <contour>
      <point x="230" y="0" type="move" name="bottom"/>
    </contour>
    <contour>
      <point x="183" y="0" type="line"/>
      <point x="217" y="0" type="line"/>
      <point x="217" y="544" type="line"/>
      <point x="384" y="544" type="line"/>
      <point x="384" y="577" type="line"/>
      <point x="16" y="577" type="line"/>
      <point x="16" y="544" type="line"/>
      <point x="183" y="544" type="line"/>
    </contour>
  </outline>
</glyph>
<glyph name="Tbar.sc" format="1">
  <advance width="410"/>
  <outline>
    <contour>
      <point x="96" y="290" type="line"/>
      <point x="188" y="290" type="line"/>
      <point x="188" y="0" type="line"/>
      <point x="222" y="0" type="line"/>
      <point x="222" y="290" type="line"/>
      <point x="325" y="290" type="line"/>
      <point x="325" y="314" type="line"/>
      <point x="222" y="314" type="line"/>
      <point x="222" y="544" type="line"/>
      <point x="389" y="544" type="line"/>
      <point x="389" y="577" type="line"/>
      <point x="21" y="577" type="line"/>
      <point x="21" y="544" type="line"/>
      <point x="188" y="544" type="line"/>
      <point x="188" y="314" type="line"/>
      <point x="96" y="314" type="line"/>
    </contour>
  </outline>
</glyph>
<glyph name="Tcaron.sc" format="1">
  <advance width="400"/>
  <outline>
    <contour>
      <point x="183" y="0" type="line"/>
      <point x="217" y="0" type="line"/>
      <point x="217" y="544" type="line"/>
      <point x="384" y="544" type="line"/>
      <point x="384" y="577" type="line"/>
      <point x="16" y="577" type="line"/>
      <point x="16" y="544" type="line"/>
      <point x="183" y="544" type="line"/>
    </contour>
    <contour>
      <point x="99" y="680" type="line"/>
      <point x="205" y="623" type="line"/>
      <point x="311" y="680" type="line"/>
      <point x="311" y="715" type="line"/>
      <point x="205" y="659" type="line"/>
      <point x="99" y="715" type="line"/>
    </contour>
  </outline>
</glyph>
<glyph name="Thorn.sc" format="1">
  <advance width="450"/>
  <outline>
    <contour>
      <point x="77" y="0" type="line"/>
      <point x="111" y="0" type="line"/>
      <point x="111" y="98" type="line"/>
      <point x="139" y="95"/>
      <point x="164" y="94"/>
      <point x="188" y="94" type="curve" smooth="yes"/>
      <point x="343" y="94"/>
      <point x="412" y="154"/>
      <point x="412" y="290" type="curve" smooth="yes"/>
      <point x="412" y="425"/>
      <point x="345" y="486"/>
      <point x="199" y="486" type="curve" smooth="yes"/>
      <point x="171" y="486"/>
      <point x="143" y="483"/>
      <point x="111" y="478" type="curve"/>
      <point x="111" y="577" type="line"/>
      <point x="77" y="577" type="line"/>
    </contour>
    <contour>
      <point x="197" y="127" type="curve" smooth="yes"/>
      <point x="169" y="127"/>
      <point x="140" y="129"/>
      <point x="111" y="132" type="curve"/>
      <point x="111" y="445" type="line"/>
      <point x="146" y="450"/>
      <point x="178" y="453"/>
      <point x="205" y="453" type="curve" smooth="yes"/>
      <point x="323" y="453"/>
      <point x="378" y="402"/>
      <point x="378" y="290" type="curve" smooth="yes"/>
      <point x="378" y="177"/>
      <point x="321" y="127"/>
    </contour>
  </outline>
</glyph>
<glyph name="Uacute.sc" format="1">
  <advance width="547"/>
  <outline>
    <contour>
      <point x="274" y="-8" type="curve" smooth="yes"/>
      <point x="417" y="-8"/>
      <point x="476" y="63"/>
      <point x="476" y="227" type="curve" smooth="yes"/>
      <point x="476" y="577" type="line"/>
      <point x="442" y="577" type="line"/>
      <point x="442" y="227" type="line" smooth="yes"/>
      <point x="442" y="85"/>
      <point x="391" y="25"/>
      <point x="274" y="25" type="curve" smooth="yes"/>
      <point x="157" y="25"/>
      <point x="105" y="86"/>
      <point x="105" y="227" type="curve" smooth="yes"/>
      <point x="105" y="577" type="line"/>
      <point x="71" y="577" type="line"/>
      <point x="71" y="227" type="line" smooth="yes"/>
      <point x="71" y="63"/>
      <point x="131" y="-8"/>
    </contour>
    <contour>
      <point x="286" y="613" type="line"/>
      <point x="359" y="714" type="line"/>
      <point x="322" y="714" type="line"/>
      <point x="255" y="615" type="line"/>
    </contour>
  </outline>
</glyph>
<glyph name="Udieresis.sc" format="1">
  <advance width="547"/>
  <outline>
    <contour>
      <point x="274" y="-8" type="curve" smooth="yes"/>
      <point x="417" y="-8"/>
      <point x="476" y="63"/>
      <point x="476" y="227" type="curve" smooth="yes"/>
      <point x="476" y="577" type="line"/>
      <point x="442" y="577" type="line"/>
      <point x="442" y="227" type="line" smooth="yes"/>
      <point x="442" y="85"/>
      <point x="391" y="25"/>
      <point x="274" y="25" type="curve" smooth="yes"/>
      <point x="157" y="25"/>
      <point x="105" y="86"/>
      <point x="105" y="227" type="curve" smooth="yes"/>
      <point x="105" y="577" type="line"/>
      <point x="71" y="577" type="line"/>
      <point x="71" y="227" type="line" smooth="yes"/>
      <point x="71" y="63"/>
      <point x="131" y="-8"/>
    </contour>
    <contour>
      <point x="199" y="635" type="curve" smooth="yes"/>
      <point x="215" y="635"/>
      <point x="227" y="643"/>
      <point x="227" y="661" type="curve" smooth="yes"/>
      <point x="227" y="679"/>
      <point x="215" y="688"/>
      <point x="199" y="688" type="curve" smooth="yes"/>
      <point x="184" y="688"/>
      <point x="172" y="680"/>
      <point x="172" y="661" type="curve" smooth="yes"/>
      <point x="172" y="643"/>
      <point x="184" y="635"/>
    </contour>
    <contour>
      <point x="348" y="635" type="curve" smooth="yes"/>
      <point x="363" y="635"/>
      <point x="376" y="643"/>
      <point x="376" y="661" type="curve" smooth="yes"/>
      <point x="376" y="679"/>
      <point x="363" y="688"/>
      <point x="348" y="688" type="curve" smooth="yes"/>
      <point x="333" y="688"/>
      <point x="320" y="680"/>
      <point x="320" y="661" type="curve" smooth="yes"/>
      <point x="320" y="643"/>
      <point x="333" y="635"/>
    </contour>
  </outline>
</glyph>
<glyph name="Udotbelow.sc" format="1">
  <advance width="547"/>
  <outline>
    <contour>
      <point x="274" y="-8" type="curve" smooth="yes"/>
      <point x="417" y="-8"/>
      <point x="476" y="63"/>
      <point x="476" y="227" type="curve" smooth="yes"/>
      <point x="476" y="577" type="line"/>
      <point x="442" y="577" type="line"/>
      <point x="442" y="227" type="line" smooth="yes"/>
      <point x="442" y="85"/>
      <point x="391" y="25"/>
      <point x="274" y="25" type="curve" smooth="yes"/>
      <point x="157" y="25"/>
      <point x="105" y="86"/>
      <point x="105" y="227" type="curve" smooth="yes"/>
      <point x="105" y="577" type="line"/>
      <point x="71" y="577" type="line"/>
      <point x="71" y="227" type="line" smooth="yes"/>
      <point x="71" y="63"/>
      <point x="131" y="-8"/>
    </contour>
    <contour>
      <point x="274" y="-128" type="curve" smooth="yes"/>
      <point x="293" y="-128"/>
      <point x="306" y="-120"/>
      <point x="306" y="-99" type="curve" smooth="yes"/>
      <point x="306" y="-78"/>
      <point x="293" y="-69"/>
      <point x="274" y="-69" type="curve" smooth="yes"/>
      <point x="255" y="-69"/>
      <point x="243" y="-77"/>
      <point x="243" y="-99" type="curve" smooth="yes"/>
      <point x="243" y="-120"/>
      <point x="255" y="-128"/>
    </contour>
  </outline>
</glyph>
<glyph name="Uogonek.sc" format="1">
  <advance width="548"/>
  <outline>
    <contour>
      <point x="271" y="-163" type="curve" smooth="yes"/>
      <point x="284" y="-163"/>
      <point x="298" y="-160"/>
      <point x="310" y="-154" type="curve"/>
      <point x="310" y="-125" type="line"/>
      <point x="298" y="-131"/>
      <point x="286" y="-133"/>
      <point x="273" y="-133" type="curve" smooth="yes"/>
      <point x="246" y="-133"/>
      <point x="232" y="-122"/>
      <point x="232" y="-98" type="curve" smooth="yes"/>
      <point x="232" y="-59"/>
      <point x="261" y="-24"/>
      <point x="307" y="-7" type="curve"/>
      <point x="427" y="3"/>
      <point x="477" y="76"/>
      <point x="477" y="227" type="curve" smooth="yes"/>
      <point x="477" y="577" type="line"/>
      <point x="443" y="577" type="line"/>
      <point x="443" y="227" type="line" smooth="yes"/>
      <point x="443" y="85"/>
      <point x="392" y="25"/>
      <point x="275" y="25" type="curve" smooth="yes"/>
      <point x="158" y="25"/>
      <point x="106" y="86"/>
      <point x="106" y="227" type="curve" smooth="yes"/>
      <point x="106" y="577" type="line"/>
      <point x="72" y="577" type="line"/>
      <point x="72" y="227" type="line" smooth="yes"/>
      <point x="72" y="70"/>
      <point x="126" y="-1"/>
      <point x="256" y="-7" type="curve"/>
      <point x="219" y="-33"/>
      <point x="201" y="-64"/>
      <point x="201" y="-98" type="curve" smooth="yes"/>
      <point x="201" y="-140"/>
      <point x="226" y="-163"/>
    </contour>
  </outline>
</glyph>
<glyph name="Uring.sc" format="1">
  <advance width="547"/>
  <outline>
    <contour>
      <point x="274" y="-8" type="curve" smooth="yes"/>
      <point x="417" y="-8"/>
      <point x="476" y="63"/>
      <point x="476" y="227" type="curve" smooth="yes"/>
      <point x="476" y="577" type="line"/>
      <point x="442" y="577" type="line"/>
      <point x="442" y="227" type="line" smooth="yes"/>
      <point x="442" y="85"/>
      <point x="391" y="25"/>
      <point x="274" y="25" type="curve" smooth="yes"/>
      <point x="157" y="25"/>
      <point x="105" y="86"/>
      <point x="105" y="227" type="curve" smooth="yes"/>
      <point x="105" y="577" type="line"/>
      <point x="71" y="577" type="line"/>
      <point x="71" y="227" type="line" smooth="yes"/>
      <point x="71" y="63"/>
      <point x="131" y="-8"/>
    </contour>
    <contour>
      <point x="273" y="612" type="curve" smooth="yes"/>
      <point x="323" y="612"/>
      <point x="351" y="648"/>
      <point x="351" y="691" type="curve" smooth="yes"/>
      <point x="351" y="735"/>
      <point x="323" y="770"/>
      <point x="273" y="770" type="curve" smooth="yes"/>
      <point x="223" y="770"/>
      <point x="196" y="735"/>
      <point x="196" y="691" type="curve" smooth="yes"/>
      <point x="196" y="648"/>
      <point x="224" y="612"/>
    </contour>
    <contour>
      <point x="273" y="640" type="curve" smooth="yes"/>
      <point x="243" y="640"/>
      <point x="226" y="662"/>
      <point x="226" y="691" type="curve" smooth="yes"/>
      <point x="226" y="720"/>
      <point x="242" y="742"/>
      <point x="273" y="742" type="curve" smooth="yes"/>
      <point x="305" y="742"/>
      <point x="321" y="720"/>
      <point x="321" y="691" type="curve" smooth="yes"/>
      <point x="321" y="662"/>
      <point x="304" y="640"/>
    </contour>
  </outline>
</glyph>
<glyph name="Utilde.sc" format="1">
  <advance width="547"/>
  <outline>
    <contour>
      <point x="274" y="-8" type="curve" smooth="yes"/>
      <point x="417" y="-8"/>
      <point x="476" y="63"/>
      <point x="476" y="227" type="curve" smooth="yes"/>
      <point x="476" y="577" type="line"/>
      <point x="442" y="577" type="line"/>
      <point x="442" y="227" type="line" smooth="yes"/>
      <point x="442" y="85"/>
      <point x="391" y="25"/>
      <point x="274" y="25" type="curve" smooth="yes"/>
      <point x="157" y="25"/>
      <point x="105" y="86"/>
      <point x="105" y="227" type="curve" smooth="yes"/>
      <point x="105" y="577" type="line"/>
      <point x="71" y="577" type="line"/>
      <point x="71" y="227" type="line" smooth="yes"/>
      <point x="71" y="63"/>
      <point x="131" y="-8"/>
    </contour>
    <contour>
      <point x="171" y="644" type="line"/>
      <point x="184" y="661"/>
      <point x="204" y="675"/>
      <point x="224" y="675" type="curve" smooth="yes"/>
      <point x="261" y="675"/>
      <point x="285" y="641"/>
      <point x="327" y="641" type="curve" smooth="yes"/>
      <point x="355" y="641"/>
      <point x="386" y="660"/>
      <point x="399" y="687" type="curve"/>
      <point x="375" y="703" type="line"/>
      <point x="364" y="684"/>
      <point x="347" y="672"/>
      <point x="329" y="672" type="curve" smooth="yes"/>
      <point x="291" y="672"/>
      <point x="268" y="705"/>
      <point x="225" y="705" type="curve" smooth="yes"/>
      <point x="198" y="705"/>
      <point x="167" y="684"/>
      <point x="150" y="663" type="curve"/>
    </contour>
  </outline>
</glyph>
<glyph name="Wdieresis.sc" format="1">
  <advance width="742"/>
  <outline>
    <contour>
      <point x="177" y="0" type="line"/>
      <point x="222" y="0" type="line"/>
      <point x="350" y="441" type="line"/>
      <point x="372" y="526" type="line"/>
      <point x="375" y="526" type="line"/>
      <point x="395" y="441" type="line"/>
      <point x="513" y="0" type="line"/>
      <point x="559" y="0" type="line"/>
      <point x="724" y="577" type="line"/>
      <point x="689" y="577" type="line"/>
      <point x="568" y="152" type="line"/>
      <point x="539" y="43" type="line"/>
      <point x="535" y="43" type="line"/>
      <point x="508" y="152" type="line"/>
      <point x="395" y="577" type="line"/>
      <point x="354" y="577" type="line"/>
      <point x="232" y="152" type="line"/>
      <point x="203" y="43" type="line"/>
      <point x="199" y="43" type="line"/>
      <point x="172" y="152" type="line"/>
      <point x="61" y="577" type="line"/>
      <point x="24" y="577" type="line"/>
    </contour>
    <contour>
      <point x="299" y="635" type="curve" smooth="yes"/>
      <point x="315" y="635"/>
      <point x="327" y="643"/>
      <point x="327" y="661" type="curve" smooth="yes"/>
      <point x="327" y="679"/>
      <point x="315" y="688"/>
      <point x="299" y="688" type="curve" smooth="yes"/>
      <point x="284" y="688"/>
      <point x="272" y="680"/>
      <point x="272" y="661" type="curve" smooth="yes"/>
      <point x="272" y="643"/>
      <point x="284" y="635"/>
    </contour>
    <contour>
      <point x="448" y="635" type="curve" smooth="yes"/>
      <point x="463" y="635"/>
      <point x="476" y="643"/>
      <point x="476" y="661" type="curve" smooth="yes"/>
      <point x="476" y="679"/>
      <point x="463" y="688"/>
      <point x="448" y="688" type="curve" smooth="yes"/>
      <point x="433" y="688"/>
      <point x="420" y="680"/>
      <point x="420" y="661" type="curve" smooth="yes"/>
      <point x="420" y="643"/>
      <point x="433" y="635"/>
    </contour>
  </outline>
</glyph>
<glyph name="Ycircumflex.sc" format="1">
  <advance width="447"/>
  <outline>
    <contour>
      <point x="207" y="0" type="line"/>
      <point x="241" y="0" type="line"/>
      <point x="241" y="195" type="line"/>
      <point x="435" y="577" type="line"/>
      <point x="398" y="577" type="line"/>
      <point x="247" y="281" type="line"/>
      <point x="225" y="229" type="line"/>
      <point x="222" y="229" type="line"/>
      <point x="200" y="281" type="line"/>
      <point x="49" y="577" type="line"/>
      <point x="12" y="577" type="line"/>
      <point x="207" y="193" type="line"/>
    </contour>
    <contour>
      <point x="121" y="637" type="line"/>
      <point x="227" y="693" type="line"/>
      <point x="332" y="637" type="line"/>
      <point x="332" y="673" type="line"/>
      <point x="227" y="729" type="line"/>
      <point x="121" y="673" type="line"/>
    </contour>
  </outline>
</glyph>
<glyph name="Ydieresis.sc" format="1">
  <advance width="447"/>
  <outline>
    <contour>
      <point x="152" y="635" type="curve" smooth="yes"/>
      <point x="168" y="635"/>
      <point x="180" y="643"/>
      <point x="180" y="661" type="curve" smooth="yes"/>
      <point x="180" y="679"/>
      <point x="168" y="688"/>
      <point x="152" y="688" type="curve" smooth="yes"/>
      <point x="137" y="688"/>
      <point x="125" y="680"/>
      <point x="125" y="661" type="curve" smooth="yes"/>
      <point x="125" y="643"/>
      <point x="137" y="635"/>
    </contour>
    <contour>
      <point x="301" y="635" type="curve" smooth="yes"/>
      <point x="316" y="635"/>
      <point x="329" y="643"/>
      <point x="329" y="661" type="curve" smooth="yes"/>
      <point x="329" y="679"/>
      <point x="316" y="688"/>
      <point x="301" y="688" type="curve" smooth="yes"/>
      <point x="286" y="688"/>
      <point x="273" y="680"/>
      <point x="273" y="661" type="curve" smooth="yes"/>
      <point x="273" y="643"/>
      <point x="286" y="635"/>
    </contour>
    <contour>
      <point x="207" y="0" type="line"/>
      <point x="241" y="0" type="line"/>
      <point x="241" y="195" type="line"/>
      <point x="435" y="577" type="line"/>
      <point x="398" y="577" type="line"/>
      <point x="247" y="281" type="line"/>
      <point x="225" y="229" type="line"/>
      <point x="222" y="229" type="line"/>
      <point x="200" y="281" type="line"/>
      <point x="49" y="577" type="line"/>
      <point x="12" y="577" type="line"/>
      <point x="207" y="193" type="line"/>
    </contour>
  </outline>
</glyph>
<glyph name="Ygrave.sc" format="1">
  <advance width="447"/>
  <outline>
    <contour>
      <point x="207" y="0" type="line"/>
      <point x="241" y="0" type="line"/>
      <point x="241" y="195" type="line"/>
      <point x="435" y="577" type="line"/>
      <point x="398" y="577" type="line"/>
      <point x="247" y="281" type="line"/>
      <point x="225" y="229" type="line"/>
      <point x="222" y="229" type="line"/>
      <point x="200" y="281" type="line"/>
      <point x="49" y="577" type="line"/>
      <point x="12" y="577" type="line"/>
      <point x="207" y="193" type="line"/>
    </contour>
    <contour>
      <point x="208" y="613" type="line"/>
      <point x="239" y="623" type="line"/>
      <point x="172" y="714" type="line"/>
      <point x="135" y="714" type="line"/>
    </contour>
  </outline>
</glyph>
<glyph name="Ytilde.sc" format="1">
  <advance width="447"/>
  <outline>
    <contour>
      <point x="207" y="0" type="line"/>
      <point x="241" y="0" type="line"/>
      <point x="241" y="195" type="line"/>
      <point x="435" y="577" type="line"/>
      <point x="398" y="577" type="line"/>
      <point x="247" y="281" type="line"/>
      <point x="225" y="229" type="line"/>
      <point x="222" y="229" type="line"/>
      <point x="200" y="281" type="line"/>
      <point x="49" y="577" type="line"/>
      <point x="12" y="577" type="line"/>
      <point x="207" y="193" type="line"/>
    </contour>
    <contour>
      <point x="124" y="644" type="line"/>
      <point x="137" y="661"/>
      <point x="157" y="675"/>
      <point x="177" y="675" type="curve" smooth="yes"/>
      <point x="214" y="675"/>
      <point x="238" y="641"/>
      <point x="281" y="641" type="curve" smooth="yes"/>
      <point x="308" y="641"/>
      <point x="339" y="660"/>
      <point x="352" y="687" type="curve"/>
      <point x="328" y="703" type="line"/>
      <point x="318" y="684"/>
      <point x="301" y="672"/>
      <point x="282" y="672" type="curve" smooth="yes"/>
      <point x="245" y="672"/>
      <point x="221" y="705"/>
      <point x="178" y="705" type="curve" smooth="yes"/>
      <point x="151" y="705"/>
      <point x="120" y="684"/>
      <point x="103" y="663" type="curve"/>
    </contour>
  </outline>
</glyph>
<glyph name="Zacute.sc" format="1">
  <advance width="402"/>
  <outline>
    <contour>
      <point x="33" y="0" type="line"/>
      <point x="370" y="0" type="line"/>
      <point x="370" y="32" type="line"/>
      <point x="77" y="32" type="line"/>
      <point x="77" y="35" type="line"/>
      <point x="366" y="553" type="line"/>
      <point x="366" y="577" type="line"/>
      <point x="37" y="577" type="line"/>
      <point x="37" y="544" type="line"/>
      <point x="321" y="544" type="line"/>
      <point x="321" y="541" type="line"/>
      <point x="33" y="25" type="line"/>
    </contour>
    <contour>
      <point x="220" y="613" type="line"/>
      <point x="293" y="714" type="line"/>
      <point x="256" y="714" type="line"/>
      <point x="189" y="615" type="line"/>
    </contour>
  </outline>
</glyph>
<glyph name="Zdotaccent.sc" format="1">
  <advance width="402"/>
  <outline>
    <contour>
      <point x="33" y="0" type="line"/>
      <point x="370" y="0" type="line"/>
      <point x="370" y="32" type="line"/>
      <point x="77" y="32" type="line"/>
      <point x="77" y="35" type="line"/>
      <point x="366" y="553" type="line"/>
      <point x="366" y="577" type="line"/>
      <point x="37" y="577" type="line"/>
      <point x="37" y="544" type="line"/>
      <point x="321" y="544" type="line"/>
      <point x="321" y="541" type="line"/>
      <point x="33" y="25" type="line"/>
    </contour>
    <contour>
      <point x="207" y="624" type="curve" smooth="yes"/>
      <point x="223" y="624"/>
      <point x="236" y="632"/>
      <point x="236" y="651" type="curve" smooth="yes"/>
      <point x="236" y="669"/>
      <point x="223" y="677"/>
      <point x="207" y="677" type="curve" smooth="yes"/>
      <point x="192" y="677"/>
      <point x="180" y="669"/>
      <point x="180" y="651" type="curve" smooth="yes"/>
      <point x="180" y="632"/>
      <point x="192" y="624"/>
    </contour>
  </outline>
</glyph>
<glyph name="Zdotbelow.sc" format="1">
  <advance width="402"/>
  <outline>
    <contour>
      <point x="33" y="0" type="line"/>
      <point x="370" y="0" type="line"/>
      <point x="370" y="32" type="line"/>
      <point x="77" y="32" type="line"/>
      <point x="77" y="35" type="line"/>
      <point x="366" y="553" type="line"/>
      <point x="366" y="577" type="line"/>
      <point x="37" y="577" type="line"/>
      <point x="37" y="544" type="line"/>
      <point x="321" y="544" type="line"/>
      <point x="321" y="541" type="line"/>
      <point x="33" y="25" type="line"/>
    </contour>
    <contour>
      <point x="201" y="-128" type="curve" smooth="yes"/>
      <point x="220" y="-128"/>
      <point x="233" y="-120"/>
      <point x="233" y="-99" type="curve" smooth="yes"/>
      <point x="233" y="-78"/>
      <point x="220" y="-69"/>
      <point x="201" y="-69" type="curve" smooth="yes"/>
      <point x="182" y="-69"/>
      <point x="170" y="-77"/>
      <point x="170" y="-99" type="curve" smooth="yes"/>
      <point x="170" y="-120"/>
      <point x="182" y="-128"/>
    </contour>
  </outline>
</glyph>
<glyph name=".notdef" format="1">
  <advance width="604"/>
  <outline>
    <contour>
      <point x="96" y="-220" type="line"/>
      <point x="507" y="-220" type="line"/>
      <point x="507" y="1030" type="line"/>
      <point x="96" y="1030" type="line"/>
    </contour>
    <contour>
      <point x="134" y="-182" type="line"/>
      <point x="134" y="993" type="line"/>
      <point x="469" y="993" type="line"/>
      <point x="469" y="-182" type="line"/>
    </contour>
  </outline>
</glyph>
<glyph name="ampersand.sc" format="1">
  <advance width="509"/>
  <outline>
    <contour>
      <point x="228" y="-9" type="curve" smooth="yes"/>
      <point x="322" y="-9"/>
      <point x="384" y="29"/>
      <point x="415" y="109" type="curve"/>
      <point x="465" y="78" type="line"/>
      <point x="470" y="78" type="line"/>
      <point x="484" y="102" type="line"/>
      <point x="484" y="106" type="line"/>
      <point x="426" y="142" type="line"/>
      <point x="435" y="177"/>
      <point x="440" y="219"/>
      <point x="440" y="267" type="curve" smooth="yes"/>
      <point x="440" y="318" type="line"/>
      <point x="407" y="318" type="line"/>
      <point x="407" y="267" type="line" smooth="yes"/>
      <point x="407" y="226"/>
      <point x="403" y="191"/>
      <point x="396" y="160" type="curve"/>
      <point x="300" y="219" type="line" smooth="yes"/>
      <point x="175" y="296"/>
      <point x="141" y="348"/>
      <point x="141" y="434" type="curve" smooth="yes"/>
      <point x="141" y="514"/>
      <point x="180" y="555"/>
      <point x="257" y="555" type="curve" smooth="yes"/>
      <point x="289" y="555"/>
      <point x="321" y="547"/>
      <point x="365" y="528" type="curve"/>
      <point x="369" y="528" type="line"/>
      <point x="378" y="553" type="line"/>
      <point x="378" y="557" type="line"/>
      <point x="330" y="578"/>
      <point x="292" y="587"/>
      <point x="257" y="587" type="curve" smooth="yes"/>
      <point x="159" y="587"/>
      <point x="107" y="535"/>
      <point x="107" y="435" type="curve" smooth="yes"/>
      <point x="107" y="386"/>
      <point x="116" y="348"/>
      <point x="140" y="313" type="curve"/>
      <point x="78" y="284"/>
      <point x="47" y="232"/>
      <point x="47" y="161" type="curve" smooth="yes"/>
      <point x="47" y="55"/>
      <point x="115" y="-9"/>
    </contour>
    <contour>
      <point x="229" y="23" type="curve" smooth="yes"/>
      <point x="137" y="23"/>
      <point x="81" y="76"/>
      <point x="81" y="161" type="curve" smooth="yes"/>
      <point x="81" y="220"/>
      <point x="106" y="262"/>
      <point x="159" y="288" type="curve"/>
      <point x="186" y="257"/>
      <point x="226" y="228"/>
      <point x="281" y="193" type="curve" smooth="yes"/>
      <point x="386" y="127" type="line"/>
      <point x="360" y="57"/>
      <point x="308" y="23"/>
    </contour>
  </outline>
</glyph>
<glyph name="braceright.sc" format="1">
  <advance width="315"/>
  <outline>
    <contour>
      <point x="281" y="294" type="line"/>
      <point x="238" y="294"/>
      <point x="212" y="326"/>
      <point x="212" y="380" type="curve" smooth="yes"/>
      <point x="212" y="595" type="line" smooth="yes"/>
      <point x="212" y="659"/>
      <point x="193" y="677"/>
      <point x="124" y="677" type="curve" smooth="yes"/>
      <point x="101" y="677"/>
      <point x="48" y="675"/>
      <point x="40" y="673" type="curve"/>
      <point x="40" y="646" type="line"/>
      <point x="130" y="646" type="line" smooth="yes"/>
      <point x="168" y="646"/>
      <point x="179" y="636"/>
      <point x="179" y="603" type="curve" smooth="yes"/>
      <point x="179" y="375" type="line" smooth="yes"/>
      <point x="179" y="329"/>
      <point x="198" y="293"/>
      <point x="226" y="280" type="curve"/>
      <point x="198" y="268"/>
      <point x="179" y="231"/>
      <point x="179" y="186" type="curve" smooth="yes"/>
      <point x="179" y="-42" type="line" smooth="yes"/>
      <point x="179" y="-76"/>
      <point x="168" y="-86"/>
      <point x="130" y="-86" type="curve" smooth="yes"/>
      <point x="40" y="-86" type="line"/>
      <point x="40" y="-113" type="line"/>
      <point x="48" y="-114"/>
      <point x="101" y="-116"/>
      <point x="124" y="-116" type="curve" smooth="yes"/>
      <point x="193" y="-116"/>
      <point x="212" y="-98"/>
      <point x="212" y="-35" type="curve" smooth="yes"/>
      <point x="212" y="180" type="line" smooth="yes"/>
      <point x="212" y="235"/>
      <point x="238" y="267"/>
      <point x="281" y="267" type="curve"/>
    </contour>
  </outline>
</glyph>
<glyph name="bracketleft.sc" format="1">
  <advance width="266"/>
  <outline>
    <contour>
      <point x="84" y="-125" type="line"/>
      <point x="226" y="-125" type="line"/>
      <point x="226" y="-94" type="line"/>
      <point x="117" y="-94" type="line"/>
      <point x="117" y="646" type="line"/>
      <point x="226" y="646" type="line"/>
      <point x="226" y="677" type="line"/>
      <point x="84" y="677" type="line"/>
    </contour>
  </outline>
</glyph>
<glyph name="bracketright.sc" format="1">
  <advance width="266"/>
  <outline>
    <contour>
      <point x="182" y="-125" type="line"/>
      <point x="182" y="677" type="line"/>
      <point x="40" y="677" type="line"/>
      <point x="40" y="646" type="line"/>
      <point x="150" y="646" type="line"/>
      <point x="150" y="-94" type="line"/>
      <point x="40" y="-94" type="line"/>
      <point x="40" y="-125" type="line"/>
    </contour>
  </outline>
</glyph>
<glyph name="cent.tab" format="1">
  <advance width="480"/>
  <outline>
    <contour>
      <point x="271" y="-119" type="line"/>
      <point x="308" y="-119" type="line"/>
      <point x="308" y="-10" type="line"/>
      <point x="335" y="-9"/>
      <point x="371" y="-4"/>
      <point x="400" y="2" type="curve"/>
      <point x="400" y="36" type="line"/>
      <point x="356" y="28"/>
      <point x="324" y="24"/>
      <point x="301" y="24" type="curve" smooth="yes"/>
      <point x="173" y="24"/>
      <point x="112" y="103"/>
      <point x="112" y="269" type="curve" smooth="yes"/>
      <point x="112" y="438"/>
      <point x="172" y="516"/>
      <point x="301" y="516" type="curve" smooth="yes"/>
      <point x="333" y="516"/>
      <point x="362" y="513"/>
      <point x="400" y="505" type="curve"/>
      <point x="400" y="539" type="line"/>
      <point x="355" y="546"/>
      <point x="329" y="549"/>
      <point x="308" y="550" type="curve"/>
      <point x="308" y="661" type="line"/>
      <point x="271" y="661" type="line"/>
      <point x="271" y="548" type="line"/>
      <point x="141" y="536"/>
      <point x="75" y="441"/>
      <point x="75" y="270" type="curve" smooth="yes"/>
      <point x="75" y="94"/>
      <point x="139" y="3"/>
      <point x="271" y="-8" type="curve"/>
    </contour>
  </outline>
</glyph>
<glyph name="circumflex.cap" format="1">
  <advance width="286"/>
  <outline>
    <contour>
      <point x="143" y="760" type="move" name="_topUC"/>
    </contour>
    <contour>
      <point x="22" y="819" type="line"/>
      <point x="143" y="891" type="line"/>
      <point x="264" y="819" type="line"/>
      <point x="264" y="860" type="line"/>
      <point x="143" y="932" type="line"/>
      <point x="22" y="860" type="line"/>
    </contour>
  </outline>
</glyph>
<glyph name="comma.tab" format="1">
  <advance width="240"/>
  <outline>
    <contour>
      <point x="101" y="-155" type="line"/>
      <point x="161" y="60" type="line"/>
      <point x="122" y="60" type="line"/>
      <point x="71" y="-145" type="line"/>
    </contour>
  </outline>
</glyph>
<glyph name="currency.ss01" format="1">
  <advance width="525"/>
  <outline>
    <contour>
      <point x="156" y="-150" type="line"/>
      <point x="189" y="-150" type="line"/>
      <point x="189" y="6" type="line"/>
      <point x="156" y="4" type="line"/>
    </contour>
    <contour>
      <point x="156" y="729" type="line"/>
      <point x="189" y="733" type="line"/>
      <point x="189" y="890" type="line"/>
      <point x="156" y="890" type="line"/>
    </contour>
    <contour>
      <point x="291" y="-150" type="line"/>
      <point x="327" y="-150" type="line"/>
      <point x="327" y="6" type="line"/>
      <point x="291" y="4" type="line"/>
    </contour>
    <contour>
      <point x="291" y="729" type="line"/>
      <point x="327" y="733" type="line"/>
      <point x="327" y="890" type="line"/>
      <point x="291" y="890" type="line"/>
    </contour>
    <component base="B" xOffset="-1"/>
  </outline>
</glyph>
<glyph name="degree.tab" format="1">
  <advance width="480"/>
  <outline>
    <contour>
      <point x="241" y="371" type="curve" smooth="yes"/>
      <point x="333" y="371"/>
      <point x="395" y="450"/>
      <point x="395" y="560" type="curve" smooth="yes"/>
      <point x="395" y="670"/>
      <point x="333" y="750"/>
      <point x="241" y="750" type="curve" smooth="yes"/>
      <point x="148" y="750"/>
      <point x="85" y="670"/>
      <point x="85" y="560" type="curve" smooth="yes"/>
      <point x="85" y="450"/>
      <point x="148" y="371"/>
    </contour>
    <contour>
      <point x="241" y="405" type="curve" smooth="yes"/>
      <point x="161" y="405"/>
      <point x="117" y="469"/>
      <point x="117" y="560" type="curve" smooth="yes"/>
      <point x="117" y="651"/>
      <point x="161" y="716"/>
      <point x="241" y="716" type="curve" smooth="yes"/>
      <point x="321" y="716"/>
      <point x="363" y="651"/>
      <point x="363" y="560" type="curve" smooth="yes"/>
      <point x="363" y="469"/>
      <point x="321" y="405"/>
    </contour>
  </outline>
</glyph>
<glyph name="dieresis.cap" format="1">
  <advance width="335"/>
  <outline>
    <contour>
      <point x="167" y="760" type="move" name="_topUC"/>
    </contour>
    <contour>
      <point x="84" y="814" type="curve" smooth="yes"/>
      <point x="100" y="814"/>
      <point x="114" y="823"/>
      <point x="114" y="843" type="curve" smooth="yes"/>
      <point x="114" y="863"/>
      <point x="100" y="873"/>
      <point x="84" y="873" type="curve" smooth="yes"/>
      <point x="68" y="873"/>
      <point x="55" y="864"/>
      <point x="55" y="843" type="curve" smooth="yes"/>
      <point x="55" y="823"/>
      <point x="68" y="814"/>
    </contour>
    <contour>
      <point x="251" y="814" type="curve" smooth="yes"/>
      <point x="266" y="814"/>
      <point x="281" y="823"/>
      <point x="281" y="843" type="curve" smooth="yes"/>
      <point x="281" y="863"/>
      <point x="266" y="873"/>
      <point x="251" y="873" type="curve" smooth="yes"/>
      <point x="235" y="873"/>
      <point x="221" y="864"/>
      <point x="221" y="843" type="curve" smooth="yes"/>
      <point x="221" y="823"/>
      <point x="235" y="814"/>
    </contour>
  </outline>
</glyph>
<glyph name="dollar.tab" format="1">
  <advance width="480"/>
  <outline>
    <contour>
      <point x="247" y="-150" type="line"/>
      <point x="278" y="-150" type="line"/>
      <point x="278" y="-10" type="line"/>
      <point x="378" y="5"/>
      <point x="438" y="72"/>
      <point x="438" y="177" type="curve" smooth="yes"/>
      <point x="438" y="280"/>
      <point x="390" y="335"/>
      <point x="247" y="392" type="curve" smooth="yes"/>
      <point x="130" y="438"/>
      <point x="91" y="479"/>
      <point x="91" y="553" type="curve" smooth="yes"/>
      <point x="91" y="653"/>
      <point x="160" y="719"/>
      <point x="264" y="719" type="curve" smooth="yes"/>
      <point x="300" y="719"/>
      <point x="344" y="714"/>
      <point x="407" y="701" type="curve"/>
      <point x="415" y="735" type="line"/>
      <point x="360" y="746"/>
      <point x="316" y="752"/>
      <point x="272" y="753" type="curve"/>
      <point x="272" y="890" type="line"/>
      <point x="241" y="890" type="line"/>
      <point x="241" y="752" type="line"/>
      <point x="130" y="742"/>
      <point x="57" y="665"/>
      <point x="57" y="553" type="curve" smooth="yes"/>
      <point x="57" y="464"/>
      <point x="103" y="414"/>
      <point x="234" y="360" type="curve" smooth="yes"/>
      <point x="356" y="310"/>
      <point x="404" y="258"/>
      <point x="404" y="177" type="curve" smooth="yes"/>
      <point x="404" y="77"/>
      <point x="342" y="20"/>
      <point x="234" y="20" type="curve" smooth="yes"/>
      <point x="176" y="20"/>
      <point x="89" y="35"/>
      <point x="51" y="51" type="curve"/>
      <point x="43" y="19" type="line"/>
      <point x="86" y="1"/>
      <point x="175" y="-14"/>
      <point x="247" y="-14" type="curve"/>
    </contour>
  </outline>
</glyph>
<glyph name="dotaccent.cap" format="1">
  <advance width="168"/>
  <outline>
    <contour>
      <point x="84" y="760" type="move" name="_topUC"/>
    </contour>
    <contour>
      <point x="84" y="799" type="curve" smooth="yes"/>
      <point x="100" y="799"/>
      <point x="114" y="808"/>
      <point x="114" y="828" type="curve" smooth="yes"/>
      <point x="114" y="848"/>
      <point x="100" y="858"/>
      <point x="84" y="858" type="curve" smooth="yes"/>
      <point x="68" y="858"/>
      <point x="55" y="849"/>
      <point x="55" y="828" type="curve" smooth="yes"/>
      <point x="55" y="808"/>
      <point x="68" y="799"/>
    </contour>
  </outline>
</glyph>
